<mxfile host="Electron" modified="2024-01-03T14:33:25.790Z" agent="Mozilla/5.0 (Macintosh; Intel Mac OS X 10_15_7) AppleWebKit/537.36 (KHTML, like Gecko) draw.io/22.1.16 Chrome/120.0.6099.109 Electron/28.1.0 Safari/537.36" etag="edt5HzGI5PFiaP4yaGEv" version="22.1.16" type="device">
  <diagram name="Page-1" id="vC61R49rcezswxKYRVke">
    <mxGraphModel dx="1052" dy="834" grid="1" gridSize="10" guides="1" tooltips="1" connect="1" arrows="1" fold="1" page="1" pageScale="1" pageWidth="850" pageHeight="1100" math="0" shadow="0">
      <root>
        <mxCell id="0" />
        <mxCell id="1" parent="0" />
        <mxCell id="JhEwLcixOUbtRuZrVedq-2" value="Cluster" style="rounded=0;whiteSpace=wrap;html=1;align=left;verticalAlign=top;" parent="1" vertex="1">
          <mxGeometry x="53.8" y="40" width="786.2" height="550" as="geometry" />
        </mxCell>
        <mxCell id="JhEwLcixOUbtRuZrVedq-17" value="userN" style="rounded=1;whiteSpace=wrap;html=1;arcSize=13;verticalAlign=top;align=left;" parent="1" vertex="1">
          <mxGeometry x="436" y="220" width="64" height="110" as="geometry" />
        </mxCell>
        <mxCell id="JhEwLcixOUbtRuZrVedq-30" value="user4" style="rounded=1;whiteSpace=wrap;html=1;arcSize=13;verticalAlign=top;align=left;" parent="1" vertex="1">
          <mxGeometry x="390" y="250" width="64" height="110" as="geometry" />
        </mxCell>
        <mxCell id="JhEwLcixOUbtRuZrVedq-3" value="" style="image;aspect=fixed;perimeter=ellipsePerimeter;html=1;align=center;shadow=0;dashed=0;spacingTop=3;image=img/lib/active_directory/generic_server.svg;" parent="1" vertex="1">
          <mxGeometry x="80" y="450" width="28.000000000000004" height="50" as="geometry" />
        </mxCell>
        <mxCell id="JhEwLcixOUbtRuZrVedq-6" value="ic-shared-minio" style="rounded=1;whiteSpace=wrap;html=1;arcSize=10;verticalAlign=top;align=left;" parent="1" vertex="1">
          <mxGeometry x="116" y="130" width="120" height="60" as="geometry" />
        </mxCell>
        <mxCell id="JhEwLcixOUbtRuZrVedq-7" value="" style="image;aspect=fixed;perimeter=ellipsePerimeter;html=1;align=center;shadow=0;dashed=0;spacingTop=3;image=img/lib/active_directory/generic_server.svg;" parent="1" vertex="1">
          <mxGeometry x="120" y="450" width="28.000000000000004" height="50" as="geometry" />
        </mxCell>
        <mxCell id="JhEwLcixOUbtRuZrVedq-8" value="" style="image;aspect=fixed;perimeter=ellipsePerimeter;html=1;align=center;shadow=0;dashed=0;spacingTop=3;image=img/lib/active_directory/generic_server.svg;" parent="1" vertex="1">
          <mxGeometry x="162" y="450" width="28.000000000000004" height="50" as="geometry" />
        </mxCell>
        <mxCell id="JhEwLcixOUbtRuZrVedq-9" value="" style="image;aspect=fixed;perimeter=ellipsePerimeter;html=1;align=center;shadow=0;dashed=0;spacingTop=3;image=img/lib/active_directory/generic_server.svg;" parent="1" vertex="1">
          <mxGeometry x="202" y="450" width="28.000000000000004" height="50" as="geometry" />
        </mxCell>
        <mxCell id="JhEwLcixOUbtRuZrVedq-10" value="ic-shared-db" style="rounded=1;whiteSpace=wrap;html=1;arcSize=13;verticalAlign=top;align=left;" parent="1" vertex="1">
          <mxGeometry x="500" y="90" width="90" height="80" as="geometry" />
        </mxCell>
        <mxCell id="JhEwLcixOUbtRuZrVedq-11" value="ic-shared-llm" style="rounded=1;whiteSpace=wrap;html=1;arcSize=11;verticalAlign=top;align=left;" parent="1" vertex="1">
          <mxGeometry x="650" y="90" width="110" height="80" as="geometry" />
        </mxCell>
        <mxCell id="JhEwLcixOUbtRuZrVedq-12" value="" style="shape=image;verticalLabelPosition=bottom;labelBackgroundColor=default;verticalAlign=top;aspect=fixed;imageAspect=0;image=data:image/png,iVBORw0KGgoAAAANSUhEUgAAAXYAAACQCAYAAAAcNEBOAAAAAXNSR0IArs4c6QAAAGxlWElmTU0AKgAAAAgABAEaAAUAAAABAAAAPgEbAAUAAAABAAAARgEoAAMAAAABAAIAAIdpAAQAAAABAAAATgAAAAAAAACQAAAAAQAAAJAAAAABAAKgAgAEAAAAAQAAAXagAwAEAAAAAQAAAJAAAAAA1Bp+gQAAAAlwSFlzAAAWJQAAFiUBSVIk8AAAQABJREFUeAHtvWmQXMd175lVvWJr7AABEmADXEBSXESKOyWLkrVYoixr8ZNHHkd4YmIc88LxHBPhLxPheTFhv08zMTFfPS88fgrPs2M8tkOyrLAla6EsUqIWihQJbgCx7wtBEGs3eq/5/07eU3Wruqq7qtHV3ShmAtX33ryZJ0+ee/Of5548mVkoKYQUkgSSBJIEkgQ6RgLFjqlJqkiSQJJAkkCSgEkgAXt6EZIEkgSSBDpMAgnYO+yBpuokCSQJJAkkYE/vQJJAkkCSQIdJIAF7hz3QVJ0kgSSBJIEE7OkdSBJIEkgS6DAJJGDvsAeaqpMkkCSQJJCAPb0DSQJJAkkCHSaBBOwd9kBTdZIEkgSSBBKwp3cgSSBJIEmgwySQgL3DHmiqTpJAkkCSQAL29A4kCSQJJAl0mAQSsHfYA03VSRJIEkgSSMCe3oEkgSSBJIEOk0AC9g57oKk6SQJJAkkCCdjTO5AkkCSQJNBhEkjA3mEPNFUnSSBJIEkgAXt6B5IEkgSSBDpMAgnYO+yBpuokCSQJJAl0t1sEO3fuDJOTk2FqajKUQiFMhZ5QLCwPpdFj4elHr4X/7ovF8IkPrwyTw5eDEoWuQlcoFCaNrVJpahp7pUIIBXZp1UlBtELoVcTVEJZ9JYRN/30I6z4d2Ma1UFDCGyTAL79isRj+/M//PHz9618P+/fvtzogu+6urjA5NhbWDkyE3/hwIfzPf9Ad1vZfDMWpa6q7RNFCPUsm3yll2xjCyt8JU9v+Uyj2DNizgcyNJLcWqp2SJgm8rySQNPb31eMOoSgIt46EHsH6vla6hfeZsFJ1kwRuUAkkYL9BH9xc2UZXD6Ery27IPldSKV+SQJLAEpVAAvYl+mDaxVZhqisUMWNJUS/pGIG+XaUlukkCSQKLIYElCOzjiyGH90+ZpYmsrgyvoLEnrf398/BTTd8vElgywF4qAw6a5JT93i8PYaZ62mBmNrgqoVz34GZBA7QpJAkkCXS2BJZOK5fiWChUvGAwE6TQBgnkZNwG6olkkkCSwBKQwJIB9kJou+flEhB3YiFJIEkgSaD9ElgywJ6valPaujmz53N1+rlGO+e5zumjqNPfmVS/96sEFgbYM1dpN65M+Ukm9YJ8q4tMXOJ6FrTJY1spf9FRTxCBZUKzesn33OpaMVVdV3VljpkSvXwJ10UvZU4SSBJYUhJou/2jS+gBHAHaEUq4AliiHAoC8lJJ02ZKk1JImU3K/NQs1EGeabhflE+2p/Oj578Bj7H+yIAfsmIWrvud16mQ6lyWV53b06JK3eokxvRTCTfQ7Nxp9UgRSQJJAg0lsAAae8FAHdAGghoVaJhMGoF8o1AL6iU0zzBmyNZJ2nuUFB7m3lP5sZFkWojPDZ5CtWM/eloQSUqaJNBpEmi7xm6T2B2RdYxrkeC2N6WJMtXidHCup4E6ieocnXeFUcp/VruI8hkA0+nxVSOpzkUgNYKtuew8YaYaJQm8TyXQdmDHzGIqtcERGqKu66mJaN8CK2AtS9r6I+kIpJIPP6Yqkxqy45qgyjmYux3Lo+1+c39qRZTMMc3JLaVKEriRJNB2YJ9VGIB8DugLufNZ82YJNG+nY0J3GFbnplUbDdB7DNSxtk9qxUv7oinNYG9vUQoG8pJdB4mvRQmk5EkCnSmBtgO7L8Hr4iuxJG+pLw6YyhZTlKZemJJmKk2+S4N55fE8LeFbG1xh9aPft2uhVF4bvdGW7vW62OzS0qjAdjxMFtcK3xnolNaO3BCTlt21wU/VtiIr6o5230QoKJ3JilUem0jfxiRTesY8p3oBk53/6t2fLS9LINeGmfLUpm3mGv7qldMor62qqfr6u1lbv9r7s9Ge7/rU47tLS0Z7yPPncc0eva4crzfAB3WfKSC7uZTVSKbzyf9MfM/XvbYDe1xTnYegBpw9U4REc8Zf3Uw1uog2Y60Tw4PHXFPb3ukAFAeIV5R6Gi8PELDihhH1YihAEQrEE2pocum37H72x+JbeAF50WYL9crJ57HiRKdLv+4wEfoKo2FCAK+F61XDScH8mHxj5DmUafKWNys2sjrzi+5lsXRDFJP+Kj+GHpru7DVwCvN39MbSiOJMDXO2vPVoziVPPTqtxjkgevleLz86Pb/2Y20+T+dH0nlaj2vn0cvyY6tlkW+2OjVLc7ZOr1k6tengsVH9GsXX0lgK120H9oL8HYHxwpSggweLZqmjVB0Bio6FPnnzLdPZqKULtrmGNs8Q5ChTtYwAd8VAMYZekVIV7Eecx2e3Zzk0St0ofhZyc74dy8v+yn7eq3W6+sZHtYWINtMoqbMrToWJ8XHFhdA9ORG6plZLCHR+yBIZSV6c4yFUDmxAUkd+FIPMkf5ioLlKjo17Kpw/fz5cvHgxjKtuPDviCTTadevWhQ0bNoS8xmg39YfNR86ePRuuXL0aJiZiRyWqdpv069dv0G+9NVBo0iBHR0etrPPn33Uy5X6/HNHCSbFYCCtXrgo333xz01o7vLz77rv2u3DhQrh06VIYGxtVfaZCd3dXWLZseRhYPRDWr1sfNm3aGJYvX6H42ES9HrDIOb/33ntPdbogGjz3ivxaqMb0pLRNhaKOff19Ydst24wHZEg58P3ehffUTKO84aNR4DnyPHp7e1WX5WHVqpWhr6/fnkejPM3EX7ly2d6d4eFropXPYS936BffN910k5WZvzvbOe/VqZMnA3Q5d9rUcWD16rB27dqwYsUKk/1SB/m2A3t/f0+YnJDOaS+C9M2CrvUrCFx6VHppqk8NW0AzulwXfYoHoBRIX/kKjHHTkAj2lajQr+TjYar7rGgciGkb/RVZXjh2JWrc6+sF6VsnFF0m2hk/Dejx0C9dvKRGelE8ZC85b4SdShsWuK7sK4XlvQCMoonn/asTeFlWFq6Em1d3hal1yEigJTngqj823hNWrCyEdX2T2m1K16VedZHj+oKRX7pAPX7xANi5kIGCx5hsVXdCSflDn/IZMw0Y8ozzeERe/MbGxsNrr70WXn/9dcnusupaASaey4c+9KHwxBNPWGMiPSE2plIYGRkJzz3/XDh27FgYuTYS5Uka/fr6+8NTTz2lvE8aIHlens/u13aHn/30BQhlzydfsXoyiOXmU3nGoh7K7bffEb70pS8ZcDVq6JRPx3XlypVw5swZq+++ffvC0aNHw6lTp8LVq1fUPiZEoy+sEXBs2bol7NyxI9xzz91hcHCnARSAkg9O86233gqvvvqKgTtCIL4ex/m8s59HOdDR0LF+9b/5qgB5lWWjDsjwpZdfCuN6fhaQe51AdFeXph329KoDXGEd7VbVbfPmLWHNmjVhYGBAHZnal0Ij2dUhayaYffv2h5/97KcG7pW88B21bWh/7nPPBHZva9zGp1On8//xj58PJ06c1DuGohkDVoe79DwefviRsEPPBjlXyp1OZynEtB3YV69eI62KrfH46C8K2Lv1k4Y+fk3gOhauXSqGyydKYXJoucwQApoMvDHTFGr9ISUxvDgK2cukV1nPUjQFcMPjh8NI+FvZpb+thxk11bLwlZ7XzzR99cSrepeFNStXq2dfqQdEWu76Y5RGqI4n7PxyKKy7JxS7GQ+Y/iA9jkb7U71kzz77rMBqxB44XxETfJlMTYTVXZfCE4N6MW6aDH29U2FUxfEVkw9Uh5junq6wY/mZsP7XBNyP3qpIvfiT40pfUA1JMxZWLR8Kl88OhzEBS7Gwiu+aoLldKtdqVyEruaAdxY4p1zmpQ5siQ7E39EiWK2bpuCoE5+fMwEcVRvt74YWfhn/5l382gHP5c5/wW7/1W2Hr1q0G7Lw7/iy5j5b6X772l+HgocNhAm0120KRRwlA9gpMHnvsMVHRu6a8aI3nz78XfvHznynf/63nqYT2hWNF2Z+yQlGJiuly1zGh5y2Gp5/+mADkcwbszrfzSVqvK1ruT37yk/A3f/M3Yc+ePWFoaMhIcd9ecd5p/UqFwyH8Sq+N3hvA/EMPfSh89rPPhN/4zGdMUySN24CR34svvhj+8R+/rg7uqNHjj57svIQeKQW33joYnnnmGSsbGfJ19cILL4S//bu/DcND2o4yF6bpXLl7nALwq6X13nnnneEjH/moZPd0uPvuu+3ZIIe83Gqy2qWnsU79uR+F//yf/y/7CoumXpLwjsc2XCx2h23btoUtW7bMqmFDl0D5165dC//yz98Ku199LVy9kj0jjW3xbvz6Jz6pr6hNYXBwMNPm4zOzzEvwT9uB/dw775ZfRgwpEwB7l0B85FwY3Tgc+kb0CToqTX1iWCYGPR4bCVWjQNj1BObmBTVM8xLx66Erob94RhpbtzQ1z4g+SkOM12ZNVqPuHu1W+d26V7cEAabybfmwMu1yQg2PfLLtlwb2/e/9a+wAlLKk5REm9StNjYT1XafDrk/0h/7VfWFD95S0Mw24GVDRqCMHsCcupZ0XwqaVI2FyuWLM++WKjvKGUTpkNz4xLk3ialgzMaJOolt8ymaDHIpujqhmszDGJ480/yzaxKAWqG42TBXXh6LMAN5JVuds7xWNiB8aGw2eH9eAFhoWR0wWx44dCR/84AermBkeHg5HjhwJly9KNvqa6VIjVlaFqLGuXOWaoNc6ZgeYKCemJ20VWZNxjOGG34wdYgT9SE/doiUrihbmhUYaIXWgTnyVfOtb31IH9i8GjGiFaPv+dpssVB7/KAGg6erqloY/FH7x4kvh2PFT4cVfvhS+8pV/Z0BImQTycV4rP95qp009autpmbM/Lrd8XGRCH3N9+oIYWF1VP+rary+i3q7eMNEjpUFiop4erC4mJsqNYM2RNJjM6Bh2794dDhw4KI375+HTn/60vni+WDaZkL9egIbTO3r0iMwlJ9Shj9uzpGMkH1yAB5CYkrnyyOGDMtedCTt27LTyef6zBcxPK1auDN1SDgo9ek66LhR6lV9Kmcw73d18Rcd3txGvs5WxUPfLENiuAicnS2FCNkR6Vl5dIGhSYDWlB10SUHVNTIW+CQkMWykDexmwN8NPBPZYhe6xS3oJr4Z+acNmYNBOQfllgKFnzVVlxzKklfsa8KgbmCYIvBzFAd6OeN3E3wm9SPT249KiKFtdRxiX1l/SZtO9xYthUh1Jt0xOfeoESvp6wROIcYHYBuLLDG9o3XjD6A21UpFXQV4wQVIrid5YcVKd30ToF6D1TI2rpAygeLnr8kkdquuB6aZL5fA09CBomTqz0utSaGckjcMbvjXODAwBAhrlkSNH7b6DPbxcvnwl7N37tskbO29s9NyhDsiQX31pxLJiOktc98/0+1ErdJoRyApszp59KeTJRH4AmIJtSP7d73438Dt9+nQuWQQH0uoBGOfxnOt4b0p1w9Z7/Pgx1XVY2udNMmNsLoOgEyMdNvr4BjjvfvRU04+xvOr4vNxiPXS/hpS4M6CsyL6SoJom8VFWHo8SRJ2uyXz26quv2lcbj+oLX/iCadZwk+eBaw9O48jhQzJpnY7vhTIbrtB5KCHNRn2PTkrhsKWLwO40Zj0qP5047YHyUKZUgvSHKN8Gr9WsZBcjQduBHUEBdRV4QVTeSCRIPf/ilEAOYMVE0AKwG0CLfhDgWaBjmNJiYgL1MjBTQBasVIFGDNmnW+6+p4uDixUey/ENTgAeNAKzOlKcZ60UrXopXnVjMLRQUqeC+6IHxXsW0z3oBD2vvahK3iUgV1yRyUmYEYyeoB15tSQz5elSR6GxCcrgBaZsL85ZWogjZed/UftTQxJYnTv3rhrnEdmgr8pGu7LMDgNne/bsNVDI5/UENs5RFp7HSn5qlWjKaMOc1yZBo4ReJcQnwiApz5cjmfia48jzJr5RwESH+eW55+JYgAOWl9El8xqDo8uWaTBRZLBZA+DDwxozsFB5Kti7GUzu6dF7kwuxTvAWeXHaJIl1BPSjGTSXrXxarw6ej3v8aoPLnGfl56Qh7Sp9LaHpEwBcNN3h4SEzmcRnyx3qVbAxhzfffJOU4YEHHtB4xe32BQdNlxWpPRAHjYMHD1onSboIuPomlXxKukd5U2of4PChg4ek2Z+y+vOcGtF1+hxFMjYraOsdLGamYM5jXfOpl/Z524HdpFVXBpVG5GfWlOoBbT5/DYiZhstDN5MM5hk8BHghMwB34k6Dp2dBroQE5Y2oZqVnT1Ymjhagzl4ye9F5uSIvJez8KspeFmnZ8FTgjeMnDyArV2cWsqIxLcRrga9eKo+2Kpv/ugZOJR+wvRxMXl6ncmzjE3hRx0CjgJNu0Wohd2O683QnasFTaviXw0l5KPCj0QMcNGw+5/ft22sDksid4EDg13lW/B5mH2z2DzzwwZzooyAB4cOHD1snAhACPKa5if6aNWvNQwWPDnjrEgrbUSC7Y8fOuuAOH+fOnTN79P79+8vsOH/QgpfBwcHM86cQrsrufu6dcwKtM/oqYTD+ktVx7do14cMf/nD4jOzsDGYSqBPyQIPftWuXDUZy7fQ5kgazzzvvvGO8xHpFVriHSWX79u02MOoyind5Z0s2bgB/eLTU3vd0xHtZmIUeeughs2sjv0l9xVLmO++cMQ+md989Z148DpKA7ZDs9AwAM1ZA3XhGTs/L4NrDVQ3eHjx00Oo0qfiifnR2GyUHvpjfffd8fJmV5fix4/ods/EMbPt5Ok6v/pHOOr4X9e/fGLHtB/Ym5TApWTKmOKtIzT6ZERWYx4+lysP34mzw1TsJ02qBsSUSUNF8bCDfUaEVEjC/+H2u+ZKxgKafuTRStywNn46tmLCMlJUb5Uap0yUYS1zovxFEooaFJ8vevXs1iHerebgAVLg57t+/z2y2NFYAgjx54Mrz7Pdxf/viF78YPvWpT0lu1RWms/jTP/1fZf99XeA+JHoVmg9pAPPLX/5SeOSRhw2suqXxm7xVJgO1AKQDn2uldBRvvPGGDQrDcx4A4Q2Pn9/93d/VIOJHyoOiDIbCxxGNH/zgB98L//qv/yqTw1nzjvn3//5/zDqAqEFDj3KxUQP6lBt5iBXzazrFb37zm+Ef/uEfDPgoG5nRCeCm+cd//McGxs4/9z0Qh6sloEhoBIykgx7A/Ad/8D+EJ5980p4J6XkmeNK89dab4Tvf+Xb4u7/7e3U2mnCnex7iIPoLNtjNYGctL56WLyq0dcxzly5fVbr4jJDDr/3ar8lkdUIeLT8x2uS5pM7x2PGj4eSJ41YHZOLvgpfdycclAuyYBibMpmUzUQE2BgWjcaMs/2h2QPv1QBNTsIfMCRqx8tmLznUWDAQz0PS43NFs9ZFS6wCZo1Pv1F9h62iUoGSgrlgBK/bu6p7MjDmRDOaWrP42iUvsawhK+cga6x27NcXpXiaJeiyU40x+9sT1kouG2qTyNpZLOWObT2h0gAg+wvifo2UySHr5sswue98KH//4x02bOyet78iRw2auoPGSFo0SbQ1QnCkAPmiVZirwKmcPBzDBg4iGXxvwicZ9DlMIwbNy4uCSzwNfABqujCMj7mcdNVvubdy4MTz66KMGgK6hkp/6UwYy2L59mzqSx+TJ86608ptMC3beHPg4kp/6QDcGuPPzYF8g1NnzZInsgDwAbWRYL3geyuX5zBZqQZP8lDEwsMq+kjjHM+nZZ39oXxLQg28A+/jx49YBcE0+P5bLJJ06y70aiL4s11hMT8af0q5etzY8qC+F/v5l0vx/aa6wDCiX5E128uRxKQF7wz0fuLdM6v1yskSAnafsjQY7ol4ktHHe0bxG608lH2eJ/Eb2WnO/Jr6Sovosgnp1XKtXNCd+DYOZX7hL3XLg3TBD4zR69a1uHBmKRkQzlt2gjKINyJJzaXx60pgBB9zUAHXc2tD23n57j9mesbO/I239iDRaBxrX8ADR2QJA4L/atICOAYXdsJdO1xWQhy/SOI+ev5InxnDff/DvXxGkI54jcdDDhABN6sKPe8QDxAD2I48s0zjCaNnrhRJqy+MaGrXB6VXXqzaVnnxWr1q6+ZTcg/fGIcqL9opy4fX39MiROt2iiU4PPvhgeP75H9uz9fvwykQrOmfO6eDy5Rlv4gHN/k0B+8WLlwUJPEt1hqr79m3bw6C+6AB8XETPaJBaurzG9Ao22Wj//rfLMvcy3w/Hytu7FGorQMYzxgIaax7A8/wB2k0Cdz7bUjsv13UOjNkgq/I1C+plUw0Dy2baARCUu1kCc+Cx2SwOLDRoTAQ0UIAPgGciz1lp8KMCOcwwDKg606RFywUQWg158IiABA0HsAysjGjlnHLy+WrLpB7+6+vTBDIBJyGfhzq9+eYbcvf7mX2ZQNPr72lJjza9ceMms58Tn0/D9UyB/P6bSTaeBlqczz24jKbTgC488GXF1wEyqS1rQt5xdHi18X7NvYsXLoY9b7+t2cZyc1WgpC4Nmu4YvNXel82bN4UtMrcRrIvRe33h/AW5PR4LFzTvwWn50RJ28J9FAfZ6WAIj9LMG5maGmLvUG/UHc6fYvpzRxbPi6gkAT/vxGksmHu++/vm+ze81OlbVoEpA0xtjVdoFuHDQAgAwVTARZPnyZRo8HA3n330vDmxeuSogPGe2VN4UgB9gx0yCTbvZ4MDrZdq1dXC1nQPXMS6fB2Dy60ZlkoaBTTxeAJI8mKDJ//SnPw1//df/T/jhD39oLpFuenIQhn4+H9f1gvNRe/S0Hu/X+SP0/f5Mx3yeuZ5DH5PLFT3DiiyoU+wIMSf1aBo66fLB0w4PqYNXh37k1Glp+6yfFGXaJe2e8ZflMl9h49+27RbzHMMtgC+Fa9fGwqnT74R9hw6Ux2ScZr6cTjxffFMM6JTzAGlJyHlks4wMLma+8NXvSEOyAKEFHeYKceQr54VcM2U7715+5KLyl/s19+La9tlAKgXmy6mTvkIsd2auobE/L+DGlbu1WKd5sESzu+WWW+Qdckrrkpy3Bnlg38Fwx+13GrDjBsnEEaalA+xowAxQzk/wh+dS8UHr5qg7QFKH++67z74mcJOMfuZOoyRb8zkD9Z/85AV5/OzSEghPaiD1w5bHbd4AULtBaL7p533boY08eLYEzGq4N9IJe1xM06VnuV428umTvZy/Cxo/+eWru8NVDbyKqKjFrwCA/bbbbg+rZKYD2Hkf6IylH9g7gifahQuXwiu7Xwn333Ovma1qOw9468TQdmCflO2Nf1H7kb8tZ2o3mYtoWaZTMsHYsmDm6ZFpYHngKqesOamXxkGzJumMlwLReqRmzJO7CRQYHJh/OmaO+EKTxGFiCo8Wxg68oBrgJm055O9x7nnKCeKJV9WSG7hXEpQ7LaKcHm89AYuMeeE0IBxTLehfGjKf5QweHj16xLxf+Aw/eeqEfNffsokpNgtQZg6mo2OumFR9xuVaZyJyQS8o15XCAA0HNLxwHnvscfO5PnTokIEcS2v4VwC5sKEfPrRf7ohn5PP+vNY2uS08ooFVlkPAbuwLTjnNSknzczY/IMf7w1dMl9nH3eYPbX48vwMHDoRvf/vb1pnRCcf6xFe6u6sn3LZzl/nAUyu+Whz4/XhRazG9+uobYVK+/rZfg8as+nt7whaZX3YMDpoN3zR2vTfFXo1b6OuAwAzri1qw7PVXfxXGvvw7YYXmDRAay9Pbgh95oTj3H7lvjNB2YEcMNDq12WnBoI+bTCpAdkBghlRV7orTcs5jRD1EqMPrTCWi95KFn1WDxFah8hUxMXiiWGGPnf1o6WsYy9GQBCs0cvEWmb+2GbYV08X8NO5K0ddzRoNjHZXBwejfLVwwjR0fc0AO9z2kjBkGYGdAFSAoN9R6L1mTDHkH2WTyhslcnnhmfOxjH7OBQSZZMT4AqPugrLM6okHDUXnPXNAA4in5sB+SOx/eHffcc094UMsp3H33XWabLtexYcmt3XA+W8s1PTV88bsqMwvLBOD5QiAOsxMreLLoGUsrsEyEpycNqlSvOulHHv2QVrSMXkfEE0hHYNAUU9X+ffvtXfDXnAHZnTt22JcbA668C3SmmPKQdTRriS/5yh/edyC8+87ZsFLvEM/l/RAWANgj5DjsVE2uySQccQcbW+aj3arkzf6sTAUBltnnvbQmCcFAHQxuMjcF1yT18hXvp6TKA2xNjnm7rFeGafIZj4Zg+pTNeK7lfN74mAMhGjMTc2icDIbhJ46WyyqOaHp4TyBrgP0DH/iAufqh4QNS/GL3OoeCjerc8jXKRV127bpLfvOflvlhTN4gz1vHxEqO7voKsKGBmheHlgVggPCCvD727n07vP7a62GPJu9gpmGVSyYTAWDzBciN+G4l3sEXEGWFzu9///s22cieheqPpwvAzo/OzUOsg1Y8XbHcJlg9/PBDYfWa1VV1gzbpWECNAfR3z0WwprMnrFixMuzYsVPvSI+BOF8KDKQPDu608uK4S/SmOffOeftq2Lhxs1bQlCtkRjtS6sy/bQf2KZ6EBjLyboVV2APQXA+6KHsVPZ4TEdkKj7M+ttrMBnyz5pqWIO4dyog/Br54OzN6mCGqKkNtmVU361/UrntjMoPXPK38eS0ZrxdeR1pOlS8jvAeYDXs94q8tZi7X3tAACPzRGRDduvVmaWNrM7v6OWvgzFrEh3nFilUGCCyDy7ojBAOTuRSe5cn1v9dBJWaNwMVKk3GVyY2y/67WOus//MGzNguUSVDjo9FcwPuCa56Vr7Zi9ZD54rhWbDyuCTZ40KDpfuUrv2N25HqDjNfN8BwJGK8CSZ4fIB6XCKgQI75eIB+yYVndz3/+cxpn2GkDzaR12XleXFn3a0LamFaDjaYZ3lbWwl+RLcur7WckL/Lx3tx99z2aaPaaOtM4PqI3PFwbHddyw2+Gu++5Tx3ImnosdVxcxRC8IFXjQbu9vbrAYrbeC9oMv6ZDVVIGT1WGfpCY7WdlOOBxYXnFn9bxaB7tvE6aTqWV4Ca0WJcmnmvqvyZ28BNZXq6qV9zLtPIiv853wyPs2fgDlqsKNeswc9dUoxycvkfYddv7ci+tpSMNGZBjmjlhm/yT77jjTgMNGjReFUxTx1tmcHC7ec7wmc4kIALab/PPzLJU/WnllavK2ODCQQ/eb9OSCP/hP/xP4X/73/+P8NWv/l64a9fdZoKI0+t5N+DdaqCHKxuz1jzp1jWDxGirf/VXf6WZqN+VJho3CXHQa1D0okWjNfM1xZcF5w7SMBSfb+wE6MB37NgRfvM3f1Py+Kr57dcyTV5+DuzRjBXfEdKu02YkDz7IxCStNqlOgnIZUL/vvvvN3OIygsaIQH7363vK6/7n+aott1Ou297KNa3D1iWJmmHsR9h0Q69yhHg0FvlV46Hhy9g2FK4ylbDlCKAM2iCik0l5wtA/U4beGS1JK6W5gn1lcnrG1YFrwA7NIksPUI7puht+1MBsMTFu5/Nacv2BIA1RK8EHLdI12r2OdR1FSoOALPSlBb8mpB2XxAxsMzxcEnNd4pP9XauJVrNWrqOi0azJzZEOw4LywytscZd6Z9AQ7/NXdSBk0BETihdRyeLtsGT+0BjjxJ4p84xhHRRcA6kbAMn9NfpkZ9EoGjNp2bBjSVZGTAEg8MwRlz7WIt8oV86PfuzpsO/tfeHll18OL730sg2wjozGL4/4kPRX+Xh6/GUG7t///f8nDXWHmRuou9ONlV8Kf+PAdx404TEGxhaQR1HPrS+uMf8bv2HLGVAXQm0+rnm+zEpljAVadAheb1b//MY3vq5OIc6sraQ/IbPdSJSfla+CZQrbs/d1DcKf1JfeHdaROJ3IX+f9bTuwo5WAnQ5AHCV1/RcgKl5ryIVubfoQCtK8mDhDYpuhqUOmoZLFA7gGnBkdInVStKVoR6xjUPO3lygui+svlufOHyO4WUxkKrup1SHFQ7FbPGndaXvhyoXFJIC82ct17NGL2SfA7tdL2DfOVnbR80W1smWJWSKhS8vjaq6h6KqO5hUjlxT7QhH4zxbMW4gC2VhjSptjsCiwbK2Sn1bzgBGjUGQx+7z/PyYXhCNm9bcSKF8yt46PLJU7i35GO0Qzp9ExEHbHHXeYRjaqT2ni4HbtutXS1D5oGhqf4HjJ8IxiHatq2mJ9rifvzEU5iCzTgF+/ZpXiwYHNfNddu8Kj8oB5WxNv3nzjddmB90krP6daxi892gkVYxyBdVLefnuvZHK7LSDmNGcuub134zMRi5I/JiJfVhgAxg0VUxlfWfkAuNNh33vvvZa+th5c86MjR1tnfIVxF8rw8jgyQPqd73zHTHNOn3JjZ593f4XepHY5O68O4kA4d98HbLs/aFjb9swddmw7sHfJnUkfZVIeaTjMl+RKwKLFlLq0XG+Xts0rar3yMCqwQ8M0xIlaabRb10q84tHhd4oygRRH0YTpKPRSaIs9tFmgID+Fv3rwMtN8nQhqIXuHdukzGDfAq5q6fOmcWG4sIquSAHbd2HAYLIyEdV3as06rJ+odVPlxuviAmBgYF8yP6NOaSRhjetG74UxdEBtlzBCMXz4/CNL8uyZFR4OItlZGt4bcMBl5EM+xvorIZF3QTlXlTtLTsYGHgbs6lUm04BwNT7OIRwZLAWzspSwvwCqIx45pY4WJMWm9gMcm84hB0yNdtY/49TA+/3JwIIKrPDDBO5OwGCQG4E6cOBHeeP218Itf/Cy8qN/hI8dV3/idBle8TwweA3LY25EJIAb4LWbwOnHE9fTjH/91mzDEc2HAFI2aYx7c6bjRthlLYb5CveByY10gPKEYCI1l0Ub1eutFH9KkpUOHDulq+nPz/KRFdgxQT06MquPcb0sOsI9rPg3pOi00Rq15qml/3zJh3ZhexLiuCVvjaYfH0Cvw7dZmEeGKhH5eGtk1AT5PTA+Bh0go2S5CeUYA9eksA+ITwwCbVq5To3Ff2gjq09PnKbrGa2BoU+3FQnE0TOx7KUy9e0Xn0tqz3p1yCNb3cCI2x/C7vnYofHrrZLg2Oaq+SR2L8a/6Crd7lOUWdWe9F6RdWufFi6aOR1KIAAyhWQIyEXBPaQnMSZmgx0f0ggvYbY1wZdVd/WIjZxO9gkxA8FaS/bGg/WDp7izYjkvqXOi4iFdnuFSCNzQaMRuXAFqA3wMP3G8DjsPDE2Hdenk97LzVBlZ5xtHunvvymkNlYrl6SFlniDQJzk/tNfH+fjZTHDwCwtiAyetgzDk/TDS33Xab/Vj29iZtqPFf/vJrWp3wSpkH8gD0eIj4tnrOYyu8NMNvq2kovyilg2fDNoH47hPwYGLJ4pde+qU07ouSWXzXJgSwP/zhs+oAttvgJ26LtQGayIyvFLT+SojAjs889FyWlfvxjLwE5BsDeFIUPa3RrtmrxDeUm2fJctYenOaMNGozLcL1LKh3/RyxgxIbvER5aX1CgafZhokYkzuSAO/KqSFNPtDiSGpc0ZQS3R6n8qaFjJU4+7LCl9EtskmBNBgB4HivQEEaaUzHA60EH3ysxOgsA2ts2OThsqugtSVO/aUAMIIgD5GNeXmZuM9rwxHNXinCA0Lwuz6i/UdLA7rHXV46Oiq2whsNI8OXwsTF4TB0hTheuDGNK2RgW8XM9AvkoSym5U9oxbqhq2rk/ePanowyKukxsCBXk6Ey6K541pKx4pEvpK7sJWfDDlic0kLshZV8XVTLqEJxcc7MvCKNj1ozC/OpD39EJoj9AocLWqXvrvDB+x60wTm480bWDKek9Z/n9bqj9cd7PLvqQDxAwQ/ePA+pOJ8JXLiPDzY2ckwvgFieB+47bc63yBPoy5pI853vfD8MjRwIY2W7O6XFfWLpKDyQZ0kEvW8TGqBkvIOOmU6Xun7+878lID1p9YdPzK+0Ib5QXnrpJbms3hcef/xxk2tejtSLL5R9+962/ORFTl5df1bEzRZ47bNXX5tvHLTBaDypVsjVEjr5UJZmdbQl8efEsfY9yNOoPa8ombV32nvddmAf0QbPaOuFTBseF/iMagefLq0DMqWXAKtEH6aTcNXAx4Trgq0RPKJQM6uSiHmICLwAAnCuTy9PN8BuiXPIp+tp+3uKFy8ChQ0gJgC+U1Na8xl4JA5zCC9WpKoU7COKnowuLNu5OoUeXZhrp0ZJbc9UmZUwc4xNDGnooKTt7LpCH7NSszJqXyrKrRcKmdvmlDqCcdGBi37xJ/2vDNbkM84VD+/whdGrOMGysXzlcK0bVDJe2k5McXs3Ui+VEDtnGjmNm8XAnv7oR20FP2Zp4uvMQk80rggEzfMOPX715E7jY511NtFAfrbXpSRGt90jU6LdUxrnayZpRdCJGiErUX7jG98w325MLniB3C4PGSZbeYAnBzVAG593wJGlp+15Gc/wJN9tgSUa/vUGamZmPtX1+gNE4nPrEpPIkvrwhfLUU0+F53/8XDh99rR89C9I/rE9Ypph79N/+7dnywPh8OHPBuDEbHLy+MkwLP931pCSGKz1MVi6Y+fOsE0dpdWjqgLxfYA+E6LY7MRNdWj5Q0NsNagNOLTd4F133WXlIf/aQFsxRUjtxe/mvX2aeQ9qaS70dduBnZ16eEnprQm4AJqXCF/QAr8uAZa2ZTZN00weVS9b1YXlj483nqLQG5zrZExJsa8DeGjRAL3ZkmOxWd6aQ/ayWGxWVKVEtN9IM0wxIFq5Q3q/xE6OWYUNqlWb8otQKGnwlHvSBvGw6dVLIuhQTjyAoDATY9xXsHYQXy3W4WBwVFZlGbI0WKXSBEMxnf56oyAi0ueMbqBm0hdfCvbVJM2PT6klGAyEqaPAATs0/uy8Pw4a+boa+9mjqUijcubVwzUSzRmbby3AX9bg3JAApCRAQeTeOUKWXXuw8x7YfyBqaiAsaXRcqUkyDPI6MDtfHLEhs7nE9773XTMBACjQYXNuBg9vvnmr7NJrbHCY9PiBo8m+8MJPzIwxqbEGDygfNB9s6z5Dsx4gefrFOFp7EEg6Xxx5do8//kQ4cvSIPIB+qUrwnkp2AlkWdHtF+56+/KuXw8MPPxx6WUOdmwp0bEzO4llZ+2G8SpknJQS+fD75iU+Gx6Tpl8sqVzg+GzqGv/7r/xp+/vOf6znEgVc6FRw52HsWLxsHdrI6HWOwTIv3wFDEYljrhsHcAwey94C65tI2Or1Tz3oxQtuBHaGhKPJQpwcJRzdx6LDG1ArOiCYABtlSEa1ZZgd6WF6cjN708mpiSFcTBT0UdFt1UWMApmXwtVHFWwUsHQQiGTRyzgSeaMpoltLg485Q0QwDcbTppgLJnEEd6WgoDyXeyrWyIiWuWwmYZ8wHs5VMC5KWSldXhtmFHmj8DgAex9HqX85WPimnxbMCLY7lcmsDnhSntT8m4O+0vZxj8iN/7kc/0pT2uGtTQSYwAsB+u2zjX/jCF8310mkCKnQgP1IevDawM6OJu6bIhCOAfceOneYds2rVKisT4GAwMILRRfsqccDhuG79hnC7vIRwlyR4Z+LltnKswFUruWZLW5G5p4TvRx5+ROv8vBn2yqNn+Aq7U/FCxxmhRw4fsZ2i7tR8BWaNco8fz4EdqHhm5kBBvN4JnvFOyY2NSp568imTm+ehTH92xO3e/aqB8CXN5OULzLlj60Fs9zynfF7n2Y/e9FAooMt8gn/TM2V5BJ4nX3fltumZ6hz/l//4H+vEtj+q7cDe/iq0qwQ9WtqwvxGtFJOhLB1a+cerqXjH6VbIzWvajLfYQ6jBRJya1yLmQkxtz0I0qFVLyRssCfLnWYayTMlVHti2m/StUdPHmwSf+L/4i7/IwCUmgF5tvnwZgAA/D5jbAEb4/djHng7PPPM5A3bPAyjhvfK1r32tDAKxbnRIU+HIkUP6HVH+oo0VsKkGAZsyv3xw4GESzuOPP6aJTbvMW4g03LueUDLt53ooVOeNY0uxscAbHQ8y2bFjh9a8eTD86le/Crtf3W31jrIq2B6lz/3oufDMZ58xmzzrvQC4LD/whlaCvHTlsrR08DM+I+AdTxomJ5HOn22eE49jA47NWs/+yIFDdtssB+LnrAZjD0rrZhCa8vLBm3qlzVaUiAOHDgZ+JnUlRFlrJiwWsC+RZt2MiBY6jUTDrKLrCdeZ/XqKnjEvfPH2mnlnqTAJH9jWp7+SDnB+rK0bQBHbWePWhhkH0w5H/wE+bt6ppck1Hk72/QCIKi0/zwvY+uSYfF60ObRvAB6QMd5Ex4GY+nFOPCYH0np6rx9HyiFwZKeor2qPVNw/WwlOjzz58wqNxvKqpKmc5Wlwng/xujqOOhJ///0fDB/96NPWsbk8yAs4YwdnHCIu8BbMJHVUpptjWlIB81QMUV4Fzf1gzXW8pZjd6s+Tc5/t6s8TG/yGDRvVMchQmj0HaA0NXZHJ67h1rpQPPx7K3Fei7BZD+QSrv94B3ptC7j2izEY/y7gIf6a3ogVgwmae6oHXa8QLUHyTRaCx1zzhZnI6MLnWDoAqlGSawRaPpjQHqs2U3FSaxSy7lkFrKPYe8C5kv9pEM13zBSTxkreZQCMGbPm5xmfXucadp8MnPA3EbK1KY/nlAcWkKAdtT+/8o4GzMuOf/MmfhC996UtmE0ZTJ48H0gIO/vO8Xg/nE88S7M9/9Ed/FO7V+u5sKEHwdE5vtuP09PHroUG1ZyNXLj/SjbKPkqrOSv0IdEwPPfRwuOfeBwyADRglA8pnc2sWSHv99ddtbIGxiVdlex8ZHpHc1cHJ5IXGrs2SwuZN62zNdXzmKdt/XirXThvNHtfRnj7MeLGDMX5U5oX3LphZzgaps+fqNLr1bpDemq2qxhHjqTVn0koZsvGu7D3y96nR0eku9HGRTDGtNciFFkosTy8lGm1zmNGARbSuTOuz11P1bpBywaPdJLPgBVcKdG2JIz+1S4mchtVcMI1a+QwhyK9Ta5Y6Ivfa4OV4ubX3Z7p2jyoG4HiisSFHvvP50ByxF+PGh/389ttvMw8QbLOnT58yE8CEBkZrlRrnCXAiHzsDsXQCKzs++eSTNgHIgTJf3kzn+fo6/SgX+KajmS6judHTqBHPoSZQF+RkvvryZPnUJz8VThw7LlMLPvrxseG1cubMWQN3BpTxGALYxwT4yDyD2dAj99wdWlJhw4b1pqlTH+jXC9xj3RiAHf/6M5I7HmrWRahcOo9XXnlFSxt81gavq+lEuUR5ZYDuhVgVYbxVyTmBhTsuErAvXAUXryQ0BXz2qzng3aiJqk7Q4Vc0IhoNn66YFvASQbuijfLbpJmlAwOrZ5SCN8TN+iS/T26EK6Ql42KKZozddKsAwoHT06JJ41EBUHpcvpDm+jkBohKKfdM8WfuFenhwutQPUw0TjljBkMWqXnnlV1qOd6+BO0vcxqnv+opTWvJhVoBH+GcnoPvvv9+0dZZVcBdHp+/lNTqSjh88UOdHHnmkbL+Psi/Km2ez2euboTk7vULYfJOemzTp2uD08ZD55Cd+3QahmWjl9bb0kgEupW73xs314Ucetq8qSUdJ1Dn0dofHnngkbJDdHJpV+XOF+j3kySJyTz/9dDhqYxqZ84JQuU9ycfu61w163ZoZfqfcIEf1fC/LBh+7ghxxTnXvRmi/6hRVozaGwZ23a8YkHiLxU3RcM0+vFZeFgZEz4bNbR8Pv3RPCk7fIgW9cszxbcb/LpMtgW6m7LwwNa6q96tHXqwfEvTlWC2GY27rYxbMNd0zcA414E3IyJ0RQQpObppRPy5yEYc0UXb5CNl6NuOArb14tTdCyJHqJCXgHjE9oCdKRybCsV66TmtLKJ2I5NF1fpCQ9qHt9CHf/uxD+2/9TKyksK+tu3hDLdNtwwivHD3c2tCfs0t4g2Xjhps03Vfl617JAXtKzSTEgMaIJJwAs2iE716/TxCb3svC0DExSFmW2qvnWKx8agANmhnr0vI4OHPBG+diScWtkRiUzMpnUA+9omKy1QieHto7WjvbvdOqVUcuXX3udsfN7nZ0Pp8dm25tnkXMr9Jp5bjznEydP2PNyHq0MNRe9EXpma20tHSZ1TY7LHVfPOL4XcayCNXZwEZ1tETSnzSDsBe2gdFmzeF2WXieAH8WCI2UQMM8xuHpF+XheHu955nLErXIxwvtCY/eeKweDM8hawGfmAB3nYIqZVkZNRHOa4Qzszeet7IWeT5LN0HKQYWYp2lltyGvBtfe49ga3Wpr9qpWrpiUBBD2NHwEDtEbfU3RapjlEQLsR4HKPHyADSHAEvAFstHDi+HkgLfX2H/EOLo3K8Ly1R2gRAC3AkE6uXphNzp5nvuhRHh1XWYvwArJjXCKjUN7CruZ22X5OvPNUmyZ/D7MOX0FbtjgCVKeGnzwdrjdrXsImPasbPbQf2MtIxstW+eUHWxAjPzTk+ErOINaczE1bt8YjjRqbBw9EP5JAh2OVKSSXt6KCVxpXOY7PesgZMxm9qrwz8GcF649m2+qt0U/0jU48FFi2wCyHNTTy9C09mrWCOhmrB18mnMtTxxbusnpmhJVMsZbcD3ZRuR3vLbG/NKp6oJVvbDOx3Ep+p1mvvJnKmOme02wmjacFPPjNFDwtafLnM+Wpd8/zNqqz36+Xt16cp58rPfJ3aakNOrl6gftexlzut5KnUVnUrRF/9egv1bgMPdrJHsAZoSmWAqQLhnKgE+1oc+EB0MMZidmf2LMjCDolioj9Cg2JH9X1n04VHMBZjTFeA5FlmLS4Of/B7JK9w5EqlPIdyWyU82mpZxSa8Vwva/32Ui/lkonLN+RGjW0mZvP5SVd7PVPe67nXSjn5es2Wz+/n81wPn+R1mk7nemlfL73a/LU81uOvXh6vz0zHevnqxeVpzHY/n3apnrdfYxccRTCrgBQT3Q08DaewvfObewDocDkHxCP0VWjZdQMNoZIqnmHHnjdsFFPxn8Bd5G1tjmaolytQkRfcVTqgyGvdv+RtqQItJa5b5PVEegPyY6u0PJ8fZ8tPumbTzkZrLve9bD/OhUarebwsP7aavza90/Fj7f3Zrj2fH+ul93t+rJemmTjP78d25WmG7kKnaT+wG9oKpDBJOI5EtFVdI3hFVzLOZ/uAiOldSJBRW9UfDTJpTRQjz5R9U76ztIqsmD6iVk5+vBsImEZikMnFiOU6GQNKYzZL0+LBehyJ2FzLsupTnFirmKIyPq0Y50VpyEswPmMaFjybtE8A5ynLawmzvNyyMQKOdqP6j2cltt796tTpKkkgSeAGlEDbgZ3esmSTdgzNTETRPCGEyYAFQDU8yoN/HWEaJlnCeNNs7EJJFPJopqhBqprL/JdBhutlHoyiaEN+KlsPBAQG98FJK7sOT/ko94iJPrPKR0fhtph8wvJ5BGbYjPTzQK3IjH/IcF/Wv4jzdkvdldNWOj81Oj5JSunKHQTnBHo9For3jiPGpr9JAkkCHSSBtgM767FjJ5ETYgQTIY8NTgiNMclMZloogxYGThmYmYxd88wEXsaiLA029SkBVUk+sHYuP8ISU9RYyIFyZ4Nj90qAsH4RFAXPouubE9mEGd2YEn+Rp4yZegcjwNdDNOkA8JNsJiJiBW2zx+dFqaQt/KxXQfS6p2DZOJGLpHyuxIsA3uVgN/UVoii22OPHjjB+m2x2ni3vy7XTIw8Xfs09OiuLsN2b8lTi3fQ3SSBJ4MaXQNuBvbdHixxpuzlTq6VzTmA20VZ2fVp8ttviBc4TAuMJgF+YAxjNFMDXLI3ZxAVylkc+8NpgKIzIiX1cJ0Vtu+fACTnALcKtirENNLTQfm+fMFeFAvBlMMVco40wtKYzmi1LAVOeae4QmiUUprKVCNVLMag7pe3s8I8d1WxDnCFKJe3wBMO2yiML8FbAlS8P2/FInQCdFSG6gLFsKXtfiuak1nfXSpYlncsZPfKlDqSkdTQcwAt45Ch0FbXRb1E7JVmnRL0UTJvX8+hSPPu6ppAkkCTQcRJoO7Av0ywvm5wk1MJUMSlg1+afYVnoD70Cv8KIPFquCJQn+pQOXbcS6u54lN3Op2R9557uW8L4mq1hdM0GYZeAHZD0HkB5ymYMac3D4yPhwpVL4bw2uDU9XKDO9wO7D3VpMpU2KArrNAttQB1PvwZ2C9n+k82sCVYwwLbCRbNX+N0fSgO3hglWpNPys8gA5goiRl2NL8VSH6D6vfNnxdv5MDyhMQPJiRXexZb1i0V1NsvFy61au3q57luG7D6ATX6TXynOeg09kn2v/LyLkq0FlW0J6CaQt8dnt9MhSSBJoCMk0HZgB9QxvaAYA10GyBiNFQqau1vSHp5TAlAsA8BNhCe7LeCiEwCuKkFdQHbBthaCPe1M1DU1Gpbdvit0f+hzYfyexw0IYyKBZywqXgLQMou8c+xweO5Hz4Z//tm3pKgrTiBrZUtDHxgbCttHiuGzd68I963T7jnStotjEYyZkTpb6AKFCaj4Ou0eWBWWPfD5EO56NEwOrMuwWDcyFOaAfOyo2r/09/9v+PGL3wsHT58LE70r7UOiqMHXorTwAS0kdv/yqfB7gwNhhUwyRYH7BIskaUH76GkUcdutMpPd4+pDJfFun0WXyZJPAxR47Tcbc+iQQpJAkkDHSKDtwH75snYw0T/wGce/cZlBhrulUWra7rj2Ku3VNPl+tFdtlccWc/lgE3HyEXbuwI4uS9BRZpiunuWha/Otof+2ByzW/zjO0rE4mvaO94aL/W+FX13oN3yD4iTaujqh9WMTYfLSULg6qJX0BOg90uC7rmnDjR6BZxPArs1Ey53TlOraLe15ctP2UBy8JxTWbDYebLBY/FTzBn8yHq3cFI6PLwtvXl0ehruWabhAhYqHbgH7JmnwGydZ9U4298kxbS/I1neCZg32RmDHHGM6vi1bEEZVswJrfGdmGCsh+4MpRhtC2OzafHw6TxJIErjhJdB2YDdtVBois/MBVhswnQSIpClLEy1hGAdZMcPUDJZG3+9aGUc4F7LphgNWBPkCs8Y0jdrsFv5V4NkBUmzp0nBLMnbDBx1NMdOWJ0mve1OgrXjpVmeDQaNLPLHnIqhe8/HglKuPfHoYYmvvR5WAnd6+BhgYzezmmIoIWU2Uhv+qPzzgkaN6wJv9xF8cyFW80tFBSQHXlwo8KQX2c4E+7pORHpuC51jK1uipxCAz5QXYyRB7vMrtdJYkkCRww0ug7cAOekTQqpaVgRBmEIEglgENDRqoCqZmDhloAbeGj4Co/fJoVocEyVQQXw/+JdAj6MSHJZYp4NZ5t4COjak5ApDsVMpgavMBPqx2OgDygDvQ7iF3P4syzrNoFHSyc4C/kjowNuemg4FXuGHnUysBUM+KgneTiRHLCHPgflUcHaICgJ53i4yx6W+SQJJAB0hgAYC9vpQMVwy+qlCnfuI6sQbGphnrpuzghm/SeFmutaz91uYTQHIfzR6AZyfybnoVMYPOSxeEHo/inOFlLYXWruGP8iAGb3wtUNw0QI02duIxVcnIYp2P1ocUX2jgdD50Ds5fvqPIWFJZJpN6HFJ+XTHXjaxHYcHj6IRnC63MKIRWMzRnK7P2fqs81OZP10kC7ZDAogH7nCuTR1wDdkWYVjw7RYcK4BGgtS7AfCXzRGen02oKK6/JTMPS00fkxVKS9xDdj5tVTOmvRW7w3a1RTdK/EZKVzXeYzhoEX4iqWWBthmaDohpGU/ZsC3o1zJxuJAm0UQI3HLDL9G3apwEe7V6rxZlNJrNbNysrUwgFHFGbbjbX3NJZt9Fk3zGh+kyxAp7qwxdE/E9F8d6RZi/GbazAbOeKt96qFvHnxudSyQVg+q8RT80Cuud3eq3m8/z1jvNJqx79FJckMFcJtB3Y2/H5S2WxOBucGcAJNZv4dK8WEogokDRkr76T9R26DXDKTt4kKBsVjOSQLueBS/irLqPRFVp6DIA49WQItRKcTD2+K6luzDPeFcByeHg4vP322+GAdpP3NcmpEfckFQ0Yd4U7d+0KOwcHyxtyNAJZp3lZHkBHjx4Ne/bsUX6XcV5O9eLy96vP+WJgkw32JGUTh0blV+dKV0kCCyOBtgN7W6sgW3gAABhASURBVKpBGwRwbShxLiUIHkUjLgTWoEFbR9HgXotFMp6QQ/oZcwNd1hVQvmV0KJ8x2w1/075EMmA/c+a07YHJJsfM2nXQjMCup67JY48+/kT47S9+0YDdwbueEOgYAGF2EmJ7um9+8x9FDwnXyjXffdajVB0HTba+Y2u//O48zmt16nSVJLCwEmg7sFtjNJCc54qBud4WsVS0HADOljPNIUNrzOHiGQeWgZ5a8JlD8TdQFgCacPDgwfDyyy+Hl156adqAJynYGejK0HD4yJNPhO3a3szt7Za5wZ9r14bD8ePHjWblwbt8Ky9C7as6/YMupuW9Zoee/C5IDYpO0UkCCy6BtgO7N9Z6NcNBr9LI6qVoIs602syFr4nk1Uko33uH6jtzvnKsmDOBfEZ4g8d5JZovYEmduxJw8OAh7Ql62gAb0LaF5IxT5KC3Rlr8sUMHwjntjclepsuXa92fTNtvVCHMN92aGNfV1WN0awHZ5lQYjWoKroFXjngsabEIbbXHtmspJAksRQnMM6pNr6I3CO7QLG3w044CLNvVGZPKHEO0cURsrihdTREjq3ucNJVh0RJVKubVrWblOh7hdWSt5mF+rnhXrl27Fvbv3xdOnToVxsfHtdnzmLTiSdOMAWPOS/qNDA+Fgwf2h7NnzxrQ1gJ1LUfkm9Rs3cnJUdEd1VGOpOog4k9zKDLasSzKiz/ScS+mk/upNmTmHL7oVGZSXGp5SNdJAgslgbZr7MzkBJqiruW6p2uhTKlBZ885BJKwXqjgW7zrRD1to3x+v+oYS7VNNszdMUM40fBiWBq3fOG0/VhFa5YLqtpCwPwi/5fyt4xxpgFZ6wPxwxetChu6qwg6y1k7Ka9YJbMy5i9aYHKekwKO/ADMw4cPh1MnT4Whq0OZbb1g2jHmF4B+dExLKqguk5q1vG///nBaHcDg4OCsHHVrOecVK/rCuvWrJDKtnimZqkgFyVrAPTQ0ZKBdDdRToa+vP/RrIbturYSZv4ddfWBgoGz/n5WBlCBJYAEl0HZgj3UBVdSKDFwimJgrHzcz4J9Vgyab5SdTTciWqa2JbXgJmQiEeb6cvTJnleIoG4BuRcNl1yQWl4nVbcjLrDcym7txJ1plt3sT2Ky5b4gEDpgA95tvvBneO3feXDsxw+DBsu2Wm8PA6tXh7Dtnw8lTJyUETSPT8zh48EA4cfKEATNpoZP/QqTyfr1mzdrw4EOPqHNgFrFW2ZRcPeCF84MfPBtOnz5tWrjnAfi3b7813H//A+GWW24x4Hd7Pv7rt912m9n7oeN5nGY6JgkspgTaDuyV5qNqAkyZPYF4QIp1WFi4ykKGs/GifX/B2kq7Bq3zXMYvjHxM5KQVZM/SUlA5VF2UY2c/iUKJuXXOf10YwINugN/sRCopplescm+RzgBFQBnzxu7du8OFS1o4jhm76n175AHzgQ/cHbZsvTm88uorAvZjeo2wcwcNhp6w31UtKLdawO8dRL4aDsTr128IH37qo+GJx5+yvPk07733Xjh06HC4cOGC8QA//NDk77jjzvDlL385PPHEE/bFAD0Hcc7R3FNIElhqEmj7W8kaJx6m1FjKJgNDViCpct/StQI81knMDTCj8UeN1PgALSk4/uxvDVsAaBX+e6X86GyQ2RZ8QbROxG964laO0Ih8Ib8pAK9MlyJ0H96aCSJjZpvy11MzmdqbJg/GaM5vvvFGuHzpojiU2Uli69PGKbvuvCPskHZ85oy0dcWZt5BkfOXKkHzTj4Vjx46F++67r6y5O/DWcg4QF4vTNxdhILTIIm25B8zrQOcR8xRthqmf19JN10kCS00CbQf2SoVpkfqZDzFAhJauI5s95G29SjJTKHcMYJ01RKoQt5ibKd+0e7RcfU53AZbio6gjSwwUtboi/0pd4ouVFuGP7fZUcONle3XfRoU1EKws2MNLAhE2AJHTta0BT3HzF1QIHRKyqkfX+5NpBWarQZIJfsk/i7ynkZjnCIAdIMbGzYQkBk3HRkf0TCRLeOseCDfdMhh23nZnWL/hlfj+SFnAw4U+7cyZM6ZtA+zNhHxH4umnbEYvnlW1wmCRukocGnxtp1F77TTTMUlgMSXQdmD3gT3wR3BkWhgVpr0wgFWQG5qtoMhNWmpmqiFNc0GEtG65hawN1sO6PC33cigJIKw5ixnWZqERw8KkQHxStg5tU6Gt/AT4WmGxpLi4tmKFUtlOq7Tl/kq3lZuuQf8AJ3lXyLOChbyaCfDgP9LbUsTW8QGA9DUSFLtQYQLwWbF2nqNunUzu2u1OrDZp2r1q7XKeTVg5Mu06pb4XpaW/9tqr4drwVT2LOEmrxM5Yy1bLvr09bLlpi4B9c1ipzUquXnpHrETGT586Yx0CA69o1LMFB2LK9BDNg/SGlbjKPT+rHJ1GJSadJQksLQm0Hdj75FGAlu3rnncJyCe0p2ePtsKjgYyPyLbaI/Ab1/rltK1csGYKAAFMIGd3nxRgrZIO/pfTKV4bbYRxVaUW0Mpp4ok3SLwctm7dGh7QrEHWOgeGJwQimI1WawelnWPXwsBt8p4Y0LotU2PZ1niyAyutY6RRzHCgwDrrdFBiBb5g2fkrrVwZiqs3aZ14NwH4nWrmnDcG5fAAieYBlS8Zdau3KQq4egXMRQlzbFjVHdV3herMOvKsL0/dDaCcJ5Hv6e0XT5SLJKNwC1SY3qubLQu5V58f3ViQ4PW+KPv27t2vhFEGN+nBFHr6+sKmTVvCTZs3h1WrVoWNGzeFzZtvyoA9snfu3XdtQhN28vXr19s7BWg73Ziq8d+YTuXZoEUmvHJy5FYtn2bplkmkkySBRZBA24G9X+5iNA2WyLVmIwDsFgL2Ty03IB+7OBJGh6XbDmndcVMkK43L/FMMk9A0NbFkpTZ/XqYNmmmHSkYjs4Y2MhLCsACfTbEVoFDdHC26rNEBAI8++lhYp31Iu+R1AeRhu6bz6Zev81p52WzvL4Vl2nKuyBgBBDNEzzAnEtRfeCwC2jINmMZIwZUqaOclbV69Q2aC/pUxdR3GqINrkA7sfQI1OjH6LHhgd6ceOhnxdu3cRBi/qLoL3Me168akesSCtspjsBG5ELp0LAxoPZ1lkj8mIQWTp+qJH3hB9AtjkllVT2XJFuyPAzDeMO8KoPfsfSuMTUSzGjr7yuUrwu07t4U1q1fqA6UrbNqwPtwq75SD+94wHnkWQ0NXw4kTJ01rZwDVBzNbB2DeghSSBDpDAm0H9iG2X1MAVMCcUQH7RQ1U9V4hfjwsF+askBZZGp4IXWMCptr21e0oKU1Om0+HcEm/LKCposHL5zncoy3gxjCsNA7e2NesWaM1PvhVb6PXOOf83amD61XEAbkRdVRDmoBTUP0mBNjyAdEm22OhT6A3JeRepX/Lh+TPfUUbXmPtkWmmS1v3xRBBnO+QcPmiEF6byuYCOF4k08rVEqVUfzquRQremV2SFwyDoCeOn5Yvu75KsJ+r1sv1tXPXjm3aqDy+phs3rA3bb9milwmf8tip8wVzSWacN954XW6J99kgpz/nRapWKjZJYNEl0HZgx55NANjNq0P24nHZnjFxFrVFXvc4NmwlGFombVOAUxuqohy0lMg5l9dEkMIuW0pL2ieg4sBSWyTXfCjMS6Buqr19ZjQg6Ly45o7MbIlewZvfi3Fcsw+rvDhGZUoZlnYLaYShDqA6uICqZVaYoPNTZ8jA8Mz9YDW5NlxRN+qM/zjrwzCIWVRnRjwT21atGAg7d+7QjoKxDphi8CvnC4SZoTaOobQA+2uv7Q6//du/reUFtFftHIJNVsvlE9kUkgRuWAl4629bBaKLY9TWBUuyCccWA5ibTXpC19iHvSVVAXktWzkkIp1zDw1Ci41xwTQ7A/fIYrN/qQoy4Vf+xyCERGBfNRNZh6mEJQZF68oNQKyWWUnjGaS1LWNblFezvDebzuWPJ8wBLQ9gQI+3lOrcpZcD08qO2++QU1Ic2GaS0lb5s6/V8dLF99T5yQSlwoauXtEyv/vkIXPWgJ3xCe80mubFEvqDcsEs3tdMs3yndEkC9SQwb4ppPeLECZqkd9Jg/KczP9WxxM7MBj4ADiDUyg808x90vEHqdJYAqMz0MyZhdD5+VvdZGMpul3nSNWKKdRK068JqyEi0tNUop9mAx9NVjqzjXqJn6FKcG+StnIX948DLeivHjx/TUgKHxID44hHqt2L5Mg2Ubg4337JNGnvswRn03rhpY9gxuD30SLPn5eU3rolN72hW6n4tMXBVbpME6LcWorQ9D489hSSBG1UCbQf2KBhaCVp5bC04r2SnObnVVTntPmkBIwOkXI739ylgjcxmA/dqKZXkXUOIG3XE51Gdov1XgK4D+7lz52wDDBbzYrZpBORSWKklcVetXCEzy6VwUssGnDhxXMeTtkjYTTdttvkG9g7ZG1yypQBel52d9K2DutcZeSyOTJyDdEwSmA8JuDFjPmglGjeQBMymDCgukmrKmAFeRIcOHTLAxg+dr5WpbN2foaEr4cUXf2GaOAOqAC4eQ6OavMRM07EJrdSoMRmmlRHGNOi8+7XXwmc/89lQGBwk6jqCf80tkN5zHZymrEkC9SSQgL2eVFJc2yXgk4kA9tOnz6i8ak2Z5QWOHTtqM0v1fVHmB22cNWXoCAhMMiNMCNjf3oed/Yxp75ht/KvAEjT1J7MDKS2WHKfdVNaUKElgCUkgAfsSehgLwQoulHEsYyFKm7kMlhHYvx8wPm1AGlOzFIPGAQSsY2PjWnhruonOADvT1MljcKw/ly9eMFs9ywvcfPPNohG9bmbmot5dN8lEb5x6KVJcksBSlkD61lzKT6cNvEVPmzYQbpIkYEvAFIPN/OjRI2YXJy7eclDFHGK2It2pxHGO+YW//LNrpaMzmNTg+z5p7adY2lfBy7KL7Jq4/M/cSKX1R648JUdoRxqkj+kqR6dhidKfJIElJoGksS+xB9Lp7DggMhFrz563bMYpuxJFLT3CK7NuMaWwtEK9AA3MMZhryEsA7Nnebt++/RpoPREefvgRo5nP72UTx7kH/OfjipweUzk6X54XgCeOwNHPKznSWZLA4ksgAfviP4P3HQeAIcD+hpboxYuFELVzAHcy3HnnnZoV/MGwTRtV1wuA+ZEjR8Jzzz8fTsumzmSmSQE1cyOOHjtiwI4bJXuSAsgOvm7Xr6XJMgS4VDoPnp50dC78fKmC2rzpOklgKUpggYAd7Sj6YvsnLsIwN0aUJflTRx1oKYpoafCEq2icHVnRNCucMYA4u1UtuovOnq5Cd37PHGTRetkc4zV5sVy6FJecYKDSlehHH30kfOYzn7FZpvU4YOCUtWWOyYzzzlkNvJJR7xCaN3SPHz8ejsk3ftedu2yQFW8aj8dUA3CXwVt5uUcHwVcAPOa1cjxwXnjhBXnnvKP46LmD3YblnW/SgmQPPvRQAv16DynFLaoEFgDYY6OLa5IA31wzKAXAAEiaQs7MSZtGGj0ddFEnzAZI0O6E7kHyMYsvx3p1ssUZzA89Ll/msosim+7rP11uBVYIW8TAWjgA5vHjJ+SXPpIBOpp1KfRKO75t504tJXBbWLt2rXFZBmFdAbwE7m3fuiXsXb48XBQw45dvC7pp1TS2y2Nt9zu1+xHp+bE70ssvvxz+6Z/+qQLqRkkTnPT1QGcAsBM8D+d8GbDB9s9//nPFM9UO+evtVXmA+r0aqKXjyPNIvhSSBBZTAgsA7IA3k4uopjWJ8oRHrkxrN6Cf7v1AjumBTkEdQHlxsOkpbvwYk4xVAzMDK+3GwIl/+Xhc/hhd//IxsfOU/TlbXa2yLjxlLGxwUL6sheHefPOtwLGiHcuUIr/2DRvWhZu2bAkrtQAYwfPkOSUOO/w2eb6sX7smXNIKj8JZA1e0dpYo2C9gJ51r54DzcXUmL774osVV0wX88yVUzs+fPx9YErg2wOsK8Qj/BKeXAL5WUul6MSQwXZ2bdy6ix4G1Gwd3psTrx4YUbEIRp8c3LjjOfI8dRP1U9E+07Pp3b+TYeg8IeZTX1qHmJtwIMPGex8WaA+qxY3VJONXFERja8+7dr5qGDBCyYTXAjB37ttvvCBs2bjDgBjzN/i2NGK2YH3Hk4fwWLQi2YeNGW9aYXa9MJpLFO++cC4cPHbLBVU9vO2TJfMJ19S+aZRoBMvGRx+p8rEdD55JCksBSlEDbNfaSFGyWNzHwydzSWOejW42Z5UqAmMJ4ZoLJVvGrCKqixfMJbFvUZVq/pYH7bjaLUP7FwagKq9dxVg0qVCQDG4EQqiSgVzLZZXIsqlPUqpaFbgdoQ/YaDgR02dOtFg1gJLn2KG/1jZr883uJRgugouGiBb/66qtmAsFuHb8qAPZlGji9S0sJDJgGTB4AvDa4drxVg6vrBeyaw6qVQjOtW8K6qmWcsbHv27c33Hvv/bZpie7aomGTtgqmy4ujn9eWEq8py8vLp8B8w6/evXy6dJ4ksBgSaDuwZxaA2H5oQ0L5CU06MRczmWAKfUKXnj55m2kTCdtjIW9OqHV3070JrbtugXOR7VXj0uIzRQBCNtAbMTh4APAAHT+Ly6bSR99z1U3/0byntDOS1EWtQ5/JwjpErYAIVpsIMsC3TSvoHPNyyfIMSdhM/pkZ1+ZNnA6AeMGwTO/FixcNcHt6eAUjE+yStOsuAbuOhOoOz6LsDx0EYdutt4at27arI1gpkM0GNrXePyA+em007NPkp7vuuifbjapg3i24UTrdOLO0NQGQl7qgsedpGUO5P17fXNR1nzrf100oEeh4CbQd2Ddpn0qz66r90ITG1CiXScNaP3wt9Mq17Zq0zitqjJpdIvyRdqpG48E3UyCeDRW6e4uhT5ore5ASB5CxwfSo3N9616zSfbT3BVVEndXrOuYbLGDBcrUMDrq2WlRdu+UJsl7rqPTpfGjN2tCrL57iilXaPUkCyIAO7yK+gZAheXol1m79wQ1QvUVU0LnQPSFTCAMDoOd18d5sZurIjzoNDg6G3//9389ljc8c98QHH3zQgD0vk1xCo+H31q/fED728Y+bvAB2AJ97UBtYPRBuvXWwLEN2y3r8iSfkzdJjaSLN+tp4vrzac6Mv+VKPnRrkdV9758nTezq/TsckgYWUgDAgh6RtKPk//emflm2fIAubQ7OL0nL5Gd8hQL5XuLRNGif+y7ACzPCjcbLZhDcYZZPHRHdYjoZnLKOFAmohXJNm2j24M3Q9+mQo3vWBeJ8MN1Cwuovn559/LrzyyiuBVQ+xL5s8BMpsLbhCmvwt8vp4UuC/Yly7iwjsBeG2aQb5+Yf0qHpR6fp7tVOVvEwKgLnkG4PSkwwtX2aP8JtfxFk75myjzLx++KDjY87Pn23GmAHzCq3qCGjW3vM0tUc8bPjxBRjzUDn6K20/wvuirRTdBITphLTzFXg+y+WVU8srdcUlk+N8BpdLbXnzWUai1RkSaDuw+2JNdcWlF7+QeRXUvZ+LBOBKaKmZdmpIlN235qOGbC98G8Epx07bTrFBzwQILLuLRt5M47Y0psUivDosIyuXZ53bKap1CfD86DwwN/ms2Nap1M+xUeMJmKn8K6F+qhSbJCDFRiBSr8kvnGxaKf4GB+15EWpL8qJEusSlFxq9ds10WLW1aUSLdLX0ZkpbS7eZa6fvdFnmYM+ePeHP/uzP6rpJNkOzNg20KecP//APwyc+8YmwadMm6/zLSk5thnT9vpdA223s/sLPi6RnADVvYPNSzhIgMi9ysy575n57seQ2n+W2QquVtHN5DXhumJnQ2PH+mc/AapjuNz+fdBOtzpNA24G980TWOTVqN8h1jqRarwkAPN929nnp7FuvSspxA0qg7cCewGNub0WS29zktlRyzffzm296S0VOiY/2SEAuEikkCSQJLHUJoK37b6nzmvhbfAks/uDp4ssgcZAkkCSQJNBREkgae0c9zlSZJIEkgSQBm96TxJAkkCSQJJAk0EkSSBp7Jz3NVJckgSSBJAFJIAF7eg2SBJIEkgQ6TAIJ2DvsgabqJAkkCSQJJGBP70CSQJJAkkCHSSABe4c90FSdJIEkgSSBBOzpHUgSSBJIEugwCSRg77AHmqqTJJAkkCSQgD29A0kCSQJJAh0mgQTsHfZAU3WSBJIEkgQSsKd3IEkgSSBJoMMkkIC9wx5oqk6SQJJAkkAC9vQOJAkkCSQJdJgEErB32ANN1UkSSBJIEkjAnt6BJIEkgSSBDpNAAvYOe6CpOkkCSQJJAgnY0zuQJJAkkCTQYRJIwN5hDzRVJ0kgSSBJIAF7egeSBJIEkgQ6TAL/P+1mlxWxhL00AAAAAElFTkSuQmCC;" parent="1" vertex="1">
          <mxGeometry x="660" y="123.81000000000003" width="90" height="34.65" as="geometry" />
        </mxCell>
        <mxCell id="JhEwLcixOUbtRuZrVedq-14" value="ic-shared-app&lt;br&gt;" style="rounded=1;whiteSpace=wrap;html=1;arcSize=10;verticalAlign=top;align=left;" parent="1" vertex="1">
          <mxGeometry x="270" y="90" width="88" height="70" as="geometry" />
        </mxCell>
        <mxCell id="JhEwLcixOUbtRuZrVedq-15" value="user1" style="rounded=1;whiteSpace=wrap;html=1;arcSize=13;verticalAlign=top;align=left;" parent="1" vertex="1">
          <mxGeometry x="116" y="260" width="174" height="130" as="geometry" />
        </mxCell>
        <mxCell id="JhEwLcixOUbtRuZrVedq-16" value="user3" style="rounded=1;whiteSpace=wrap;html=1;arcSize=13;verticalAlign=top;align=left;" parent="1" vertex="1">
          <mxGeometry x="358" y="270" width="64" height="110" as="geometry" />
        </mxCell>
        <mxCell id="JhEwLcixOUbtRuZrVedq-18" value="" style="shape=image;verticalLabelPosition=bottom;labelBackgroundColor=default;verticalAlign=top;aspect=fixed;imageAspect=0;image=https://www.postgresql.org/media/img/about/press/elephant.png;" parent="1" vertex="1">
          <mxGeometry x="520" y="115.35000000000002" width="50" height="51.57" as="geometry" />
        </mxCell>
        <mxCell id="JhEwLcixOUbtRuZrVedq-21" style="edgeStyle=orthogonalEdgeStyle;rounded=0;orthogonalLoop=1;jettySize=auto;html=1;strokeWidth=3;" parent="1" source="JhEwLcixOUbtRuZrVedq-19" target="JhEwLcixOUbtRuZrVedq-12" edge="1">
          <mxGeometry relative="1" as="geometry">
            <Array as="points">
              <mxPoint x="317" y="190" />
              <mxPoint x="705" y="190" />
            </Array>
          </mxGeometry>
        </mxCell>
        <mxCell id="JhEwLcixOUbtRuZrVedq-19" value="" style="shape=image;verticalLabelPosition=bottom;labelBackgroundColor=default;verticalAlign=top;aspect=fixed;imageAspect=0;image=data:image/png,iVBORw0KGgoAAAANSUhEUgAAAHYAAABoCAYAAAAkewT6AAAAAXNSR0IArs4c6QAAAGxlWElmTU0AKgAAAAgABAEaAAUAAAABAAAAPgEbAAUAAAABAAAARgEoAAMAAAABAAIAAIdpAAQAAAABAAAATgAAAAAAAACQAAAAAQAAAJAAAAABAAKgAgAEAAAAAQAAAHagAwAEAAAAAQAAAGgAAAAAQwzT/AAAAAlwSFlzAAAWJQAAFiUBSVIk8AAAE0pJREFUeAHtXQt4VNW1XhgCGAhPEwyPECSIPBKeCgoBjYDwCRQVkernFa29rfQCttWrV1p7tbW9Xr1VpBd7a31Q+6CAmIJ+WOQhhEdQ3gGRayLhGUh4ByIQsHf9A3tmnT1nzsycOZOczD3r++Y7++y919rrMXvPOXuttafBPxjIg4TTwFUJJ5EnkE8DnmET9IvgGdYzbIJqIEHF8masZ9gE1UCCiuXNWM+wCaqBBBXLm7GeYRNUAwkqljdjPcMmqAYSVCxvxnqGTVANJKhY3oz1DJugGkhQsbwZm6CGbVgf5Ppwx15a/eUhKj58gg5WVdNFjvlIT2lEXVqnUm5GGxp0XVu6Kauto6J8WnaEir46QtvLj1Hp8SqqqL5ADRsQtU9NoZxrW9HQru3ozl6dHB3TSWIN3Bwas3h7Gb24YittOXE2rMzdm19Nk3I704S+2ZR1TWrY/mYdyo5W0YItJTR3+x7adfprsy6Gur6tmtJT+X1obG6Wod4NN6417It/30zPr9tlS0fT+2XTd2/pTp3TmkeEv6fyNL3BY83cXBJRf73TszzWU3f006vr9N6Vhv318q3009U7gxRz9VUN6GZeBls0TqaqCxep5MQZKqs+H9RPVfwirydNv703XdWA11AT+Ibj+GYu30Y/KQweS3XPSmlM2a2aUWqjhnTqfA2t55+Dr78Jjv/7+dCe9KPb+yi0Or+6zrDLv9hP4/6y2qCYgTzzpuf1ojE5WZTExpWwmxW94n8P0sLiMlpXcUo2+cqDrmlOz47qT8P4N1HCKv7Nfv6jTVR09LSs9pVvSW9Bd/NY+de3p278RZJwiY36AY81s3AHbeCZLmHRt4fS7Td0lFV1VnadYUfO/oDWHgkYaHKPTHrt3iFBBjXT2NLP99Fv135Ofz9wLKj5eZ69Px5+eUb917Kt9KzJLL2jQxv6/uAeNJLHDAcw8LT5a+gdHlPB4LYtaOmUMeq2Tq+uMuwiflj69ntr/QoZwYou+O4o/32khb9uLKHneTnXl+lxWek+EovKKgyksNw+y8vofQOyDfWR3Ix/4yP6WHyR/nLPYBrngocpV73HvrftK4MuZ4y090ACAxX+yxj6Z15OJcCgulHRB33tGBW0dR51GeT4tVl2jWFPnD1HC0rK/bJP4t/EGztdnmH+yigKrZs2oVcmDKbZo/uHxEIb+qCvXQCP4FUBZIAsdQ2uMezGfcblcWyvLEd0k9qkcUg6Vm0hkUwadF51WUxQ4l7lGsMWHzpuEHZw9rWGezs38zaV0IPvrwuJijb0iRV0XnVZYqVvB981hi0Vrx25LVMordnVduTx4yzYXEoPL9rgv0dhDC+b+EhAH/SNBcAreFYgZVF1tX11jWH3nwpsG3ZuZW9LUCnvw+K99NDfitSt7zohO4P++FC+74OyBPQFTiwgeZayxEIzFlzXGPbY2cAOUtsYZuua0nKauGCNQSd3dW5Lbz1wGyUnJfk+KKNOAnCAaxckz1IWu/RixXONYU9fuOSXJSXZntPpy8pT9Oj8wHswCI5s34b+5/5hhg0O7F6hDm0SgAsadkDyLGWxQ8sJHNcY9pLIv24QYm/XSuBq3juevmAt7f86MPPhfZl9Xx41bZQchIo6tKGPAuCCBmhFC5JnKUu0dJzq7xrDNhacnL8UmL2RCvqvBetpFe8bK2jZMIlevzePMloEDHfh4iXCRwHa0Ad9FYAGaEULkmcpS7R0nOpvb81zanRBpxl7bOjK72zVuQuiJXQRM2vfsSp6fc1OenvnPkPHzs2a0LSFa31eoLO8zFdeqPF7ZeAlSuMZ27RRks9rg75bTgYe3kArifeBH2OPTSY/yKWwZyccSJ59soRDiHN7eI7jzIAi34b3a+n4Gd9txZlgJ/cRdnxv3l9BG/dW0vbDx6mUDbr7TOgdHmkoNYa6wu22D1+e0Oj0e47awAfQjQ2fzdEaORmtaUCnNOrXMZ3asmNfguTZJ4tsrIOyawybwSEnRJe9MvtOV9NeNtym/Udp094KKuJdKTP3Wm3pC18gfD7cV0m0YbdvWLgDB2WmU39+L+7f8RoCzwouy6Lu6ubqGsN2aBF4wUdYSo/XFsWskTR+um7By21TXkpTuYwr4Cwv4VU1F33XU1imuRwt4Ivm+7KZRF1IWaKl61R/VxgWftR1PDOjARhNN8hrI/vS6J5Z1CIlmVKSkynSh2s8kFfX1NCp6hpasrOMpi3dYmDFbCxDB+0GskCmSPy6Gqpjt3Xqj317/Rf0KkcilIjNiVCS3ZrRigZmpvGyl04ZvH33rTnL6XhN4AnXydAUPTSndXIS/e2h26n8ZDX/PFTSBv5p+KQ88AQeiufspo3pcY78ePjmG0J1iVt9nRgWDvVXVxcHhZZIKdN52Xzsxq78sJLODytp1BIPV1dg6rxCeks8BSPyYaENh7yiZ3a9mx3oMhLjkZ6ZNGtinr/rSY612sxG3siz8/XPvqQKi3dfhPY8npdD43pn+fHjXahVwxaWHKL/5iC1xSGWXWwj1FyR+CYOIV05dVyQ/NjT1bcMC78zkvrxbHYSNvODUt6bSw0k500YQnfmBMcS3zZrEX3KoasAKYMBmW/G8pf0B/wKlZcd8N/qfZy6F9sCTpE0pzN79Q4a9e5KU6OOZqPM+dYgekSElEBRB7R4YkQV/mq58ffvuSE9HDcqJMAXBbQlYGzwIAE8KqOiHjJAFsikA77Q0AF0EW+oFcP+ZNGn9CSHeepwY5tUeveuW2gBz7gJ/brQQC2af622KT9r5XZD8DjwnxjRVyfr2D1oYwwFCFwHDxJ0HiEDZIFMf2LZJL7Cgy6gk3hCXA2LEJHJ766gVzZ9aZAhs0kjeo3jmT6ZNo7u7tPZ3zZQ85Wu4qVbAWbGM6uM3/Qn83ur5rhd9THAg1xJJI9gQsownmWDjJAVMkuATqCbeIXRxNWwk/+0kuaLOCYINp7zbNZMHUPfGdxdyukrZ/FLPx40FCzk2N+aK/vG+vJ1f7f2EefObD90jH7H4aaYJfigjLpIAPk5GEuC4gW8gUcF4B0y6ABZIbPuKoRuoKN4QNzeYxG7u+zgcQPP0ziv5lfjBxrq9JuR/GChArGreMN+6ecHfLk4evrF9FtzdNSgexjv5WXb6D1tSfd1XEZ0T5cMemJ4b8ptZ3Tf6YQw1p93H/RXg5cHbupKyPUBjwrAeyhowz7mP04eTk8XFNGsLaX+btARdKVinv0NMRaS/p0hRhpB6Ou/OhwUlvIfrJxnLCIGFZFG7GmZszUQhtqMA/+3cdzupoqTqgv9sH9XmjSgq//erLBk51664w8raBengYQCtL3JMU/9OPK/a3rLUN0onbc7v646R0XlgS9qg/MXaXflSdoq/LfPjehD7Vs2C0kHDcNv6ECY08tEbPNKfgLP55+hjpxK4hTEZSl+7qONBv4e5nfAqbflGupC3SAdsqfYXoSn5XfFZYbu3+eofivATJ0wb41VF0Mb+oZbmvUxwZP0KIHnSFM5oQvoRIKuM9lmp+y4YZHHWihSNNqxO25GlJlo4y1SLJ4Z1I06COe4mdBYfqOFcDgYE2OHAiuezXCgE+hGAXQG3TkFjht224GjBt5eYAGks9vQGOLmzpysEC38nsgpi1aAmWf6m2qFxG3ACTdrrca24tlsaOgEupGg6062RVt23LBbDxqfNnO0uKJIGOzNOMPbtw7q+iRvMYb7khSVHg7Ci7QiHC7GBg86gFfwHC3outF1Fy092d9xwxYJw2K/t7uWhigHtyrfxV4aHR4cGH4zfZ+2W6XTsLqPBNeMh/E5gXdxK/p6G3QDHSmQulN1dq+OG9YuIzreP7Q8WL3dTfcNTBKh65o/xw07SCxJ8HjsEgFm0QhbULwnqPu7G74IqtMrMsM8WOn95X0kuGY8vM8+XDsA3UivkNSdHXoSx3HD9hGGxUDFYmmWA1uVtzGOvrmB/i+xe6xcZAyY0RjUxX7OTzhcjA0edACv4Dla0HWj6y5aerK/44bt3eEaSZ9m8CEh4YxhQOCbD7X3Vtn+Fh8CYgXYRcKOUrQAnHA7UFZjW/Fsxgt0At1I0HUn26ItO25YnH+Uxyn7Cg7xgRwvaAKotlDXApH+r/f5ZdFuwya83o57bBNGC+FwsPGPsUOBFc9mONAJdKMAOoPunALHDQvGfjZqgIE/7NDo7i5DB3GDg7N2ngpE/GGHRs9M/63J+RGChG/mLZg4RFZZltE33GzVxwRPcvcIPIP3SAC6kLtWwNF1Fgkdqz5xMezN111LOMxDwtOfFPs2wGWdWXnFFwcM1aO7Z9KjmicILq8dvBFhBaN7dqL13xtluSxj+UUf9LUCjKW7HsETeJOg8y7bVPnfCjYQdCEBuoLOnITAS5STVJkWvBWrvyo3PATBq3Hg5BmayccDwNthBkuFDzaVHQIje3TwZcjhUC7p4ZnJynnj/lvNSPjrMAv/8E/59AQbBpsP6j0VT794UAo3SxUhjCUBvPTk4PHr2XkAHpWHB7w/Tf1lV3/5GAfBT+ODUwr4GD8J2Nxw2rMD+nGNeYIT+YcL1wX5ZOF0fmJoryCfbBnH6vactdgv90PdO9LsSUN99/iN6/Zqgb8NhXl8TFC8zzPEOY4TOd1Dwu7Hx/v3q6fMXU1zdu33N++cOjbIJ/vm2l30MofD+LIP/D2J7uU83VfuvoVaxXAGhiBnKMZlKVYjgOF3Hsz3udlUHa4QcNrSzXQrB4UXbA28r27QgtyGCf8mNuF/OayXJEMvrYh+s99AIIIbfQzwIJ0QkkeQkzIsZNkgI2TVjQrXI3QTD6OCj7gtxSCu4BfjbqJ2HAusxz19xmkcD/A5EKP5N3NS3y60QXv4GKy9tsDdNZ8PsFSHZgL/5Y+3xC3uCbQxhgKkXOruR51HyJDEkepz+WdnCVJCTOAlPgZwCq9Y8YS4LsU64174ae2Fn8YlgkI3qLrvxBlrE3hm5rRuTgeOnqKD2gGX36iOfK25+A1d4CX7PIeetOJg8SZXstyvb9uSDnPUwhYRuXCIIxnu658tsGMv/oCD0kvF0bYIGJ+eHwgWQMD4Oo4Umc9hMsv2HKGzly5zL2VQXCAW6uXRA2gGn+kIHdQG1OqM1QWKPsUDmW1pdZziUcEpHpVeioduTLN7JDDN5KfGSPJhFL5ZopRbkrKQZzSdf0P/3yZlKSPh+sKSjZZbdrJvpOV4plFa8YAQmhm89NYl1MpTcSQCHhDbiDgG/r3JI2JOfEaapS/VMoJsvkh4lH30xOd73vnYf9y8lEXi1GbZNYYt5z9xUJDZPIU6cWoFPipTQB5VUFx+nEr4DxisjipQtJy44qiCLsxL7rWhjyoAz+p/BKQsToxvh4ZrDHtMPCGnm2w34swH7OnKfV3f4SIn+HARzuBT50UoJfRt2ZSSG14V0eEieALXz6x4lDMAHhvCh4uwQSM5XETyLGVR/NT21TWGPSNcWKlanksopUDhN7RtRTN5axFnK0mPyR4+M+KjR0aQDBhTRwEhKF0BnN2j3vpY3fqu8NqAZjQgeZayREPDyb5x3VKMhtHz4gWwMR+NFy385/ibaZgInDvJ77+PzS80OPlhUGlUOLvRB30VgAZoRQuSZylLtHSc6u8aw2IbTgH/F5AqRnzF7IXXqOPVgcx3bD1O+WshHyIScGgrgqhDm9qeRD1wQSOSpVfRUVfJs5RFtdf21TWGbc6nuyiotnGKC3C7prWg3987WJHxXZfyUvu9P68i/DmDApRRhzYJwAUNOyB5lrLYoeUEjmsM24YP4lBwxOQAL9UW7jqEHQc4UkDC+7zl9winKyLtER+UUScBOMC1C5JnKYtderHiuebhqSPOPLySdrmHn3RjAZwTMYdnvTyzGGf1n5uzwkf2A809iKMFzM6WiIYHybNPlmiQ49DXNYbtIhKGt/OxO5U8a2M5ZRzHBeC8CHnKuG5Q6PPtcQN9RwvEolvwCp4VSFlUXW1fXbMU57Qz5uqsLbGfg6OUOJE9PjjjIhSgDX1iBZ1XXZZY6dvBd41hB/C5hBIW7yiTt7bLVefOh8S1aguJZNKg86rLYoIS9yrXGBYhIvKs/rmcK/qZ9lsYjTaOI96KD5WesmRTSDS0oQ/62gXwCF4VQIZ4hbuoMSK5usawYPae3tcZeH6BY4XsAP4CLe83HwRlwuMv0NTfoCm6yExHX+DYAZ1HXQY7NJ3AqVNHu5kA3p8Wmmkl+jrXGdb7m9HojWiG4TrDgkn99FHFuPfHwEoT4a+uNCzY9v7KO7zxrHq41rBgejEff/viiq2GjfpQwiDqYlJuZ46CzPYd+BWqn1U9DuRasKWE5nLssnKaW/VHnPFT+X1obG6WVbc6aXO1YZVGkGaBo3KKOQP8IEdaXOT9/PSURtSFQzlzM9rQID7GL9IzlhTNcFdkzhVxns328mNUytEaFdUXqCE7oNrzYV457NpDymO800vC8WjVXi8MayWA12auAVe9x5qz6NXa0YBnWDtaqwc4nmHrgZHssOgZ1o7W6gGOZ9h6YCQ7LHqGtaO1eoDjGbYeGMkOi55h7WitHuB4hq0HRrLDomdYO1qrBzieYeuBkeyw6BnWjtbqAY5n2HpgJDss/h/cnBJHv1weNwAAAABJRU5ErkJggg==;" parent="1" vertex="1">
          <mxGeometry x="298" y="115.35000000000001" width="38" height="33.49" as="geometry" />
        </mxCell>
        <mxCell id="JhEwLcixOUbtRuZrVedq-20" style="edgeStyle=orthogonalEdgeStyle;rounded=0;orthogonalLoop=1;jettySize=auto;html=1;entryX=0.6;entryY=0.866;entryDx=0;entryDy=0;entryPerimeter=0;strokeWidth=3;" parent="1" source="JhEwLcixOUbtRuZrVedq-19" target="JhEwLcixOUbtRuZrVedq-18" edge="1">
          <mxGeometry relative="1" as="geometry">
            <Array as="points">
              <mxPoint x="317" y="190" />
              <mxPoint x="550" y="190" />
            </Array>
          </mxGeometry>
        </mxCell>
        <mxCell id="JhEwLcixOUbtRuZrVedq-22" value="Workbench" style="rounded=1;whiteSpace=wrap;html=1;arcSize=13;verticalAlign=top;align=left;" parent="1" vertex="1">
          <mxGeometry x="174" y="270" width="84" height="30" as="geometry" />
        </mxCell>
        <mxCell id="JhEwLcixOUbtRuZrVedq-24" value="Model Serving" style="rounded=1;whiteSpace=wrap;html=1;arcSize=13;verticalAlign=top;align=left;" parent="1" vertex="1">
          <mxGeometry x="174" y="310" width="84" height="30" as="geometry" />
        </mxCell>
        <mxCell id="JhEwLcixOUbtRuZrVedq-25" value="Pipeline Server" style="rounded=1;whiteSpace=wrap;html=1;arcSize=13;verticalAlign=top;align=left;" parent="1" vertex="1">
          <mxGeometry x="174" y="350" width="84" height="30" as="geometry" />
        </mxCell>
        <mxCell id="JhEwLcixOUbtRuZrVedq-26" value="ic-shared-img-det" style="rounded=1;whiteSpace=wrap;html=1;arcSize=13;verticalAlign=top;align=left;" parent="1" vertex="1">
          <mxGeometry x="380" y="90" width="100" height="80" as="geometry" />
        </mxCell>
        <mxCell id="JhEwLcixOUbtRuZrVedq-28" value="" style="shape=image;verticalLabelPosition=bottom;labelBackgroundColor=default;verticalAlign=top;aspect=fixed;imageAspect=0;image=data:image/png,iVBORw0KGgoAAAANSUhEUgAAAPIAAAEUCAYAAAARAmuPAAAAAXNSR0IArs4c6QAAAGxlWElmTU0AKgAAAAgABAEaAAUAAAABAAAAPgEbAAUAAAABAAAARgEoAAMAAAABAAIAAIdpAAQAAAABAAAATgAAAAAAAACQAAAAAQAAAJAAAAABAAKgAgAEAAAAAQAAAPKgAwAEAAAAAQAAARQAAAAAffbhsAAAAAlwSFlzAAAWJQAAFiUBSVIk8AAAQABJREFUeAHsvYeXHTey5onylk6kLOWlVvt+Pfv2zTl7zv75uzOzZ1736255T1ESvS/v9/t9gcjEvXXLkCIlkSxU5c0EEAgEgAhEwCRy7PTp03vlxJ3UwEkNPNU1MHblxx9PBPmpbsIT4k9qoJTxk0o4qYGTGnj6a+BEkJ/+NjwpwUkNnGjkEx44qYFnoQZONPKz0IonZXjua+BEkJ97FjipgGehBk4E+VloxZMyPPc1cCLIzz0LnFTAs1ADJ4L8LLTiSRme+xo4EeTnngVOKuBZqIETQX4WWvGkDM99DZwI8nPPAicV8CzUwIkgPwuteFKG574GTgT5uWeBkwp4FmrgRJCfhVY8KcNzXwMngvzcs8BJBTwLNXAiyM9CK56U4bmvgRNBfu5Z4KQCnoUamHwWCkEZ9vYe7aCTsbGxZ6UKnotyPGo7Z+U8q+391AjysJw+Kfn7ufJJxjq576+BaIPsmMfKk2prcu7zig79Sea1v6SPL+RXL8jZAw8LWCmDDfw4elryyPyGq/hx4B/GeeLfXwPUfy9cGd+39eNsh2xv8uwFuM8rc38a7r86QY5GlJgew+LNhtiVAO7qh2tnJ3rZxDPcCODlmpjQgWXjY3E57BgZClniPQ59w3mf+PfXwHHrM+G6dnZ7j7nNM24fdtpVgbQz7T2h+5hmhXQTDxyvvffh/JUG/KoEmQYZ1ogHVTjtQKNu7+yVra29srm5UzY2d8v6RvgDV9Z6mGmk4ZqaGiuzM2NlZmaiTE+Pl6nJ8TJZBTuaPtMFPL6ka5hpDqKvx3DyNKoG9tdnaML99dkL3A5tvb2rdt5TO++Udd031eZ03uGindOHAE/qoo3nZifU3rT1XpmclGBLoCOv1MCRT8p3tHPiS5jE/Ou7/+KCnIKRFdhWEXHbajgab9PCqobT3YK7HY24gQCrUdc2tsv6+m5ZWWsFuWcCib2FeGxsTw07VuZnJcw07vSEhDquaT1PTY2XaQn29FTRpbsFHQ0+ujEPo78ty8lzXwNZZ31IPNExb6ld3b5banMJabb3lvwI7hpt7XaWIG8AQ2eu9J3M7XZox8VUE+PRhovzkxJmOu+iS3e1K+1Le890ba2OXZ38pNoadxBPHhTnRL/Qzy8myAf1yKkRqUSEeHV9p9xb2ip37m6WO/d2yp378t/fVdh2WVreLisrG2rYrbK2uW2NvLlR1EOPlT23Jw2SK2y7elJrj++WCRpOwkyjTavR5mYny6lTU+XsqZly+vR0OXt6qrxwerK8cHaqnD83Wc6cmijzcyHk2U7QB0NmOfrwYIL0n9yjBkJ4U9oIG+wYqU+Elja9d3+73L6nNq/XvQfR1g9Wd8qSrtU1CbX4AnjaeldXzUW3wTzIZ1IdM4I7O7tX5uZKObXANVlO0+Zq53NnJsuFs9PlhXPTvi+ordHaw9bBYHsP0l8J+MVuP7sgH9QbIxCb9LrqZdfUSGvSrA9Wtsrd+5tq1M1y647ud3fK3Xt75e4DhHu3LK1slrVVCfLGloR+q2yoN9/dGi87u6pkj45o4MFGHpMgj4/pcs8b46Y5aeLFU9Pl9OJMOaPr3OmZcvbMlBp1orz4ggRawnzuDPETYoQw0zDNp9TYwy7LN6o3H4Z9HvxZH62ASfFK+NC2xdoVDYs1dX95R228pWujCvKm2lo8oGuJjnsViys08bqEGE28t6c2UKdNPrSGpsr8S93KBtPfuH8nxenT00Wd9l6Zn0eQJyTIalc6bbU114sS5JfPT1uwT0mDz8+rvWW1zcokx3LDVP+1up/1SxNUdmowertWq22rYR+osa7cWC8/XNN1daNcub5Wrt1eVw+9WVZXJOCb6rU3J2V6jZUNNeSuBH9nV0K8uyMNvF00hNIdvUuF14uGtqOl99Ssu25qJj0moEGNMy7za0qD5Am19rSuqSm0b4yjF2dLOSeBfvnF6fLay3Pl9Vdny+uv6PklCbY0NWbYcFnILsMi7+fvN9s5BbmtD8zk1fU9WVnb5ftrm+VHXVevb5ZrNzfLTVleD6SVN7akcTVs2pK0Ar8p62xbHTXjYeZFxC5ub7ezBRkBxsVdbCBJlmVW+QAu8ITXxJ7auUjjMnSiM8a0Zhy9VxbVSZ9Tm754bsrtS3u/8ep8eUVtf+GFGVllk+4wyCU76r58hP5y7mfXyFlUGprJqVX1sEvLm+Weet0btzfK5Svr5XsJMdf1m+vlxt21sryyrQaVCbU3UcZ2IZlWomloNGxo7imweuxcNm6Nk3e3tgCmt3tsm2XqGGSSE6J+XncutDWNvltOqWd+8fyUhHmzXLm2Va6+NqsG3i4vKez0afXsC+PqvWPMBfpRlBjhc/CTjN0WdVeBOxJC2ntpdbvcl0WF5kVwL1/dLD9IiK9KmK/L6rors3pNVlm0adu+0cZj6pgd64yoaYVbaIkfcmq/GGJFnPqGskVv7+Zt4fUsM2FmStpaGvu8zO1XXpwpF19adwfz2it03nPlgjT2gjQ5Aj0nLY35HY4ls3hOAR+i5Il7n7hGjoZtK029pALpVe/KZP72h+XyzXfL5YtLS9LC6x4D35fZvLYms0sNymTWtioeIwnBG3dXmxWI6BEq7aw/y7N8g6LU+qEjaREu1TqGF3oazcy9GH+ItHU7Y2rNaNu80qTY/OyUzDKZYtLSr708U95/e668++ZMeeuNWZni0ugae3uZo5IY5RdFPclPvFF/qQwoa2ri1MCEMWRa0dj26s2N8uXlVbX5arn047oF98EKY14uCbpWHDC3t6VJaacxV57aNivRBcuKbUqpPOiCZXA1Dg98obonPQ842lkokP1w4ixYRzBwwKQ09pTmUOY1KYZZzXiZsfNrL82Vty/Oqb3ny5sX59X2szbPwQH6vtwV68/c4E9MIw/UfZTNptHa+rZNpzsS4ivX1spX3y2Vry7rkjDTQ69KgLc2aSyZMY1QIsi9gPYtVptVNZlPea+ZDtzaOGEkTa3wMY+r+/aW7LrtrbmZTVV3vrRMd7FTpiY21SuPy/RnAk4TM9Iud3W/+OqMeu2YHFuQhmZGNNwv32MPVMMT8ER79+2C8G2qI16WoN6Wlr12a7N8d2WtfHFZHbcE+Xu1/R1NYkpJexlxbI+6opVZB6SdJFYWED8OUGytLKlNwQW6zxlQfHEhnPwxlAphVg60tf3BD+CxGIuWbbX1tjqetVWFjW9b4BexGG7IQrwVY/ebd7Y9LEBrM7xC4BF+OvB00P5zyvIT0chdA6hUFCYL9EANd1mN+fWllfLR5/fLpe9Xy817G5rM2HSDb6jhd7Y1inWPPKF6pxmEgDbBCVGKRjYUEyeHOyq3r+BBWNgm4sfcsqH1gQkmAbn6ephGT2hvm+NqMOBnZ8fLgiZFzskUO69Jsbdemyl/+M1c+eCd+fLOG0yYRT8Z9RGEpqYij2fFDZZPNaai7mhMe1Om8ueXVssX365LgNfKDxKGe8u6VtXea1ouVOdI2nDU8IT8IdATtWOmQ6AtYmYDyOiA0bKpZOGP0N7EgzCQBoxarOKIBNHetKVx+a5HI6tCT3qR4VUOPbP0OKOx9Jy086JMa8bLr2vs/P7bC+VPv1kob13UBKlmvefED/B6lAka4BPdfgb32DVyFCIoTxOaGUmWEH68vl6+/Ha5fPbVUvnkiwflxxtrnqFm7ZBCh1lLyaMxVQ2qlKYmBNY13rEqJ9OCH5f+8LW/nWlkJkg40sFIutwi4d9TRyMW1Kw5M+doHFkXN8fK7TsbMiE1u2pzcVuNrVlwCTkN7J1kFQdl+rkauC3jk35mwwZLQsuqg9v3t6SB18vHX6m9Jcxf/6CJLIVtyMTZ2ZVYqk7dPbrHpL5rnesGD9GXE0WN9y7gohX6UJ4IM6om2KzTIYBzUg2QdzjMavgsXTzrl95IHXbsJJOVSLnU+aCNb97a0XyO2l1WGJOwd7Uk+tbrO+XlCxp2aWWDGe5wyqfy75Nu78eqkWmATiBEORs51rTm973Gvv/45IEEWGbV95qJ1iTWfc1Qr8vMZhlC7WoBzUqMSpBm7oS4r+is8KyoQf9+X1Rp12wSwGFc4beZvS9O5aGl5cAT5GAlqI3NE/GMkI8LgAmQ04uaKNEk2DtvzJXfvb9Q/u33i+VNaWomSZglpY5wT7tmbtuZ8lAuxrrX1Zld+nGtfPTNqoZMazahb2o9eHldcx7qsC3AAt7WteeZKDRmtkm1eOR3Z+e6Ao4c0olL8DdhdLSG0Y90ugFjXB15EG/VAJ/VvOA1hlOIcYsrcyEYjUzrh/gHdxJvDT3N8hTDqOnypjrsP/1uvvzxg3lZZPOaGJ2uHT/1EvQ86fZ+7BqZgtIzM0PJwj7LSJ9/s1z+LkH+6tsVj4PpsRHe8ahekqjemNTwo33xREA2csa198PigCN9h7R5btONiidtusDB5iEkeVxc5NRdC4dwMiG3pIm5Fa19Ly1pFl7DCDY3sHSytKwJEs10v6BlDXYV5c6hzOFpuydzJt1MZi1rjfeqxpBffLciM3q1fPythFgW2G1ZYkxa7qmzs1Wju2tcd+qTsfFuVaUINHVLDcc9csgWSo1rXGCpEfh7T1K1/26rnTS03VFOcAyjcNwZ/pIUoWYDCgpqbU1r3re1gUUrLhvakIRi2pFiohM/r7ZmHbrfCkqnQh2A8fG7xybI0fGECYoQ37yt8dHXa+V//f2+7prI0niJdWLWghnphkZT4Wql9kJMIZ9QaQ+pP8bBox3h++McmgzhLlu9fp3sYB8wEyNr0lDXxMxfXVoo/9f/cab8Xhr6Vc10T2m5Cpy1s3a2ZvLRBPyqQlshTpoR4s+/Wy8fusO+V77VPgANhbVWXMqGtB6C5kslQTu6U+RZ4fEXRaTVqRM0IfXLdtpkfmtyAWQzDVR9JPevVxOVeJiDEn44vEnqx946GIxBmG2VKRi6oa+2ojrurfLFN9qspKED1ucfP1go//2vpy3QjKunJGUpH1D2JIT5sQkyxWZ8tKI136uaff5SptWHn0kTf/ygXNZSw4Z67V3W8FR6Gs9OtesKdimPquJI8vP+0lxc6cJqYNkKF799Z1S0boljaW3bPba2lGqDw4rmCKY0YcLe4XVdF1+Z8aQJpvbT5IIZe4rZgXdHnfN3Wgv+51dr5V9frZZ/yeq6IlN6RtO445oQJE1ozEgnpdRUaQg4QQi4x8UWYjgkhBhhgUdicgpAQQuneSil2v4ax00AxHuYa58CB1xAmBdBns0g4qBvlDCTlXlV4NAEGUzA8cfmpNt3xfvS0PeW1jXvs+llLHYpYomxK5BZ7ejoo1yPW5gfmyBD2Iomeb68pPHRZyvlf//zfvn6u1Xvl2UtWPVgt6fazedeiGvkE7hl7/84UQ+sayYTKAOGC3CFG5ofOTYgXNf66f/8+71yXRte7mi48effLZbfvjdv8yugxJtVSlLLZfiv5R7k0XIUGGYs5ZY00N8+fVA+lBn95Q9akbi+Ue5rvbh1CHHPtMHE1XDpwBASCyZ4XX8ERMXy6/6xq+eAhIyw4kghp5+Q64gnzO2gXwtcrV/TQ0RtK/YPpIQmnYh5lmKUUMPNE8LnTknPnt0WkVsyq+9qWPXFN1uaA9JGl6tr5f/+jwtq63HtO5jUKgftDLH8tPVC2E9zj0WQvWNnaUcL/evln58sa2JrqXz8xbLHTJBHXVGxkD9oQrtUgDwTjtLAIy5V9FIuF7OdXHRosNmOKoFZ7N3dWe/37Wc5f53VUGXAxCFqaOKbeoGF2ei/q50/Vud9VRrpjnfg0d5oNlp82CUX7A9naMOS047uIZpVQFWZtU/sE4FfRJmvqGyhha8QLO3nkB9RJD13OlYmrZgpBwW06bfb9SX8QsTsdEUVAtoWWmlaR4cRJjwpdCmAPHa0f5Qx8o0t7V6TIG9pg8ucXrfa1pLqb96d805A9nszWUa6HDa0uB/1+ZEFudUgSxLiT75csRD/pzQxM9N3NW7AUdk4ijwoxA5+5n5SW2e5YababK6Tj75c0uyuNkJoC9Pq2mL5029Pa5aT0dev07X87DaUhXFDSzD/Q0Omf6osn8nquqoNMRs7UQbvXRfgcUtkwXPRJUytMIe6s2J2/bWEPHRVgaEy4lBal2ko7Dje1NQxt6KOQsztboMOQup8Q/7vZaFs/s/7Wq6KVzPLb+ctzLy0EcUhd/HHaNKOQ0YH80iCnHXq2UqtoyG4/7Am1sy0GpY9s7hkZp5HC3GWgAKNcgc3wCjo/WHD+H8qvv05HBSS5e3rYMxvdq1vbqrRte1Te7hVK1pjnnRD8lod7z5Tt4+jYQ+i62HCW2Yj3ZpedKBtP9E4+B/SxB9+u1quaQ5AW+WtCm3KinjGs9Z6KostlNoM1EkMHaK9EQabuuF1ugFhFtoUGOok6Alk6Y/0oZ1d50RXfHpCTLjJxZAnniV0taPAD3js9KrPBBpP0IcXhyaOCO7pGIsLt7PhB3FWy6rDeyAFt7K0KgtsTHMitK2EXML8yotTGjNr8uwxauaHFuS2cZclxJ9/rUaVEP/nP+6Vr7VuyJsrPfNGYZOps+iD96zowdDwHRY3Cn5UWIujfR4F+/jDKHtMjsFs5D/mDSNMBrIVkNn7TZlif/jN6XJ+Wht8xQaP0+R61BKlxZWMS7vf0iTW//x4qfzXF0vlU7X1NW2EWJONySSVDt6wY8db7ISrda1bCtNIE1n9mc3UjlDShZlNV0eVOUTC4uqrcNDjOPIVAHVmvjMdmLqRq0c4AmHiDbwhjATIR2QVaE+mKaw3sdv8oCDoyF8HmLKIUauBXQi2bbZjmbAFgS2912+tlf/nf+/oZZFN7TfghJIFbeWd8ksXrTy15Qv8x/89tiBHhiCWmaCFfcZJTLX/SzPT/5SZhVamt344IU5Co6LS9/jvTxr/4RRHR5a9Nq9i7pWbWndks8mMJkDGZY6x1XNSi45xgIFquTLYT2ncw6k6Xiz5cyoH+6U/l/D+Q5t6PCaW/4HXh7OjCnwxNu7rG3GCxXF9WSIennIxIzoQ6DdwIIwIQoVFTDo4HjqPnoFp/Moo8+wEr0q+xS3rthNmJR/hwNiXJGgd1MrDEFCsLSlqcPoNd0SiZFUHX1y+si0NvFcunNdrsnpralxbO1+cnPJcSXb0P6UDP5Ygu8KrJGMaWYi1/e6jz1ekibVjS1qZnVrD7nBNPAz97PtDO0c5Mcce6EX6TyUYssIkyNPW2O+8sVDOaK2i1Yi9APx8ddTOnnOQw9/U1kxsfaEJzWvya+6OHsiMDrPDtOqPxMASXTNM0BpCqefKPxF69C+zxuBN3K1AHZQaIUs4ROxhXOZ3/DTkMCoXKGDMnJisp2213LyzVf6//3qg5Sq9XaXNIrx4w44/TqyJ6gFfawkkjqPvRwpyn4EaS5zItssb2uzBrPQ/NTvNEtM1+XGtNn66hHhUgxxdeY8C0dYLZ1BtqHEnJ1fK2UX1zuqpZ/Wu65SPIdL+bFeodIiE/ucS5pQ38ssdW5f0rjBbLj/5Tua0ZquXRDcuNYk9CsLERphTo/bh0kD25E+kh8V5SuHrYkUEuK3RBEBaw1RAtHQ8Bh6QZDw4Y0tm4CatZUoAIeittu7TkbfjGyZGGGsORDsPlLk7KsdkLPe4gi791oqkHhNqRTu/LumloWlt5X315WnPibz35myZqi/XOJNH/DlUkKElNQMEYVKzHe0bvbX0v/5xV4L8oNzWgJ4aiL45qGiZ9RHp+hmTZSM8YpbZSj8hOWuPf//0rl7p29UbU3p5Xa/FnX9BW/x0D34gkycvzG17k593bF3W8Ek79D7TSw8/3NVWTA1oxzQECL6Q2NDJiDzWanFocjO67qZakkQ8wk14p6gE2+nz4P5ILxjGzKRRLjZReeYacA4DsPKo6KATIYA/EphGhTEzTtkUWl3z1PYwDXHO33Eg5ZKr8ew4i/LC9xHfYwxY/Dbvm06Y5OtagvxRp+D8v9pXsCl54iULjhxiriQnAk0rAvcQ7lBBbvGAnD3S32gf7aea7Pj82yXvpdVLm1FxFfi5EuK2gh7hGT5Bg7AD6Ac1Lqd6fvzlAx05wzG9p8qs3qJ5yPZ8BCoiCe2bjnVuLK9rWlb6hK2XWie+oiWne9qhhhsT141rpoi2pgwwNVyQS28ptNBO+YCJLUEEkFEwqTW4fOkHmhyMyykRSTAQ07vIM/wInDuPCmfAmiAthuhSLFbCFX+9ggpaTBeIq2MiDNxtvu4pVGj+Qq8Tm1ckNMVdosgZEOqCeiXqviaEv1Kdzsm8fufNucIJn+fPxXvNbTtUUo51O1CQ24LyjFl9S0sNf/vwbvnPj+9px9aGCxqkxi8Ne+IergbYjBCsWjyhxJbWCb1K9eJ5veOqA+F4waLf2hdM+3A5HA0N8yQDIRQI8R1eQ9QLLx/qXeLPpY0fSIhDY4Sm5ExSa0xRj+DxJhOCAwsgACHyepYfc9QRlZSMw9vITo0dvAFLcq6f37UMzbNaKtR+TGi5UBGe5YsU2aZJtQS40czU7329XPO95pn+9uGShfzf/7joAwoetYwHCnIipCfhhX82hH+rmelPtTH+0vcr2qlEFUM2BwAMtFMm/QXvUZ2/VPP3Be8bsg9rn4jngp3Zq7tbvtMrgKcXp8sHby/K7JoqL70wrUkRBKVN92SfOW72kvZPf/n9evlOmxqu6Q0mLymJ1GzrXiuG1mSCJDUy1FEqdxB6wKS2MBNW43TzE/jGm8IBZ00IAjnjiUeH10dvODEtFT7C8egpM+nqjMBBB1/jrF33wUdM/kb3BFBeGTPsJzygIIQJtN4BixvzK5zbMrE5o+4jvZs/q/Z9VYc5YmZzVBSdd1ZJ0hlpD/4dKchugMxXaWN2NV6C+PGK9tPqTC1eVcRlw0bO+yvMQD/hp124B03spDkMYVu5wP1Umn5qemhoKhOvHYwvJubUT0kFgsEJkQ+0Ns/ZZf/18X2vM/77n05LkFlffjKutbzIAf9dzXv88xstNWmC666GUyyThdDUcggGgfP4UHfKgfBRTCsseTh8gZrDpI5uqqbtqlMPCiJUOeh30DGuRYCY2CKfPDQRXO4YCBcK56t4G7vyO14wpglYY1GsJSLyCcGMvMmV1KTD5bIfz936tmkhJPi9K0L1G1MNhB7PgDuryM8J9YPP/Etlyi2vbmnvxYrmRMbKezpR5typ8fLShZkyqdnsbBeXoM0wku77HSnICdXNUrObR1swP/1qReY15wqnMajiM9Cxy3umfpz3xD1YMftzcFU1wQmf6Zuoh3p81PTD9AxnGjOzSAnrjnHUq0xsHRP72Tdq4Pmp8oZOcDyrg9RzJxCd7HF76eHcDvODkzfUOAzvB52v9Y1mqi9rNWJZb2vBvqlRrWXErTE7LVpEDwIFFMLg8bLC2g6XOGpi2LlWKdCQi7QRHr+CrJ0HiBiDW3T9bFbv/KBKWiNtjVd6hJl0Ge5sXaEk0mWCnJXL43iiCFd8jQ7QKGyCdPfUwgN5OFb5K5Bw8IGL4365frg2pnf2OU+d01hjWapDeMyHfYIc9RqFxpbniJ4froQgf6leellrnxzJ45e0JcQWaZe0LeYxcz8BUw1EvXmXUfWt6P3eb77f0DG8q+UP7y16F9ALOhMqtvSJEWCqrO6fUIfgifYOJOT71Q8bmqHWMcRq5yWppC0BxAxtaJqAhB3T7SeEvr2D4AEQ8hoADQjK4U6gSxB4vUxdk0bI/l8LRJMOf87TZFZEc6XfWPA06QizPlLYAJyB4wcaccgvLv0gClQKsVAocgi3E9SfxB94ANR4+YFM7M/vWTNf1LG7L2o4Fe0reyITtEhGPO8T5KQCBJy1xQkf32it+Hu9ksVpkUGjyFDJySNMEZ7aHA8pyQginnzQr42e/SVOxqCBWZbgdJWrmsn+WqsEnDbBjDZfuWhNrv1YHi3E7CQJuCdt/LUOBfhSw6dbeullTYfDsy8cDZmaJnPYlbk9LsZNYUIQmPSCfsxp84aeuZOWuDSh63yR06Jd/YJFJqjwhBHERd1wx2VLpt/x+kHbceGiLsOoxg8MUdaIFbYPJLZ37mzAlXCK4jDIFChK5uW1mqRmKV8vmh2xFSbpql5bM1gxmZaTRb6/surP1VzVQRTMiyx6770UZQXK/BPH8H2EIPcgHCL3hSa3vvhmSRvAeZvJxdAsqhqQwrnUPTxPSXRrWg1C/Ny+rK6fO9+Hyy/YQPWnh3xziLkJds0x6fXqSzMD7y8/HPb90NkhYG4yhGJzym0ti3xzXfsE1IHc1REfW9oDzqmWCGK2pz6cIh9LTxzRE3gJmbREi35g+RUjmAlV/TFurnfFZ1lJvcskme7JN9zBYd4CAX7dHa7nFBLDN35LBX5AnEYPoimeFaBM0J0m2eQB5Jy6NFkeCB9XWrInPWu84ZxauBSoyD2dea5d4XFQHwQIH38DsNWXt4iVlQNeeVybqnt2RtJxf3lp2Qc2vqsdfhynnO0k5F1nkrjae0cigRCOY72LbZh8b+kbncH07Q8rfvXOe0gprQ9xh91IzgV5QaIeTtxPqYFQJ8KgPbp6Sf+SzFwsIrb3MZtM2+Cyrez5CT/wMju4OFvrqtr7ivK5oU0/qzqqlgPytsXJKcTIqptfvU2GkTUTUcTh0LCxfht3rymTiVyEBw4HOCzC6VA8hhWoOxeSVLwkh+m55+X8DBNx+PMCJuN9F6r0J6u2sH2+Fb8yw0oGDy6yCSG1oBKvyOgWgAWilYOa0Kk7BOmr99o5yccOsk1Zv3dU95xr97V20KFEeyEeSjrCS+52wRgwicZFOrrkjszoH2Vm8VWAK1L3fBURB/HM8dFj+jX5rBHHnvz81BqgBdCQNC4vK1zT6SKXNazhe1gMbfQWpByMUjUe3od0tHV7cRTRJeH/WsOoW9pltqwViS3UkD8ajYCpvX3BwNGRkCXPFpCa/zArDJvjLZnRITQhQ7yfMeCgb8s7z1y4YfxJS9KRfuB7qp20w2E6Imjfb+IBZrQjIi5m1+MK+pLOvDt9g8dDB/kjNd3DhL80yQk7X+j1UJZ7OTIKF52cHw/86QQ5i0ovxNj4yg3NWuqsrRuawcSs3ubDOXIQ27SlQoaryGCP6SeK+ZiQ/QJoHo3+agDGWco6dePWbb09I838wzU+IavuE7R2P73u6TQesG4ss+4bff2B5aZ1nXJBa8PI5LUr25grXS/AoYWAa5ld39grXLgUBu44lFdeycYRo1/FdXA1MIYZJKYT6ePxg6eDB0Qu/WyjlK/DSTkyPXdbBzVNm6+R1B8wZKcBTHf5IYCsoeVnSIQWH3VVdM2tIlMGKEUrRsWu67DCqze1UeRHvmqht8u0DMi2aNMOLAQd4EaOkdmYwOYPzDrMOxzb8igJ71gmPiqZUQI6OgLTDEuIfrwHjlEuzxkeFRc1Nzrm6QlNbjmA4r6qegAlIVVGLasNvlZ7sP/6ok7hPH+uB33YpzTXbL5KiJlYY8vg19r48TVfgtAH45mUSjh/sdLUuPXN2GOeYse8Vlgl0u++yd/IeyfcwTmkzxJBNRNjMT5mtJCMGOa38ldcwMc9OzdwcUXtUEv4GXOGYDvA9Cudo5WSBGQtmG6iSpEhGIQpDr9u5mc9BGaSxBNx6aCOXiRkQfjltYJLgKE7+dNh4oJ2nipeEUEWOmpCGlhvxGkfwQ1ZXnzM8CUdeP/25KzOQ1cJOynOcoGjd8abMJhznMN8XxqY7WPMVK9qVxdCrOR9qu4J4kZdHcAxH8A96jpm8l892KiyHRKGhHT1oUMN9c7g99rxhVambWgj2gqXbRe+4//CPJhufDz8piZarunQgOsS6BUJ9kEOTcwJHns2swPOpCpB3lMzpx9ckYZ0AefxJYJDMUe5Ggec8eW91kmE9QnbMbpDu/TyNVWpYE/vZP50ZriOjkoPfjaDOLy5G9jw0K4ICbPHx/XZUtpLaoKHhGS4kuFs8Yg4OiguCGV2nKHTPR3Y8J2s4R+1u45vRx/HaXdcCiKINMGis5gZH7O76Lp6aL4MvyeucR9pnAk/2OBhbg2GHYeAE5jDa4AmzrEycxa0DZNe0cMTq5Y5pjQD1l4c43pTy1zX9emT+5xDLUbi67IwcF4Iya4EN68YK2s5qrePg+FrOt1C+Bo/YTCuvoxrAUhByt1axB/HIcCwIBf4hlmcsLz0aAdMcmUIJ0KY5YuOwjAKS5fw+ENGY7sl6bnsGhwIc+Dkrgj5wdleNVWEgUOX8SHAFuSEUHtLBvlGGp/coa1B2V49ZP+UFo0BcwMIh8vf0j5QXlnkrOo0CEKcow/pUZw8PakaoL2pfb4t/GBZXzXQSyvMWdyR9pycjLOSjynDI0lcU9telSBfkSCvaAlEQzQzIosSmMg2GcVBnTlasfDCBOwHP2B6Q4NNcB5gUG4K9x5q/AqkLLiWaf2hthqR8cDQMZEDysM5iZD42J4QyzHRagWXiVwJg6Y1OdpMrnggDHzhSFgTC5ctDYWAM7ibX8IJCDjoIBZni8Dpop4QSOoqnemmo6vOckOiOu4w7Ug5rgOLB+KYo7quOaormhNh2MN56Lyr3qB00vZn0nVQQ9h6yRcSWM/i7Qy27LlthJ1143BQ3FBdn3NNmUo5cT+9BhhS0XBudKHDDF7S3lxmr1/TAfd8Y4pjgdr2o9c+zLXxPK+JQa5oO+gVaflldRZoWfMazCvEtKTbFTqaZkUkQjilqURgCn1mD92wQfrNs8qwtRyIJxuGbeyrTofwB7xCCAdPwuIHKX4lzg4Gzd6+eGEg4SEd9cjdeEiOX3ecOxVoCG+fLyFULOmoqEzPnaD8cXytG8ElPTtOU4FrCibfTIcK5/S1YYFimOSwinuTt8/UWd+ULGKBMUeyyOdnfDhj4M1hgdHrp9PIBGxouYMe/5oQYGLzYoQnCrpsIhnCaqKGwiP25Pex1oAbXMytxmYLJasJ13S9/boO+yo6I+YRHKxA266q476hY3uua3Z0XYLMRFNqQJjX8zOE8ey2togZJsTcuscCwIRTsiNMWbsBU8ek6A6CJVwhzKHtwEYJ0H7hQohNQ8ILk7Wj/JitPuRP4Gi5Nr+grKJRHNVGyp6OiocQ4cHBw2DJFyWSijYVcKQMyJpOvtT27T3pIe+WnsRHvA/OVDzOutE9Np5I7ZzUNmtaPbgvi/i21vbZ5TcjIeZM7IPcZC2TO54NmVfXtdRx49aWp8JRCRBhJ+pyP/BByE7CH28NwAzMjNLEMCSfm7mhdWU+Gu4XV5LzgGieSTHsUhsiTAgxO7l4x/i2Nh7c0jhMJ91KtQgJd3DBZXq2tnX+psZoYV4Eu/YxDmNs6nTcSKe7NS74GpeaJPBidgtAWXlnWAN30CPjbPBDIvhxoVTiOX+hp0Y7yNXI00BFIdQUM8qSHYYT6Keln2Jkfo5XgP26p2ndjZ+TPgG2NJAOCyYddGetsigEbMDL4lEB+GQrsnhTMnlWn+c9zALr0HqiSw2LOmeMzNcjyEV5xVWfk4jHc89idrlkbgfcj8q1r4qjII8X/7jxHS/XDopq6ZwmotQmHEnLujIbdPJV0g7kmA/sDlsRrgeyuu6vyWTXWJnJUWajbV7D2GL4uFhmEouHaeYcUqPhiRnpkA9khAsGz5FYMn+riXoyGfvisv37GPoUwoNBJWoVL/hiYjXyGeUnZeCtfZPSkH6UG0wfgg1clFEdKOkkcb53dIpehdOhZXjcaw4dfPV3tyhn0C9hRZJVQEJ7Fz52UfIxwFuer6ry2APte5JG1qSAErHwvCJb/IaY5KbscpjGKNXAOJEcppZDo1ZyTBAQo38PXyeOxhguymhMxw09oMWOm3wA7nHiGkB8bA9aAkdbbGm7O2+jcXoHZjZbK1lj5K2oVuM6QfPj4V7DLaxXLkuAEWLMa07E9HSS1T9P6KhIEJo3NDB6S69RWEuDHmG1oMGQmMINNxMelIdVh/nKOI41arQxz8TDXnEmduTn8bXCoBkcdBS+k07+dPBj65JewsCbWhIiKQ/j1sgv0kFyOsj2oQi6A4Of/HEBF552/geLOE0B0oSJTYoIhm473/hB6GPokNVkihTlPA0RSfJ3k2OINel8W1s3OUL5MOcxMj0050YtaZM+jMInYGASiI2ekYKSXToajec2LONG3Q+CA8nhBI7CdnTYQfkdnfLXBmGGqURt09nKFObztLQV3+jlpM18vfG4tG/KtOZja7zttKZ23hKzw4gTsu/05Wrt50ajRZgZssbH+Fl1K6JyHIsw40LIQpjRfuADBj5Bu3WC1zS3WarxBybgYfgquE6vmBZO+PEGDwIfKYf9TuI4EiBIg3jwA0PHAitXnWVkTts8QX/iJxga0594uROWfnBGOrAFRscZr7EIVkCqPOZAuo6qNvqW3lW+e2+z3NbFKT3GJXCIJVnrnBYG4asRMAg7uRiLgRiHAPdCPJQ6QE5+f6YawHJiHoOJyLuaCOHtKL2g9NCOZca7EuJ7So9Q75mTg5F1nqPwjW5nhJaTujC5/dxwE2QwLm211ijCWKaK9OQReBj3PoprhQJ2RQvnlfiA8fg9A+o90/ZDCIRDHc4ALaFBU8CJyws02YkNof6JXgSeHHfLBu2kve/3NJxC0e6qIMQ21d7lVQVZx45oveo+vbxMLZY62vOXApoS5pXps6fJe4af3J9UDfjNNDUq+3AfaB/2ttQnZmB7HZW3jzWWIN/RxWw14ukX2vQEC6GZMUXRFjkJNZ7qBxiNl4eFWV+wsvUWjI55jsj3moPnFJK8IwjkEQIU+Vl7K2wYPzD675jYAihaCAPfcLw3mxDZ0cVzwPlBP5mXX6WUZQPOFObA2/sTlrsdsMaRXqXXYx8d/lj/DjxEhj/SgCsoFGyavo6KUNp6CQXLjjt13uzpOGjC2aY1GpkjXhDmbfUCKqIbBZxVy+spkBOGO6rnDaiT38dVA7QzLYB5hSAuS4ixomi7o1wyF3A8y2Ir97S8cU/WFxrZmkVomDkdlwcjDudxLJnaz4M9MkXRVBqbE64gvkDMPWXd2kE/jJkJg6My3uahwkKYYXYSRg7VMHCabRHqtWH3UPUZPHI5/lWy3uEJsvswPXmOznSE2c8uRYR10IUf2qAn6XXx0qOCZPkQP8qe2SW2vDsJedfL9SEfM/SkCb/iqQQ6EAWC252RypsnddK0mNTMXa2ovdjxNanv8Y6aEzFOTK0l7Rxi9xDP4ZIMfO1zjT65/Ww1kEKcGW6rZ2Zz/bI63+MIcqbLO7Pdy7K8lsQkm31PndFmNJ1Bb4EJXqP94TnYEI0s5lNQaCkxXp3RDm0V2zlJFzPawEZ6tFFqZuJx4LF2BUae1NKRPrQ0MO5slJ68U2tG/uE3MufT+51HDQseDpoNGwn0WwnhSbCkSXoRDmvNioNn6Le3woc/cET5o7ykTXzccZQ/nviNvHjq8nCipFHxEkVeamGFgrZe1dKCDm0Z6UhqLewJFI2R/YVAYRcaZxqFiuxHYjgJ/NlrAKtpqQ6FjjtGhpnMWOrxJcf6nrG+4SVGQUvsHmSvjSgZwoymTmEW24+AGh0UQhoMHvTE/uvhMXII7X4cw+HZGeyHHA6hA9KQURfLUimoQGVHwjMOwfwlXKpP7lCL7HNHsW7IhFqSRl7VRSdsI0WReYfeEGRJ+bLUNtfWvh76lykYxJ24rAHaoL94NZzN9D4xBKk8psuG31KaNTHIumesSX80jlaIvCQkgU5hDo0SAj085ErhTaFLATajunOBeHAFHQEXQ7tMY7UiWPwZFtqv94PPrt47vwLJE8c4PtOFFeBg/QyWH3DiySu7KYcBaVRDWl/hmUfSN9wfVBKAtJDiRz8nPHc/1wx5rxmHYDOUYoViVctRjJtHOY+RmaHekKnlKe4DVPeoxCdhj6MGzBlHIBqEoS3X1EuzYWD7gIYdhZC1Znr0TfUEK3rveEnqPE1rxsbDDubALkM480yuhGEy1JpZAdxhmzSxGTMzhoYXLZ+6IxjDOTDWhVPZhwx7wrSG0Q+0kp4NKuxXyG2UCrLz+LlKR76PbOEAkfCx0oL2rVnEOXPCAz1VRoJm4JU7mpk4aEhnU1jhhJE/guYyCR5/zT7Awd0FCBHA4IUCytekd5RigSBPfnzX4yjHkUu898Bacrz1th+qCrIaV0tOXAcB7k96EvL4aoAmPb6jV2bDTrZXxz9C0T4PY4RnttVr21yTEG9wSmZy1TCw/LyeR15+S8miNgiEFo2JMTG5/nJDCLPaxMRmkjp5pJAUoGBhBATm75m4JQVacQgRwgAsB+LhUusn82MZRP4hP0GHKBA4acmXjgdBAw66cOEbzD/xEJ/aG1qqvBHs8La8SGHGO6+kp+YAPdDMpJY7r5p/FKfP38jBXyvKd/WQu3S+am/a/CD5dBJ6dYAOA8xMTu6/fA2ghFl22qxLT4dRhGbLXV8wAWPqDQnzjtLC3GhSTM5Hd5XrJC4wfjJ/iy8FFMFqL2DwD4+R27Ttc6bNMPAmbsLa54ShfFyP5qgfRLR3dCyt1u5j4mlUXNIVQjycYtBP+jZHnjlwoO+4B+HTZ40MZUygwBwPMeRKHMe4t6QdA/y5AzmqfoYEDQGkrSzIR6UdrEzeQmIohVB3Ai7047n2I3A2d/ApG3QqO8eslS3sfV5oOm+3FNuF5iWfiMePHkTEoRxBsompe8LEEzqxwggwtmoiKNJS+iMO87hP3+PP7gM84AS+F6Iwaenw1LcYD7lgolu7V1WOpiQ+cUU+oTXHXT+KUzx4dfNFbrjWH+UlNOjjl/i4xxMUht4GLlxaFNCAS5zcnWegcwfFSxRc2WZO0PyEaU1CpUwhpgJyZo/nn+LSDPopOJ7ttEdXcLRH1ALPzDLvqFV3dR3UsAfVmcdx5pxgGzMyP/pP09XrwkiQGN1jZ3O62LWXFGtR3iPOt5FESJeew+stJIoPMxdcYUIiLOlAi5aiBmBq7vQn3F1mHnR166z45dDM0Nbt9Rf9Np2Jb+LAyQXZE8ofqXW0/HZ4FBJCQ2Ky09gaWJ5Jogs6K6jD+UncXYBhDSUc8qCGdfMjcfKSpnXuqiJJh486buH2tI9+jN7ERABcE7SI9GxBjskEZa/ae1jGGMJ34n0iNQAHZAMiELRVmMZDvPEIuYuR4RMhipljeCYEg87cp4UIgMkrDmTvnHglXqAPno2YoMbpzcWxu6vXqopvCCbfEK3gU6LQxqm9wAkuSk5o1kHgC+2qQLuADQ2OgKQfbcmIHblCQLhn+UjYKSw9kw/OJBourA3CI39H7/tBxqL8EQXFUYrAZb/azPVZOwkgoYWy4MjDnQMP1ZkOgCI2g0few7QeiqIDcG+hX5sWxjgEdOL92Wqgbw8YL7OlUfLKsKPv5iO3JzuNuMKUNq/oGYZorOwhhLAsDrZNQnrm8HJUx6gBm1vBE9rJR/xkZ9JqbMDwkxZsKYx6tMs0rZ8qAX44P2CTUgtMTZT5AU98piMvrIL0V/Du5nSKzOEAEVgX7WknHXDzAF7yOaiOiQPmoPgG1cCjBZkJCkwuVHg/hZ5woH5UJ4pOnGrgoDp8tPphuMKMZt1Q9Qg1rG5aiceZXUbrVgwwQz4jODByhuFPoUTPTkg7M3ZWcltxKWQpXD4HW57AExoR3GjDrA8LaVM1KWyhmUKnBXTVsIKNfDSTrgiGgpEf2i7otV85IILk16GvaR3V/OTQz7QlcCXRHVOFJSjrBvoyvyx3Cl/6XS9KAywOf5seOGvjzNNA0CsZzDAylQP2KGdBprLZZ3vQy99HITk8/hhUHI7gKY+lVbJlRhXliPpRq8IACWVM8viwO3EHf8d3wOqSAI+Naa56bNsMhumJI584eidMSguh4pgIi4ktg9X92KJBAMPCnHjQVKTvuRJTGH/8wKxhRuNPFica+giKyTLEGYa3hei0Ec0QMPnV4PKntYI/SlRhSa/MQ8vVGAG5Xu2NDklgMbEmXHQIrJ2Di7zzfWZg8LMuTH6BrS7RAVzjWdajvNlRAEe6wAdUplW4IrONcygREIpTAi4nzMARdwsyOU5OjmtDtnraSkzABpkj0h0zKNMPID1m2mcBjPJnHYwqT8YdVD/D6YELpmPjfAjzKLyjw8CGloXJOBB9ZwwRSSFKWmA+4sOfsW0xdqWNmfW2YI7ISugr1sARY1KFNcUkrV/4F+LOGlcYjB/rroEYDNAAPAyPAz+Prd8wTXymATJqLWQBKyDp5u4Z8iZdS0wKocAiQz+Qv0W5yT9y6OmJ+EyGL/E671oPwNesjZlyRZpBfEgynYZXFipMQPa/xjspKA734hp8naoHPHn65WqAtvObSVIpPCPAdLp0vvuHQgfTicBsS5o2dXDUpjTe2p6EuWPrSMc3N7lwaUqH7/BfkRSaowNDq7Vs2kX4oRXqwZjwTVh8u25kFIgFuo3Yj3Mw/xQU4FrYDE9cxKHQcttojqMzPu9tOmCG18MPpz6x1Lvyax2UJ53U7QRKVkwwBNYlCdNagjztU/qelCAPVmiX+4Fk9RDPx9NB9TO69Aj19PREmZ2aKHTCCGir1Wj4UQ5NvCnp3BDHbWuQLcO6A4Np8kzObhnS0fygfdvvG0tDiAa0MuvMmN1jlgzdBR7LUjJLRZeDu/QcE2Skzjd3gA0PDzDsY4sndzqv/It6QkAiTXRs+OM93/DTAaGhYsZaDxUH5ng7cwxtrWhkXsAnTsjl2RoPVHKUyx0X5Cieulc1OBx4a1oBoInjF7CwcqJvi3J4bkrh5IfrYe2toQpXIltg6l0O6rirIJcyMyOtPKNi5Xx44HoMv0HkwYgoyHPsomUfogJiLDirtppVmyFQx3XsFUCQeR8ZExvWYULHTKtmSFQweEcWcOJO3o3tZlKBhWMdIHqUoN1Q4rVQJUtWEiRZOU0rOAQr1HHxHChtJQh+R3nkejRcnTRBEs/2G7kCGr9njgknTIUjT7oEBAWX5bSnpgeXi+N0kdgCDHkVt/MjkR4cZgSiU+Ctn2yYIwgxjg6FMJYNbWbXdAqJJ90yb6+NA6f00G8sosGCrEPqGeuPchZkvatc5mYnfHXn446CfuxhplRYa4EeO/5nB2FbQ5PqmRdndTzq/KTN64NKiabgSseuLt54Wpcks+caTcoWxCkYSReMi4NXMBMRCJaocDFmjmcHKJ0FRDAIMZ0EfhhqGwTqKWI5RqyrZDCotSHpCKgu13HTTz5o1zgHO6bhLFAKRxRxRl/zx08ok2I8WaAUgPaFluioiA2oiMeKiYpJDRcQgR9hy7ogTzok6ukAGar0CEguOy/SR46VXjol6CI8sg4IAuNJv1CRlNb0gqWznlRhaHfaaZQzbWYMfbVgcZ5xl3ovJc6+I3ruUUlPwn6eGqAllRNTxAzcdJuS5J1anCinFyTIyTnHIIY3n3hjal1vPu3s6tqT7jNDd5xl4UMA3cM3OPEfxEQJBvM+zLg60x3nzhh0eKw67D8OnsNgmv5lJFgMEyKKcuanY0cCjwxECocuMtUVa/p9HB1IdiZ0NmFaKzUgI1wV5PGyuCBBhjE0gRKub9wR6R5TUBL+mNA9c2iiDXJ5CCagdabU2Z5SW51Sm9HxHtexjZEXJja0tXNH2zwnxnZ8ZXoEOB3PCG6Mm6WhalwIc/iZDErhThM/mY9+B5c4U0iiQyAdOA7msYkal/1UjIEDZ/5mHP6Oayud1n56zg4pYZMO4g8SCsauRAKbeOlDcVEPsWIA7sQHfZkHcJSPWe9Mn6erYLXEh/CIASkXz/3lWXEFg5sLcqbVzlPKMC0IJRhwLuekevjTpyb1PaGpojkUu0fXxMr12O5hYI+N9JkAxPRLRqN3ZhN/OJmvalQ63oWFsKCOW2CsLHp+tMmOzOExDSCT0WAohDaFi/EpDn+wRM+UMDOanLTbMKtIg7wUZnZywrCJnHEqznhUKCWxIz2mdGtq+00sAexqMg7mJCnpOMwdnCRNMz1px08dUV8x1iR9CFZHP8VRGHTzSHnR6EkLAuJyOAcDRH4CNjz4IqEiJaTy699FDDqCvkgZ+RPu5TTupCfSOPgJjeuqABGX8GZHCKh9IpB5q8lptY/OMM86Jr51FuQpaWE+Cnbm1ESZlomNqc2MZMc7bYpjPZvaY0GeAB1eA65JNQRjNCY6mMOYUW9Le4VpLfZuqrt9HsbM5o1lva66rDO/tqSRt8W5MNh0FSwEtGdWTFlGbOHM5DUfC1YiFwDpkgENBwcrAOai0/AuNPnRzoy7zbMKZ0KIdJlWj9WRERqNOKwQEulZfvB7thfhbfxQilBGWKTnWUHGTzrKhvCG4MWdvFOYEz79CF2KPfjBAeaocIXUgtBZ1CIbJqACmPxxeY+XSMBCuaIzMYAxG7u9zg8YNeiUCJ+VILOyxPJw28b57DIxzqKHP31qqixKkGdP1pOjbn/B3zCh1JBqOBp1a5vzmnSKoqynRU1ynT09XU6pvRgvH+Ro5Pba0GuPd/WVzbsrm5q9jhEmjLKtbp5JoUGXrDcYenwf6ffjYIdUXinQx8d5OOTjxnd4boOx1KY7peFqHAQLGVcd2GJBeCHahJOQC5GMZ9qGsTGamM57Fo28r50iAwsywMxaY16fPT3lnh6bHMcYKMdBkeSw3yDgMIiTuIepAYyruDwxJRt1YTasJ9pqYW7SDX0cjIiUP82qr7Xd41gncd6UGIbNJe01LNA2b9Wsnv31PXIjjbVfZSxMYmBbXoGxzWC6c9pIMKhunYswNBoXDpy4YNjASTozte45RvQ4Vv6kNxkcmWjpyrF1wkEn8ZEP5i4mclzkm/BdR0qgnAVP6frOIjRj+AOPaRiqlxTYFM/AFvVJL5tpBnpc5xad+IysZTZqzbE8LK08gVkwwun7yGGyAXRaY66XLkyX8+enfNAXX5yo9dok3R/SRx4W10OdPB1dA7QLf5qV0hCHiSmZVzMT5czp8XLmDJOTrPvDCGIu2lDxoxzhNL1AdLDieFnZmpBpPVk2NWOdPX8vPCF4LD0xbo01Te4wsMbKIJKDKTGZMbFTULnnsx5tSXB3Hs5A43EBsOSVTgaColWGGpB3mI5hHULQlwq4SBtLYmHOkhSodnmINC0ukqVZnOa9s6RuREPCgofaCuGjA40a4q6IajZHGHhq30OUOwPXl0HVWSQeAbksQhLSBDQuyhLfhybMWNxO5Cfd67HxtMY9s1Ky81puRCsftPPSZQAFWnlePfxL52fKSy9M27xWcOfanjYyzczbewd+8vBQNUCjRsOOSmZtNDFZ5tQ+F9Q2tA+f2GQu4wD5HUATG0H4AqO++SSN/GBTm0Ik1OysCk0VHQKJkDny4x5aF40d6Pz+sRgutRv3Hi60DGGZPomICRqOK4DdKrIamRqN8ExLevgNLY22xI+LfKEHf9KBNnW049GomX+mS39o8Z7OFif4UjPX7EzDqPwJcyfme09f4A88NIz7L2VCqaNeo0Ps2jqK4XwoL3Tqv6N/SoEI77w6cCzmaSnbAwWZnjoveviXL0xZmNnlxXJFshi9Sutix40yds9da7IFOHk+Zg1kDec9kqFJadgJCRtfF5iWIJ+any0XX54vr7w0K1NL+klJ2qvNMMMJ8ySXzOl7+oLjLR1sz/eQZWzBMfzrCtM2zdsWz8M8J+NmmmE/4WgaNB5XmNsJ/Wj34TxY243R/6Phe9hU2YlkumG/wxEPXdRvdACuetUBLts97w70z5h6UCzlWQ2n2MnHlzdTkOGP1goLXDUtwotp/fKL0+r9oyeGBlz0bpUiqPJFcq706/HENTVwRL2oYfc3JGHh1FSaqQ5hHtNYaX5+orzy8lx5VYKMmX2QCyFWJ6wHntmSeX91Tx8118H22gzywKdnakeXmAjmyqvFh4AjJLGODA2URUISt8oPfYoUKO5cpIcvQovKPzC2C77hg3FcMH8rAJjtXOGyjvDlM5q695PfoD/io0qm+ngAAEAASURBVFyBhd8eLsLwj3ZJNx0OTuZ2hY00gT/pZtjR0o8/RSLL73jh2J9nXyaXr5YFeWMfPZp4XhcTXljNtRn2kd3tyASA2eqXJcivvqQZ0bnxMjWtCmWTrXInOz7M1VFYMaamNk/uQ390gAt9NNhTDFE5YF8FZQN6BFbLRxi6qqZBEBSCMLNPZ0Ft8qo62ZdfnLEgt43aPg9XFp8duSVtfFvfi2IzyKR0FnuPJxHkLi/l3SBhHTYnuugyWFdOExsuwFrz8pLTqFOAU/kXGsayXjaqxQh4CYUeMPNbx/pwlhezeJtB6z5HveDodOIJhkzeiapFmJRrgnblqvD1ZkunPsO7kE2O2c+Eecx8AFRFfmRJp5jCjJ8xeTrKR5mTNGhgjOx0ikOYOQcsS8YchCanXF/gIDyx9fQLRo2+qOEUV278IRmuaSr7ocEOAJYyzp7ROOy8Jrw0DjujmdHpurzhYiWlmagnXSFEPuzVIXrGH7Jeji5mMrXrUq2Dn7Ewu7jOn5EQX5gp589q447aJRv1KKx8qO2OPgR2B5NaM0zjbATRxSF5ZjlxDwzdaxboTdfSHs8IE5o5tQ33FDALRuMHSxvvk0MqajOwpJt1Zi6EmvStQ6smbW14z/rQTR4R26eH4yMtcX14wBKGYNIZ4TI9zwhz5Em48Aylb3Fl2oQfvqfEZX4WEeeX9IEfOnt/tMOed3OxV8A7LsUDtHdYWYIHvHHS4KLS2NXjqGRMorwgRnn91dnySu35gecLcUAOF4K4cIkn/Sf3gRrIFu4Cs77oS/c/o70IVY3bUnpFnetrr0iIz2mtXyY2ZhZxQLVjJVLQpO3FJ2Lu6QNgd/VJoDVxgF5HNuMkw4AHRmuZGTwP64bTD+PM+FaYKX2MmxHo8JHv8FIWYfuqkMDGMXnXumFezfRtODSlf5jeDE+cmT797Z1xOZp2pGvCwWHNrnvUw7AQRydL27BnAGV6RvvqpzHJDnHukGh0JJx65AXms9po8ObF+XLt5ma5dUffTX4QIxbMB8S57wz6p0PyOInqaqBpUYfhH67DYRjeTBsvr6ljffO1WbcNO3zomXHuh/20/wcIXpRY0U6umzKrr6/r05yyJ/12kuJyWNSnjLFhiFOY9ey+8ptQ7lYizzSzMS9tDrsMfVkyfXBNlIcBA+Y4Yz/uMHF8pqYvL+kwj8klTH7B+Blh7/GjyVs/+YTfBr00u3AICUou02PZBOYIR6DCpI1xMHDpYikr6QYOOno6e3/UB3jCkkI+omNgEpj6hQZ2gJkOoeCZvHHEafHA9whyauEiPw1XNEHhl2O0i4+3nw5zI6OZVHnnzfly6/ZW+fLbVaf3UblCjqWfUwCQf+IesgawIe2G6y5anVCaky2ytD5Ms6C30t69OFfefn3Oz5F+9G8v4FpblRCva2Lr7tp2+X5pq1zSh+zvIkTS5lsSqNzjHJ+ESX+0blKJ0Hv8KMJyHInmirSVZjNnXWeuBVDW5g7DZaFcMDFp7X2sgF3ayI0yj43XLw/XwbTxIJXOCkRyuiEEXDhP+zlMeAyiEMbaoivSD8JXLCFcRkY99+VrcdNp+Q0x0ZD50XvGGruzjywrTeFRByraqC/SmHzqSA+QnBN5lDr2loNPaeQf8xwBcNLI6kU70/o4GrknR8mFkJmyiy/Plmuvb5YXta587dZm2dD4ChONnkc0RUGcMKslsJz8HqcGqLO8gKd5cfTF+ayGFMOw9PCi5ivekhBflFambcIdXe9bbMnU2Pi2PsF6S5/kvKLpa8a22hOirMTkEhx2d5EljIeD+dIEjpzQZIRjfkeeMCAdDNqYY4F89hY4FM+mEdJ3L1PoGWHOQ9/BYcEAh9HJsM68ZXNuCzOaetdSHid1kk9oQSWSi/y59/TE4YDhh24OJ+jhgl7gvaQqMATH+es5OzTQ2WrQgyfhED79taor8idsMP+Y/Ir8gaFSEwY6wIfgxFxeFBi80ECngEy5jpWOtJjfTD4zN3JaF2+8HebIwy7aCGANsjVbzcaDNzDnLjJWntYuIre+K89QtVFr8pPbY6gBGoN5itBUVYi1ioBJ7XbQM0uEOKp/uAmCBWjBuNZkUl99sFV+vL9ZVvUFRoQ4JqlgYnk8WDO67seTO53v8IcQxEGYzGN4jIsW4iJNdgiZEn+EQ5L2L0iyEYJhlzAZnn7uuPSH7+BfNB+Cw0U+DB24MjzxtRhyDJxwxGV+CZ84M46OIdMlLuYnmNPgYpqDDmirTjpCDWNjhvoTElxkjpdj/LqqgGmy9kqc3AdMa4DQyJzDNK91ZDTB+28tlDt39QnOB8v62DKLFoc5IbCDlY7jHhb+ODifBpisn9H31MqsH7712lx5940FWUbTMqtDRx5ewqxTzubaKzeWdsp1XatSnT7xQ9E0OlAwGUxIOOvFbKZIjSpvOMUNCzeagz4A7QUzggfK0mS0mWhcCKge5FJo7PFPhCtGPp6FEyA5cNNdSTeLF3utHLCEc2XdCVbp2NSS+YMvTuhUuGHBJ1qUBi2IngUH6Sh/Wgg1e8VkC5Au8oMyyolLSyDpCWULREOTfM5DCBgl8TwIQRjwnGca+ZE/1gnrx/N6k4kXmM7qjcR471ygh7gBQR6GY6D9u/cXy4Pl3fLt95vl2m36jyA29pVC2rAbDgv4Yaj0x2td6dt/p4d6ppx7X0qU5cp739hZ3tOL4+X37y2U3+lirORUFbzKR4L67pqv1c9Nez/KjZWxcmN1TGPlMGHnJHzaoWkm8vvHogMtGswfTGoGJ0iO1QqEG1u0awrBhwkaGiVM2WB60sD8jC3BC+pgaD0JD4xKvCMUAJMHBHc8CLRC9GMTW9CTwoCpXhOZ8XthAh9CHEILFvzuBPSM8IUwCp9gst5A53KLuH0dldIg7NDOb+Dr8YfBTWzvCEv6oqPITiQ6jQ5SYMHTwOvS2eJ+d1rokAXym5RJRid+mrfcpJF9cg89ptzwCoUD9TNCkIN8NDOzpW+8NlNu35kvr7+8LM28WZY11tqQycZaWzQsBA0War8fmMPccPqEPSpdwj0td8oz6qLGFG6OU0Nqfy1ncr360kx5T5OOmNYsC9ImRzlqkrEvm0DuaV/1dXXC11dKUbNZQGgzBG9Kd8a3CLOZvTYBQoeLe2RosvTYa6yMj7QJjwD6Wbh4DP7QXX7wMdbNjRS2AOS3kDTpjEA/zl8I+aToOGMNT34FoMfisHyXLrRtn3/4o1bjGdAsG+GUibwRquF6tZauhEQWg/jhfbRpWhCpbJKeLr7mCQ4u8gxFGCGxgUV46NxVuduCsHUkoWVDFq8WI4NszTzK7RNkKt1T5CodA+yzpyfL669Nl99/MFeWNzbLt5d2yua9mErIAkevWjlhX44ZHlWyL/p5CXArZ5O2d4w9NabbCgaJg/Xe0iz1B+8samw85/mKaTi/Otpo2GXtEuWdXNqOeeXBTrmytFuuaUiEIOM41A4GxoVGjrGa+ma73niXEAlZCkfEDv4SX1E5wn49RRqEJOCHrS7gMj8gMKXTBS+lb/iegKGBVVXVIdSqu+oPU/lw5gcWOi3IPSLjo6no3EDXYunxR7bpx+fOoKNHaWt9Ok7hCLA7kgrT1asak9lsD1q5a1WD2eqc5DpqR1dQMlIjZ5QKoRpms/ZLeq3x97+ZL6trW+XBg42yovuWenyIdY+pJMdtgB47T01pByOeG9+eWhRB5hezaUoHM71wZqb89t1T5fca1rCTa169cywrCWqUFLsqa10qXs2jCa7tcunOlsxqbc1UW+U4sK/Y4CiEKGae8aOp6EyCgQlPF6Zs5EGfgHbdFNWpZblne6Y5m2nBRyz37ChSQMDb50MnU7Vd3lU/8FieAQbOHfk56zldrM32fjpD8Gc5YlwcwpRpuNcuVNCDrraGuTNxJN1ADpeP1yoDR9BAGlx7d3m7jBBeIAjQRY9nAQqBZv34/Jkp7eBjZyVtL5BIYPhRLLBPIxt9l6Gy0TMvsf/xg8WypaNUL19ZKXfur5elFa1RarCFsDOlDqHuxZoMwdW7RBqF7ccJPcTT8DSsXYZpTjMrmToaS1CdempTWHzdnDT6lN5ymtOSwSsX5sq//eF0+ePvFsvp0y0LtWkPfl7WqQFf3dooX2kfwAMtOfkgO1U/LRACN5gWhnZDm6kURxOJ3vymcPij3TIlGpXNIkZqePFABfHYWOnDH5qSfQjusDo2oHNRnPgnZdLwxFNX5l6eyUM/4KsqkE/WZEegWAk2v72jxphdNl7jiTwQ+MwLxOZZTRFXsmsceQmBr/a54lMUnR94EpezV1hnapNYgsM8guEgjTI1js5CQJHGdPFKaRzpxLE+r1yYLC9LgXJ2+XHcSEFuE1IPnFDwkjTDO2/Old9q4uWBpkC/ubwpQcYgELEWZgFCW/xUFAcRAaCBK9zTdjusXJRluHwJrztR1YveSJMLNp+fndIs9bzq+FR5/+2F8prGyLyDShscx7EWTGd7W2v+lzX8+W5Ju/LUu+ZOLgTF660dvhCyEO4gCu0Cg3sMqOctE5sJAiaECKYLYWe9G7xZMAQpx8LQzXgc4W7ljU4f5wknpQ+NE/jRtgyJh7Vz7RmCPscHDrQ1VkLOIxqn8kR2Qjuj6ULbI+DRwRBGDpGnMSlf6pqwXisDBy29IwWlTeeOQ54sH+ktFwoDD2kH8nHCwAgux0O8PCiCObX5Sy/odWJtx2Ut+TjuQEHGhKNQqdLZuP/iCzPl3/981qbOnft3yq1767XIvXFhapqcU4P1mqqJfCYekxHapj2sYAkfzIBxGot64+Xc2enyH38+Vf7j307pLSe9GKEGVTO4DWgPnodd5ko8QsxWzKvaUntlrZSrmzKzpQlDkQEZPX7gSGTc83kQu9PVDNL8bYbqg8DyIUCe4a4xo/xEJYwFrsJyqwrXgsZzCFwP0MYbvo/yE5vmUpipK/LJDgNxifJEfYwLGEGX3BzLGY/gcaRBvAaUrMKG/QY+4If2onwIOJ04+8Q51ZTDBDhI4ILOZLugl2R4OaZt9/a5RX2gILdAPIOAWbT3tK68onHXpR+0yWBNb9Vow8GaNuTTt7H1jrJarF0qETki577Ax6zFYWJ+NX5Ky3VUOTIeWMCpq+jBMQtnZqbLCzor7b03F8offrtYPnh3zsMZNM1xtTE5cDrm5Xtb5eu7GhurTW6L+9D53lWk+E6wlDdMFNoWrQpRg870KbxdJ0aYrZ0qfC7bYIKz8UhD8S4Pp1M5U1hJx5WuNfFZykw4aAmBizsC4zx1r/N1elL9KcLbWCvC1N69MAdOCwk4JH2Y5u350gxLe14UVuctGItWtGqvm/tOoaNJ8OmivOlDXlKnC1ts5+oj9TTYScEXe2VGDb4gIT4nIeYNN16WOGpHVyI9VJBDBiMTGIqXm89pEP6uhPm//3Xbu0/+/vH9cnV9XfiAQ3DZGhcC7UyysEQ3LiowxhFN8FP0GOXdTzAFzkIT2z7jz4qggcVsuk4tTJe//OZU+T//fEYbcOb8hhOz1NR5tsGI/hBkxuYc9fNgfad8cnOrfHR7s9xkECtu4TYgqBWRx8UIGomrAw6GhFER8rhjMwQT4+80HHCkhfv1Tzk6ZlLcnoQGXLjUZjGGDHwULDoT5SkE5IEDlo4h6FD9mA7M26AHGATNfgiqDqGG73AcYsCEWDiIjDQpxA4gWuVnHJsOdEapMnl2n6LprYY0lDO7FG46mKAbk7wvLxWyox4FOulI8ol8PK/AAzHCTznYX83znJYdXzo7U169MC9hnvIkZ7zlBh9keZx4309X9/tiagDpIZKM2fE1qfXNl8+X8idpjm2pk3tLm2VbJt0Dbcjf0HEyWViSQFyt24PQP+XhFPAwl/HZCL0fbcB5TGe16M9aMZNbf/7tgrfD9rPU4B40rTK3HpM0laRR70SUq7KUvtW4+Bvtrb6vvYBbNEarBjNx3kXWBPEVWWpF8swxbia3MHdw4oUqbHQEpEs4UNMhYAXEyxjyKx64vAPfa14xvfzpYP3oLCKzwBui5I5DgN7SaaIj4fCMPMLh1YBKVPJiJ9vCAa4QbHUK5m/wJhXxPC5CCEMQGf50k1kSihhzC95kkjDoDQzhxxqlPDiLdM0Hv2VDoZMSYlsGAmM8/Oq5mfKK3m84Jb7gvHn6Ga4j5LjvREF+kAskWco99xTvvD7vsfKy1isxqT/7aqXc3MiRFALdF6HHG4Xq/U/z02BZ9s/CE9/CqGd2FcI4Ue4z2rXzgTTxf/uDtPFfTkugZzx8IV32wKMa0JgTtXCyRnxZGz++fqA1YxlHd8WA2EjWiIoPwdhf1zAzJidnR2zWHjeEMEhHwJioyv7A+BTldPvRdSGkQ0PAA+zwGuVC0EfFHBxmocpyC2zYf3DK/TE2tRtc+yH2h0Sa0eXZD31USGQeHUW00YIs3pfPTZSXz06okw8BbgyGQ4X5SI2c5CRDoZ19koh6j7cuzmi8fMrLT2jjsrdWEOyNDVLBjJVY+epjoiNEYcRTMQHXRP7KH0fRS1hePfkpvH0ImphD5if0WuKMhHix/PWPp8o7b8zKpNbhO7Xlsr7bdDw755o9sNvqFe5s7JYvtR/+83vb5QYnZTJQlLOmU/VqzkuuZ0CENf1AormJReMwdmULJxqYezrDpUcw4ZfW1TNmqN+iqo2cWhrw1OSc+QVc3omDvjBN8ckvunitL01XwphcYw84+eG4M1Zu/b2ZHRXDjDeMTQdGh4j1sK178JsCq0OIqNABk1tB3pSBplR5smPL/Eyb60mASh85Zm0GYvLNcpMuzWtm4ngmDjyOEW3xjGktjaz3G17RjDXP4UblUKOa27EFOdO0DHZKGuUPv1nwojWTNqyDfvnNmr72t2UyUyu78FSaHQ9UKp68O8I/v/bZ7f30ZUVDfvscGjh2bMk62cVYZUyGEI+X995GiDXX8JfF8pt3NLmlfdVHObCr3e2oxW15liS4V2ROf6h1439pA8i1bTEgqlMCbstSj37nVXkHu4W1xLOFiGDR5DjuZizCxIzk5XgJU/oJ0P8WzAwxNGRNl6avBVTBLpEFSCCiJw/wE9bOtYLsQNCD0hc/PR3GDz04hXd+PeOHMFsLEC6aAIWGurLj8vYTZpEPAEk3GAIRdURK1aB64nEmq1wOiANEfmXBigz8EHSodakHub7cYY7zwTwKxEw56Xt8hEm4FUc9sOz0CoKsF2RmNexqZa19diZDPw8tyG161pdnlDGVzsw1Vbejhbrx8bVyX4M21pnj9EQBqCyUQk/VUWjXSr0T3Mfi+/W6ls72eZjiLF+Ex/ulWivWtkvM6b/8cVGrALNa1nuEZhBq3mi6LCH+6s5m+freZvlMS0/UKeu6sVqgDqTjgKAFs54xJsxnjU0byO/xrB7rHJmbC+ZK7TponscYkbyQGTacRDx5VG1U2zKFJIXb8coP7YzLQwbyTSqHVb6AZVK7Bd3EJv54Bj9Wj9krgiRIdQyLkCqCTSd0bD6Xu+YLKHLH0MHZ1bTkE/hCmBkbq7bE4xI4lRNh5WuKjJrh5hBio3c8aKgFT35x10XrEkYPhdXDhDAUyyuy9NqwkCzM6Kw8TXC9qLXjc9oWzZcXH8Y9JHiPujcB40uOf9JEDQfcs6WMyZpPvlwq67wtJTvH531ROzjZMxTu6XVQP6oEGRblpLg80RmzYYYvCvCtpt9p//RfNLH1H389IyGe85lM1EVbn/iH3aj4e9q19c8bG+VvN9fLdQ2UqetJPt2nnC2kMJ14BmHEpVDxbLOyC4PJq+Yj8gDXwmDyBjv2wG18hjJrsk/rZuSB94Pq+MAEB0a0ZviBQCMjkgZKmW07EvCAwOxa8h5gmOs42gIhxlKb1zbo16WF33h5RmvHmq3WixLMVtPmOVcSqQ/+fWRBblGimXlflu2aO7KxZWGr6LsaC+6Vu7zUvh6TYGFAUBB6Jf26TGb3Ft1T+ExBXBj35pSPUsECCDFnUJ/Tvtl3dMrHX/90pvzld6fKB2/P+7TShy0seHnP+J7Gxd9pTMy4+HO9HHFbKwfx6qBeSK9ILcyiJAQJrYlu6R3a5yDHmJfBAFY6HUHco4PApA7c4IwOwJM2gkthjo4i8gYGRmvN2k64R9BAWtg/tTF3wNqOiI6E8MyXjjO1NnD2K558wcWKC2+FhWBEptUCr3woILnEx1laJIwb7TmolQ1s+NCymS7DSWea673n94AAHmMJGWADyEXtnHxD55Xz6jDLvNlxJ76j7o8syNlTtBmyYeS378175vUFHav7r/OT5T8/ulN+vLaplywokVhJFYq5QyGjOiFRJWp8hPx6HbS2ri8FzBP2BjP2wImRtcj/4oXZ8leZ0n/+/WL5428WdfKKlhe0fx2X9Zf16cAjfu5LiD/W8Uv/0prxZb3ddFuzQeuIqwjArIbBQwiCVoQGIUcYW0F2NiI/NTZpNEwzjIW4SyeBrelz3JymMe2G8KaJmqY451w7ryDBzzCux9VkrGc2kOBC8AIw1nXjGWFFCMmD+knaWW7CsHV5wCFpgD7q38Iuf3cutxLZvBYOhLl1jJ2pfybTehdm+WSln/xpKerGJrXyo43JViDKWvDKb7KOfxWsMAxyaVX9cmfHFqY28OGAp3NQWllqc9qae/GlxfLai/Pq9JnwhK6EJd/++aCnRxbkUQjZTsZRutzje65qrN1tm9q37myUB5rR3tQUauzICeqybg/TDqPy+mXD+ppN+oMeal/b7CS89KqnFjTm0Zrge28vlv/Q8tLvNDHI+90ccXpc5/b0j7ZgSkpWxf0/aqnp0zva/KF1pqt65/i2j2IMhku83mkF84rBEDQLpvDkiR2GM95M0d4jgjEl86y5kaOF4Bm8MHqrKVuY1FLUEXDuUBoAaqFl2CbKj6TPDil3f9GR5Doy+UYeArRoJYbwE4fAQ2Ds3Y54wsibamOSdpgI5hUoNy7uIbohtEKHAOrXE1VCn5NcTqAfxsB0NcC4y/EqAhmlC/omxSezE3rL6fRseV3a+FUd5cSngB7FHZ+jDsDeapLoSbTVTMS8Knuf+wsyKd/Vhoe/f3i/fH15tdy8vevX7CgWxcneJsmn4Z4WB4OGEd2zEZp4SkONC5q0eO+txfLf/nim/Pb9BR8OcJ5lBY1/qKcsd1t/w+WGlZLRqSvWi799sFc+UR1+dnevfLWspSZNLqYp7QqtSNCYM2KkDSW0FlU4ghe1XoHwS5uExq5hj+0WgjCQn3C3M9e0dWqpgzqDw8jJjuIwmOE4hFDVIiHTZdlKOochh/1qNyVtl7DYH+0Z6GHQQ/wIORqbN/oXpPDOaV7pVb3t9rq+7sIaspRz5Q03Vscnh6B01E8W5FEZ8ILFlMxsNv3zgjQmN4P3U4vT5fKPG+X6Te08kkm4IRMR7WyGFUPhUqB5/jVq6UENDJWqeAXCIFghp0/FZ3feel1H9Oh9Ykzqt3SAIUt1nEfdi7yTHuuHsZ2qqlzXixCfSxN/LCH+Vqd+XNUCcNQR5u0gQ8Z4lBfwo0ZHCSumaWif0JYQkx1pwMf68JaFHcYKoY91Zpnw6ixy/Zjys+hIOhy55vag8BOPw0rwg9eIeSLPFEpmsWMGG/yxjoxWhE6KSGeEeZ5wpMPlevYgnhwjhwYGzjPYPNgJr9oOE7t14LfZq3ytuRVJu7uzER1YN5TXQt1p3x4DcD5EUN0FnGGtrHtmk7PWs1PaksnXQ16Y1SRXHOnj14KVPjv6HuvhT49VkCPzaHDVhYV3QUL8jg6POyeCP3hnQzvAVsun2gX22Zer5YpmXDe0DrqrFrMJR2WJXiW1o/KOI8zJPCRKRgwMj+8XWnBRuniGNjewQv2qp04b/a3WhH8vE/qPH5zyyZdntJTA+UueAIRBYMiKK7CM/s06ABYhviYh/urebvnHLZnUekXxpt5NRBCprRhX7sfDJgi+78Q6Mmdasac5HUKCQ0NaGNLPXXi7dWIakgDdc3xcs42GUnSG5x28qK/wi5UF484AVHLRtaht8QhZtp/xKiiFkeiAJQbhqU4004lkOsLBlX5wdv1aJFVAdBCJgjtCQ0Lfuwi1EcgqDsbX9ui3y7+GpF9vfDvDzqoArbQui1SMwWO5KqoLbGSKgLPp4xVp4Vd1ccxx0hHzJsfjk8A3OKzKsJ90V32JeP1Q8fJMaKzoPcWaVj+rtzoWtId0UTNzC9qzff6HtXJLb+o8WN7SDjHt1dbMq5nSldeSAb7q8tEM1jRejaYxH16YYYp2MsLtIkzR+2ZD1ixU4REyr4Zgh9bpRY1zZEq/Ic37+/f1PvG78+X9d+Y9X0AaSM1JrcRx0L3yuqPZtcUM9TW9Zfb5vb3ykQT4S42PP/fOOTGWK1s0cofzQjScNt9Ggv14BzffF+4mmwSV6aiznimhgDFg3EE2pQJQpwEfsMRbC1Y48A6azSF4dHYel+se2hQ/uMV8cTN9+JOGxIsflnebGg9QuLDimIVP19JLGHrQ6cWLIa/49wszX4PsHcJHYtWpCKcDhObAA916Fh22BoQf2nAH0UfV5NozaYHGr25d22L3yhnJwuv6LNNrGhvPzyK44sHK10b8ED+PVSNnvuarWkhXuiqTML6Y8M4bczrKZsrH7H5/Zb188c2qDilYLZd+XJdQb5Y1fRUhmQ4miOJHY2DwgM/OFRMN2vW+RCiaiu0cSaobJeBoqXjlLNORAORMcChMtJMuaKFzioZlm+WLGvNy2ML7b81rd9aCzjaTiaRtlmhhhhO4aBfyCELqzXHtTzZglC7qCyG+qg7ui7u75X9oOPLpfR2mtxPDFJb53OkJIYwf9ZJMGUtRvTD3OSGMaEq0Ofesk2TShBy1Tpxxo+65nVNbhDs3ag05OwPyJk9IT6pDYKIGOiSHPKAv2rYfLsOopO78agRCuU9nNIkYnkDiQW44/4PgCEeAcYyr/bqiGoeP8r2t447f1HwSry+2vNE+O+ERP09EkMkzCQntHFQwk3vmtLSYNPKL6oX4FjNMz5cfX3xhrVy5ueaTOpdWdA6zdoqta0Z2S7PcOlvdQoXYRs+rvrD2XHwInAo1M6iu3GPWQhOebEEj53inRquRotemsdi0QrOxgQMXvuglGd+z0WVWvea8jl6B/nM6gocTPN7VevD7b89pYkvrwioH8wIsc2T5A9uwP0Lzd7gTRhOzSeuGTvr48r6WmnTMxyc6m/pv0sQz9OZVYwxwcVdSBNQikeh9n9XvOnWggqVmDICsoRAsis/yDjC4EHQ0dIQ7UD+5zozgAkPHkOZ6wlCfkRfauo2vyAWIds63l2ijyKfiU3yUBC3Wj7lDKwpWpNPGzh/YaDSHW6jBX8OH217B7kjy2F38mRutz9gZrUy+4IDvmL3PzoIOPfMnHri+/HSuGhPLRo9VAyDITzaBCsRcykvaHPSa9l5c1MXZXLy/MMwHTnTMnycmyJl/y9AQiuYhDIa/II02O7PgyaC7ennghtZGL19dL9/r+kHXDe0Mu6OJnWV9pJvTL3b0bV9/2Ve7YViTRojHNGHAOcCMZahcLv3Xn2gEApK1zeOOhg4OB7f4mgn8fSvhYU3SCLQ8MCkBntPM4llZES/p1I43XtX1Cl/hmPEH4dnocVbLSQwZ2hM9SE852/IL6T4XjRccmLAr0sTfaTLwcwnxf0mIv9Ts9PcQXrmR8ReCEQUFJeuo+1A7YMZAmMaajFNIWDvDsH1i8FJX/ToxGSGIjOp6160zCy9WTa4zW6hUqNbMjnSRR09n4AV3XIHbbajHbh1Y8RSbc61pK1zQF22dfsIwp3EIW/xElRHnUanCD5pPIB0ujOv4drRasGIMM9tVKRhTLh6BVhxQOQSwX+VnfoIx8o4Y03usA9Ad22mNh9/TJ5nekwXHfgu27oIrZOPwTh80o9wTF+RRmVJ+BvZ8zWJuVj3SuT19MnRXn3KVltY0PEtXF/UJ0Ws3tsvNW7s67G9XJ3fu+PTONb1ataZjedelqffU3Y9L2Oj9wDlGF4lL3lAgjYiw8H6qYyWorB/yxgv7wCckzJigXBPqECbG6R319TttWp/VWsC8ZpttNajn5Pid1yXI0Hnx5WmN+eM4ntTAzoefYzhDdaDReFuin/3TV7Xe/ql2bH0kIf5QY+J/aEIQdpkRc/ClQXoHTLU8i4vNBaERAqFfEYSJ0rwI1hugqte4qoOOjgBJzYjPeJWeMXCuQacGxUzOsWmuU5MmzHfqNrRUq8VonBRmC5zy7vGSmnwQqLCWVNpwDY1JHxqYIQCWCfmnw+roYEQ7OEKjJsTx7mItrzOryx9ITz8PTlsAujOjHtZi4DU31vqiFLSZSLSwYk2d5c038Q/XGQ03WeXJodXxKNsP9dgEOatRZTzQqbxyCaGiKxEX4ZiufGSd7928JmH+4wcLZUlMfEcTPLf1it4dXtHTywHX76yXm3c3JNybZUWHGWyKyXdkcmKi7TEDjjBLLXS56MENqXjMKH8bWAFjqHA08thOmZEUs41yUUJ7TovzZ8+qp9QL3ue1mYMhAJbDOdF2Sm8oLWgdeE57yTndEHMI2ttGOGosTA1QV5QbB51RL/ESxCVp4s9U3r/pTaZPJdBXMT4qLHNcqWHpoSYpmLB1woa3utCYYiL5W0Fl51c6a2eqS0EtDPEISOCNZ2eVCQ+4t3i6MbNww/DQ0bru4AExdgoEnW70xbXAbYJjPDMmt2AfAtuOkY/SzsNo3PEoMOkd9iPgCGzrgh+wFaQwVEAp4/ICc0Uv6dPFTHL9xLFx5vXYBDkRZjl6dsmYuCcfJXNmLBoaYeKFag7FB25T5jTvN9/T+PCetNNNzXDfvDPjme67OiuM2e5Vjac3+VKkXtvZliBv671olrOMX8RQuTC7Kx1hV+83LiGeVD7T4t5Zdd8sAyzIfOalBoT4vA7BO4cga8x7QUeSMh5eXIgT/5Nu6OO5FWJyyvLxfKDLSoIuEbghepe1T/CKhhDs1vpMndfnKvOHenuMKfLsHCgHDk0H0yMMaDc0YE4QGoA4P2idVyY52ghTl45gMgugZzoFZrRxCG06zOrUkinMaJl4ORWo3gJgrHzQOjP0pgB7Jtp5K23l9oirBNTMYXkmmSzUurf5Z/kR9ly/poOJnWdRL9nh+B6Nb8xeglO+KYQEMmPN/quBQIXvymQjHBrCiW/csFH/zlMR/TAFM5pyoLtDcdBm5LXpPDHSpQDUy7yi+ZXXNCH6it54Oy++mpYENk0S2T3C72MT5ChGEhUFhp6eCQep2x8ewtcWikkmBIg12hck3BdfmZJJPSctrK2eEnI2lPD65JrOqmJiDD8HHCDUIcyVDhFH5dMW4OQAcMazbIeb07Yo3j5By7JMNqUL64DNG1zkDXyYP5SvL1tbPrfzYBEHfJEs09KwaB+9xC+uvKXjPD57UMoXXForvqTO6ZrKh9DFxg6gRbuS56ywl3ASnWNjmYlHjo8BjjHaljpIZt4xh2nswKdnpUWDwuB29QbzpWZ1Z6FIhInDCTqtrefjrDMnfAplCABE18ycMXSG30KseQ+b7gg7oLp4zIsk7pQVlkJJZ4Qwp8nP3ulJAXnnKnKqNJQJ+BgK1GeEzLFQ1jhLsIRZwUxOKZmMtx6G+og8axrIN4164J8EERR1JsuPOYTTsube1V6D9zR0PK8ly9nOolMaMdBRPBRYR//+JEGG3mrJWjNQHsaarofR+e0LTeKH5MNw4kGvQ+dBdMFSFDrQ8CFv1p4RXjaWrOtCyLc1WeQdY0NIqSzMGz7DEUIaGzlmZCYjvAg5bihZl99wOLBJC88HudquXbTXh62FS7ktmi8vl/KRtl5+IbP6Wy03facywRgbCGFl8hQKkHgXl0gVbzgeDTop7tkmQG4b7ouuy0AwMS43hKh6zIghzDUyQPQbEzupbZjEsVMeuXSEPwQi4g5aZ1bt9MIvvJi98YH1qBHMXDqzNFGBj7FuaDPmMTxJVfNLgQ8tDY7IP0rb++McbbW1gsBtERT9uYsNgSfcgm2pCzxCGB0CadQZsl8gvqQieD2PVUKpzxi69Ok8Boci5TnAE/Zow4fizulDfO+9Mlve0fzPGSko+C0UQ087NDyKe2hBTo2EUCDEG/pZk/nGGVFU9DmZrTNiwCwiJLaSsV8TB9nD4VkZmZ/qvnHRe2GOz0gAJ8Xlc5qSpdP0BXD8N2mi2cHLRVoaigmNeA6KnXQwM+GI/IKmgEv6BjJoPEl3BJGpsdi7oTVgNnlckvn8iQT4G431r8uiuCYJk1flkXalbHpGKLnDvLjYHhnPdJqxl1oCIIGIxmTJQ2a0hRmGU1qlb12OkxMncZjoD+MQSlVdCMkxE8YWTaVR5aX2VDHl4KUQLjquGFEK/0PSlMJ5GDmuo9p40J/uOOPlXPFwGvFa10E2dOZQIsoV9SODryxKaDmrmpnqd6WRF6WdWx5qn5Omh7k/tCCPQr6hRtAEsxtjVVxzWo2joYBOPkCgY9yQ6bLMbr8MbO4PUyBg6dVSkyaafXKYEfX+MHkMJR2o/OG4LNuocGhal7Q8kAa+iRDrHWJ2aX2oA/O+1tBgScKt7dNlR3s5ZxgXk0D/HtsZYWAPbRQd0CbCq2DMZS8B0VtU8aJh2ZZJJwBzwXQIOCYhaXARVj0RNPDreOBEiPPtQOMB8z4ZF63XC15o38zXSJWkZfwcg0catD30RfZWfH6mPKMd5bOmrdEIDoqlKk2/VgnO7GzA5Cp140dGmT40c9BPmWymV3ysbIRWruPpml/OaOPNegJfh5NncOh+WnM/r2to+LYmcV/Xe8cX9JwnZCr6sbiHFuRWc1J5aF+ovSFtcrOO616WcL3Ph9KFnel2QHBUXwhZVCRhLT78w25UfCuIg5ovUkcew5gO92c+gbsSXJO0+R2EJeQuy4UGpxMLF5aL6khmC68ffi0hRgv/qCHBTXH7kpKtqpL4YwIKxkAIaRwsHTdSJYJOk+UmJbVAxl1DCoUhCAhrTizxVpSXglTzeUomuAY0MX7hVJNZEDF98aO1YXCEOEziEGaBOx8mcULwBEQY6d3CVSD07LVnRZu5Vb4U1D5/OoKaXjhSQ6IdLYQqSzgJF/RUH9o81mlrgHBgosNn0Gzh1TP1hGke31fu2yNTGU64EDhgBWqH8olDGJhExMRGmMGbFNSJMHuFVw0MPZSrhxCvCx+lO6ddfn/W4Yp/eVPHOmmCi41RArdZbT6p+Ubuj/ZrHnm0pFFuGpCGnhHJMNX3mmm4oVbYUcSSakYne5ZFwcyo4TEFH5VmCv5zuePkFexXKRrwRBjCy7qwdpwWTbyXe9sTPrL2I01mfa4Z+MvSwj9KiJlFt+A606ggGB4t6xllcYPvZgkEKzSA+M8Sgp9aTYEI1mHZKQDoEFzrVTgQdPLDIbCtS02Y68D4A7+gBIrfwk16+cFjIZUn1pkjPtNFGAIYpjOCzXg+80+6U8ADP2N0BEJpuvzpVELgyN/aXH7LnotQCWoLA4mmDwCJl8a8g/DgEQ7F6jbgYixNoC79Q8fgDrAAh07aiV1gmAOUq++kJBdq2xc0Wfqq3tH/rfbhv6exMR+sZ9/BKAUUWB/t95EFOcsu2suCWuJdTRjRK11SqT9T6/6gac43VbL3dNzPG4p/WS2gN/yqhu57R+MZYiiKkhryqGIdF67FcxxBbeHb52yALD9xWZqkBSFmNvqeerYrOjT+e+2NvLwzWS6vjpUfZT/f0oScNqwFg6gCQ1AjF09E6TGWidAIBzsLREvIPtDUD/siBgLMgBUPHbOFZQCi94Sw9f7hsXIb3+LtUzzc0zD+h0udlZP3g1ND94AbkWSUMPdpEkEkpOwXJMQXeS9dY+L3tRvwopYy57VaEvwX8D+FF/u8xS+t51GeIZsdRxc08HqgLu+COO+ythx9pueburQhqyyrN7wvmPPikEX1Rgu6ZjQppjLZFMkqeJT8R6V5HJWT7Xgc2oBFM22q9TbEEbKaNRZmQmunfK+lpMsS5G92tmWtlHJHS2MrqhcEJugcnUOOZb1HeqCQwKO1QguDB63ZTYjJz4yzzWvDhdagoZnQgsEGnPxo6RD5KDXLN2hJ4GOMHvisnsCjK833nMkmfU5mARfx5BcZDmvlpGH6/2/vPbvsSJL0TE+tkEhoVKFQEqVFi2nO4ZKHZ/fH736bw+WSh5zhDGtmW1V1d0nITKTm85iF3Yh7kYkEChp5HbgZ4crc3cJeN3MRHrTD/+lcDrJdyc/+7aYMt4PMjiJNbU1wqh4aNUxvFQJ+n4X18aqGlJ5+O8VsJzc4T/YIDdqpZNPp9IaS5T7odH47OHu5Wmc2rUa2aeaQZ08bGfL3LEuaN1hu+hhN/AZbefWXexoyWrS8/mIgy3vbpfNeMHNEV/sSzTwLd/4LLPqWGGdV/8x2qgu08goNfZM014ing8LsPmhsconxWBAa/CnNNwgauy3tNxb4FDxVbrVtkuRR5Srwm7TxJk/xrztzaGD2SjORpTb+YXsPs5pDCGknO03bDoKwB/rmkEjBoiBhtIwEIAXf0lPIYhMHvlpaErg1weUY2Pya0Zqt3usUppBNySCsOXGG0HNfE12RMKSJRIQr9D7R3FyBjzAfsMIZQoI3BJlURT8EPqvarysTH6C1TiEZ2UnkBguITLouqGibJehGhTJv0RvBgHoL4t6fdRtSH8ZJr6+rbewqEWUNc5nOxDSdizRGdIb3PsNom/HQ41l6gINgjswd+Q1e1f2cWepPry2yhpxPR7q6YH3ePpW/vxjIURn+WC8rZYPXub6PpOzQnX2LdH9LF/e/EOLf076LjBHfoPFvc/8TbfqZlx4uI5XnSM/WUzYwpIZmjTwEZ8hAy3pZnKDV/N3hibj0huJtfGqp/YwK/Z7fX5iV/hOz0v+CJv4DpvUtDoxnYhoG7caEio9zxilPnCBJl0+3781hApwNf0Slv1KnsBiR4Wo1wVz5LUPt4sPttTPLdPC4BJCozuVGEjeRFL3S5gFEilAz1njXTON0sx61rmznpNYs7SZo0p911Z/rx+bLe6+VP8L8Y3JcsWi0nh2haMW4dom6MAGvk7u1rlta2PTBl64+putd5Su6WW7S6eh1+bL+8AC/tK2oa8xRfwoxzwZCfAHgvo8p/QFbMd9CG3uET4LYdg/rLY0nd08EZIsfVomJ6nYFbt2jWdcxIV2ScsPG9yzAHc4tYXrNY37Ptj+BhA3M78vsc36D1fvLCweY3TQeDX0OTqzBLTW82udRXWnSR01f6SY17AP+SshVEDuhB0bbT3h+wPMdk1a8qNW+BcA/AGQn+G6B0J/39tttwHVbG02x4xDCOZ844hRmse3DOzbhRNLt6Bqz0DHtmUHjGpWw0tgK6bhTYCYdYPaliwmnae26s2Cuia5KYufgBosHc1WKvDqWtQ5jO8DwC2KFv9ykv8Inr05ERZmRVx4mLa9FT1qT/oozPOIHZUfiiT9Fw+Bh3olkR3hzeGP+2DwTKDXssF1EE/+Kzyn9hllqQXwGK7UmuJQvFd/Tdk8M5GGFBJ4z1Jdh3gd0zXcA8SYN/I4n8rN+4v5MnEelngEMV2nRdRp+FW5cAcSXkIQLCDcz9ICZT2iQXm3jaQoKibPeAYXuGhgZVuAJ72MMRn3UuN6n5sVs4p5+qWExA2K0rEAm8G9sD/0W7cv5CO3f0Lx/9I0M8t/nl10cpqxPjZ/gzRV16FFx/bG5I6SVNOHQqt1VcDlO1i/Ybbv1MMyJsFhaIq6uAk5tWM5nYd7Unvm6Zj/mrFSZJ3aKRXnW3wohePxVy/usFFZjagw8qg/xkY76FCAyX4I6NXnmd/eXS1vpNIvdu510DRvWX1rRbujXDHKlz/yZz2ekq7IFYtY1OwFnupURWyRvopOKHPknyg8aSci8ppVO5rOehnVXwoN+xGtOd37aYrhnSbh/4vrGXPsSIGtSX1x3PzWKjLo8S/fUgFzVpD2xIeRTumg/hvU9gv9nhEFTOtZG2exgo2+jjd0GBw54w4eXFwg8A2fsCM5B4zycF9SCe4MwP420ypXOrS0DbOcNonfruDOpSR+XadbfpZFNpOM+dfGcLDZeoVlZOuJ6G0m7BZJ+pq63Ae0t0t0h7C5DBg7uaD/6yPmvU5OG6eXuqkM0sFf+C+p4bxd+qI0VhG1BbuHhBLiiRFwnpQIDOQnweqtLcHYgCtBJIMEXCRA8141zk8gw/aigSFZvKNlBuDyYrvIlvV2k2k5lF954VawTVOwFp4w03c2Zwi44os6kVUuTJEC0y3Mv64OmA+oMT5PaPDkejgP8qiqEKSuWZ7qgS17zB+C46gLAXNXi5Wy7tbV+pt8HmbGbzECcSaWXy3R9PtOaUZrhTMh/t/waF0V0HVLWy3KhDX3Olmx8g6DdwJz+7PoiO7gW0cakijKz4C5rR/zpXZ4akKtKtl+wXaXVm1D/gPHCTTjze0D7NWxdRajtfe0z7yEcP5KBl37aAoxyP+oGvwvEXwY80rjMT7NbIAtytbQgXiXMrW82gNvRQ8YbD9CHNHiuBtO7o/Eoyzrq7CQVCAVZQXWL8yaVE8y8UAV4ASho+wk1yFuU7SfCfuqutxBUx8dOQvkxbJJGgfb8tsMPhceL/AFmhJAnWIJoWnmQAM6e3exZMyKooXvC6S8iXUTxJwAMfbWynYAur9Cm/tJMx03nD7OPwKhfRXfXmGSbCEsvhQdnxiPz1UMFl0rwv5zl2m5BV+FVFwERE3jUp7Zm5jqw4UnEvLrKb96qb1kR+ofpKj4yUmhozSEdImyFQbAx4rn0jjISrCkTFRF1iFy9FjbOPkw60pRqnmWdBSp/dtKXEMiPr86jiflqBG/OuRGk3LMCcNF/akCmLdF8CXsvmC/Sjs9ZY7LX26EL/gNgdhuiy04LclE+8IBNL2PcxSSo1BRM+HLwegdcUkjPcbNA1pxUO7NdlSvaPOL6HttGGRZAsRjuddLeAqSCufyOeV0ic0IKSzk0oRNZ9whXMwtoTeotwgS49boPwaKRrZWaRP3phld3axXgjAN0XX1CGEmq2Vwu3zHO9IJZ58fIC7gZQvu4GYYVcCI9NNMEr9R5HaYZxXRVdaxdTvE7TjAmx9CVp65l0hcLBMZIu1UirqYzXA1e9SqgDpKN3U6m0z/MkyDsywt/1z4JDTX2iDDPNZ9HPoT+uY5SRKcSnQJJeBThsuNw9jpXHdyRdwng/poz3L7iHHcP1tNBPtwrA2RrKyust5X2Xg36LmjaRvB/BASur34PmH8kNsZLpiOuPjfiOFT3N64/cfVVOebBOodWhrAAPUOIvzVAbBlr/AR60CFcQVylJrJS+pJwWUEgb/J0BarOhyZIbxPm5BUn6pDOGemZ9oPh/JImN51T8HwXNo+ZrVDjKw3vRlMXH3CZzAp/mnCpaUr4QuiRkPJLTZN7W/oD8O4j8b6WFzRJkxNi1qFzlDekYQdhXAxl4pq8EKzDdHgDRCM6BuA0S+VhjHHjqr/rVcJfY27pMgxJDhOTPNBMhoXk4Q8/6xNmKHwPbTziVWe+Ez9yZEFUuvKHV2klfekl7U5rUkZfO8FmukxfZrnxw44PbzhfnKmOxnjbrTWVTk1vp0g5kIx0XVRsE40wJrfYcvk2p8V8zPE9H/J7i/eNPZcrxazq0pF8RpfJZ/jExfTsTq3oLLbf8b0FUFxC+Ee60R8EqGMmBNwD4eSbkyFxE8eiAHQ2t8ZL61Ej0pOWt/1iXVrNLeiW+S1By2/s+O0dH4JOvwLrwxPIkhagAtmf9Yj9vMQbZwdyh3RqZ52CotNEPurhR+Qxf/YxpeforFYoQ0CPZDbS2/snSGrvcwgk6XL8yA3/3fe7F+DNCrm26/pzaGtpmsiKxy8IR/sKpKWp1MpRvmSgEZNUmTz+WrZpq72ZX7rj+QKVloWzLmkqw13aGXUQpsRX+XYgscJG2kwPz0GnoCrXa+IMi/bHLX+6dvnMhnUp+tbZ8BGwIl03BiYqTXfBBx87EEqr8lcdqjjBatpw1Q68ykqUQYSTVcUn03kf1STzFV6C+Pd88+zvOIDxGju56tvG5nlWs9TWYeieOpAlHnyWIdy7k+sKHPyIkmSMLwhoxt4kbotHq4moE9AL8dTMRSI4r7A7YbIlRYCsUwA2+Zk2BF5uQqe0LB4cwkawGlGN6qF6joFLY5uitL+A09nZpLMszfvuZQECh/m6RGMXt6YK+OyMeMiOi+kulkOQIDaindlSEC0vgZSh9deOKesSs9vwKkxEomNSnKvWgONn83uvG3Y4PlT99eZTvIhBupzh7ttpPYYCIOd9RlE/7vWnVqaetCedz1W/V+cGeG2V9inYAXCuVX6XIfhnG3og9DyxM9f1cVWuTzU7/6yH9c60k/7kdh+ffqkW+MyXHUlMfnUsSOxmnON1QWsrLVf+WY6dseHRKeMfuouYVFf56NrHnKb6JbNcH8YZXBxXbB/XlTFM/yzvh8/xmZXjxNQHzqzAlB/oxTVZfVvlLgyrBxmA5qE6c6z23WV7mN/I2UUCNN8e102OIR83/zC9D/EkMA/rX3lLc5Rm1D+uFeppn9y+oAHhMterjOH1qHHxMH78/tHLHuY7aYw8TCt4qhPitu8guM9xaZ966A9QV/X6JGP5DZ7kZ5VVWlS/z62AHfH4K12StqAsrNIl6AV13xFkN5bpzKdpfXllrv2G7Ze/vc5hAWzFvMTaE4e6Boizf3o2a8ZZ7/G/zwXITm4t8qSuUfbHcIS9E/Fm0F2YoZlcPblVE9gFZs1lhdP0RznjYsxK/CoJ1NTp0qyN5Q/i1JirXDe1r3A+3Ogs0hthR4HVsOihB+lMXL1zgspIenDSur6rQLrEVM5we3fH9qXtBHOmq1QIDPHjIK+4vDqMiGFIeHMCbTvaQ0dHuZU/60FdunJTe0GbfDXmLcqxmWTQNmkIoqpH+aN9hFcn4vNKDapW7un63HRqt1yaCm/8kSUJhj4s7/oKVLkB6qhLjn0FlOX4rNN15ZLVOhbwusgAYICS+BqTO5zKdWUzZJnSqzLNK8C1NJKXpKGdEU+4suRzdEjmcuiF+bn2HuPiL5mh/vTN5XaVzQ+e/davFz8/EFv3ZwbkWtdNlqVRdJYH/Dkcca30NlLkcs7PM/PxJlA8PGuEKzALQHluRzBuOmc6/2oaa17eJ22dZ2UmJ6x0AVD8W1gFpVV9KGWe+3B0OYGlGT9ugmuWyqQt6l4dgMBxHOj4i+SxYUUaptOE95VO6XooXXQmRipZpA0wUDVBrXBGYFzT75CgwjSFIx+XfaRMMOsUSLfBLsG/BHPOFVClcLF+TPuzHvKF9AqlsaQp4bW+1rMAarTtNb/r25XOcJdXNKkT/HUmmG3M9JOdhIAoSyrHzICva5usGHfZMOsXm2RoX4AJvx1GasoEr/n0p2mvr+MjvB5q4lCLkE1+2iGkaZ058q/lBZ2Or4bGBh7SCmLp+YE+mea20kXmbbZ4+eUCywk3eDXxMya2Pn9zpb3HaZhrCin5Su5J/lzdMwPyZCvklctHV3magvJvbGN0dvBrzOd7PhoSxEMkTfXs0qgdTZP0hv4EvCV0wA0Qpz/TJZNNJwhDoxKtENa41nRqM+sx6So8OgXipZMnSjo7Ow5885p+qNncP27vn1oqCyiNlZNcwxJTiBUwXW7CGK9YaZkYMwPmtGicM0g6+nP9WM1pIPkLHPAmtVgumwToM9vob9Ajfbpc93cCL9Z9yd+fCUaKSJdQy3pkruwg7QzgOcXrL6BmivrbAzDq1dWztHfxQf8QqBVfVOwkymROgOYzyD3a1ZZKLT95HpSVNa9weem9f4iDjwno1OaujFzAdn4H7fslIP6CFyKun+d8c14WKE1slhfhnjmQkyXZNMQ+TNrLcP3vUDe+x+xe7O+Q+luRBKEZCdCDa6VPk0GCSw3bm2u/jLp0ApSDeify8HfkAAA/9UlEQVSlFJ4Ef/90s8fvtAgJQ8An5WxQldBMD4kfJI0OpMA8DB/e15yEYQGSR6Q9pPE498P6xz0gEWjp6LQovwAoUL1PwD5YsWE68/dpUwkY1ltl+sZd5u+fhbHxwtKgDoaZLlZMQKVXO6td9s57SMb1tcX22aXl9u/5UN8n3QHz5nnR7pkD2QbKOh9LTMVzdSb7OprMsc8PMaPMri+493UHBsevQ+dEkhXtx8CpVQVijgnRRmThy6PhBI8PVA2fS1iauGhR6If2jtpk2nhQnd+Z7Bg743ePd4zlfZiEuxSl2V1audIllb5DiLVbyonhQUWSr+phkGBLoVbjJpgNNyxM1LH8yQs33fstonKl0XMHmFpc7TfkR2rlsgJiprnP3pFJ7dwDKzsYO1M7nNSigs10uaxWp3WWVk7tp9mrbkvnurLlWqZO60T/8IWQiIg0xFOeTgBFPeFXacqkn+F9p2t5qSUtIqwfb8jXW0JZtkObfo+3pWS4vNJp3aTZnUub1sHn0LfG4QY/Aq6xyeMzZ6jZR+17xlf5jJCuq37cv6g/zwXINk72lRzJpFUY+AZP6e8XeScZIeErMO1rvu3ky8yxVET80ClYjvV6l8ISfpJGnu4hCRQB5QSYppGlx9fwEMihKV2VKi0mSAPM5CjGCGKFaQs6Nd41zuWq8XXmwQRbR6doKMQKYeWXnpN8wRHoKnzljLNeaqq4x+M1BHQoXaYL+5LEocIQ7s7eVMgFTdSTZHWdNKOTPkQhMXJKJXwqk7/qYPwImNRZU1vwbrPuH+ddDaRZaIR0Q6fWkfUXn5OmFHMuoegaohNIrv8XDfr8uC/T2vVowVd0BJ+iUeAcvYEV+Tr2RJ0NSH+Z5j6blBHyc+sLatI13rmIA4aAy3Sil1cX24eMhf/jB3z/mk8GXfCtnpGT7vOd3BoV3d2UrE2GPxN/x+/gm8w6y5N5h+seQvEDrzXyTj4vWBy0P/CYBKZj6GEFY0lJIgoAvIvJJnwhSAb7NMnTj2GN67QsV7VJ9upBJDRt0OIh61ZMC43N8CcQRrt8QlAzneWO6Fik9SHKsuwMog5RF8Ny5n00Vg0RSW03Xm/zpRAP8yucats+f6YTaKWlFUa1p2NmwZxjWfnT54u1Z9JZ1xL40OIRljQFigJsh+NVwbYDiY4g6pHC67PbF6ym6tqXOQjCLVI380U9oJ/pBcikVq5ODOIDZzrbm9foFrI+0ox6VPpgdlcTw9Kf5SXQaxJOrZ9WSy6JVeeZ8w3ZLs/Rlj92JDqtKF5ealfZ3P/phSVeTVxm9xbfJePVxP7k1iy3E6HM+AL+DnHyXIqXR/UYZLgvQ7xFLf7d4n5b3Z1t/w8I/dpdXbGpIpkUk01Ru2HuR6tuAezRUj9+qgLuikCnev1GkwSAs90F2BSQFJoAh83hN3wItTFFc07+jLQL9+YvEOI90hWYK7LoBCAtjwKle9R2zcrz6FfbUk/z5FzW307H8nVaDXZABcC4JexhbbRzic6NxGri0tKZ9+S/NQSRTjwJtK00cnLQttiFZZvWSHSRscuHfMDvP91YaZ9zuLynYBaIn+fOrZNaNpShk9I+tXh4GKyCh8HM8wj7+53deUdA4NTM39DbH+eGM86pIZ09Nr3U02Wa1Nxh2vrAiC4TL0HY+40LTUu6ikvN65gZUGXVgniMmUnvY880PZ0sPTViaSwZXWPBAqQTZVqQDgPKKdi5LpxhCn1qpw7EBKd20Q8QaPI8Y+foGDoigjn2anftldtJNxNEh0JcXAfAifFh0eAagOmqFhrdyobDrLYe5I1yrQf+4qt0c6yPZuVeOpG+41+Wy7gTv/n79fGkYXwCHK1oPSlHWZHX5YIvxPVg9pXHLEBg+rzsvOr6YPkQHPHd+Zp0zlT7XELBoIk/4jtgv2bTx2f83uF7TW74UPt2YtrlevEX+fhCnGxMtvOw8Pju8aFPDXcWrfx/7861PxR3Bwx3Ukv4r8h6OFoabJF7GxPrw5BxMkrBSoFIuvmxsRQeqVhcCYx+XU60YTp3QrvSCet9hESh0CmYW8MGRGhULNoiEGNMTToPRVAj67d+QzBXtiHInAswne0qgVdoHd961RledASYWwKdCKuHqSDvdGBW8+oiHddcVzUk6+udJrBt0iVACeviq9zQ6CNxz/pF52b7ImfWL9eZk455dY5p4z1jrv2nXo3p66BP53BA/uV6dlc3ws1Pk9KRTcvHdtbmG8fMRS/nAsqkz3qZTl1Ry4Yxe09Z0rFD7Os1GwdbcEpP+4h90//n+6toYg7P4xvYAWJokLwbVr/YcXEyI//Wsx+GPbd7H6Pst7d1je6iDyvAPMt+bN/55ASOgznehuK1QpiernKlT83Z4R8hgBoPbKitswTTWlK6YZ4KG17dZOJYuTSt2sbslS8Ahr8mu4bpovOwrtS50le9hmXUvbRjowdXJ8Ayf3Yw3pdpLNgL2NUU/aU1UzMn1Zj8Mb2SDh9H+QjThLRjqdnnIYgzd4LQBtc4Mu+hNXCjOIKH9bBupZ0rfPL95SJj2VojyyIDlxOACeZgOGHDcqpdTkIZ7/h2FE+IzdVpPucbUH1+tXo4LjkHAPOiI8nnbCfh8/Q12WtMUd9A+/4KAGtOv8fbTIJYOe2qGnlHIonvRbsXCmQbLzs7Foc2Ow9H3wtkHnDSyEz7B2az7zGVaE+vgNzmF7PRZsatIJQSKc2coc/zL+9IU1zt/CohfpQaKOiOGZ0OEJA+jARarqHbLt/ISo2cy2nSLc08WcYQzMfVQ41v/tCccN5JQ90Q7NU5mK7X4H2a0t7mU4NHej2/wNmh1Kx1tL9HyiNR0yqIenLtzezjs3YjuC4BnQHlZcfAqgh1ucAs/A02ePxf7+aurTeY7XqZNXG19IUD2YogCwHmoWaegeOGe9D7Isz9I5b0n8K4Yn03usLMpdZK5+FxCjvadBSmFtUvjf495MqhxvQNJY/sHXf20mkOWgtNPQFgLRUaNUesM+NP8NnLm75crVv3WlwTu2bhyyyWttpDV9rb+zL3bU/uirJB/SRRjpmzPrXubP3szASzzqOTHHsO15kzpmMOlwA7dP0vGMsMr3aq7RIkfdnSyLGxM+VZr0yv2Syf7FQ72lxLK+e6uhqYOplt5HLnmN4SxmjHiN9q3QJ7ZrTNNtN9ArF8xNV66tcJzNiVxbVOGHXpsoYLqblTE1t3XieObZdq4vcYF3/FWc2fMTv9bjcmfpk1cba45135X9iV5x9iYQVyzIxpDZiXZ/baRaT8H5i+3fEDPDy6H5S8eJQc78oDXya4hKpAXMKituwGNN6FizhIeB3uwc7YNPdmAB7/o1JeR1rIog0mzHBfJywBzBj9KeTV+/fxPZgzrZ0EdwVmOeC9YVoaFGK5tjHOW64CurjwRtrUnH051BfhlC8Q7GxOaMkn01NAzjUQ15UdJmrEEcQ1tCzRWgRRR8skX4ZzT91c641lMGIEqGDSjcCb3qhCLBsZF2FdQTxDx8LlTJP1yhDbM6JLsnoG0o91ZpMFL/LqzkH/GyeYPadr3xUQwtyq6fMYLz/reh4kX0cLf35pvv0HllA+urTQrrDZ41XQxLJAN3z2GfIC//pI4flozHwBidJ08iULTxlZZDr299x/y0P5gXAffGlBx3219EPUyAkCXWnV7O31CxAipNGlMZ0PPcePdii9Vs6aJS3HtHYcy9RDoQrNEPkIN456lxBarzRziUBwF7AuRmvTFgiNAAp3pVXjGpzo6k5caWlz1MSVJ4n0EzupcWpCLrRYCLJ1sWOBX6ii/ixtKZXLckgWWtU6RRuscpd32P7U0gLXMjON5ZlWl/GReRQWO954dgI/X8jI96MjQ+WL8uWDfCx6lMFziAmp7jkV/eKxnZHP180n9l0jExtrzmdYu7eMM108d+q7QW+3wRtL7/D64SdMbH3BeVtfXFto11hi8jA9i4tqRCVfnomt5Nn435cKyFZNUSgRUGD9ruxbBLpF7grIXXX3F2NmP3UpoE0ck0RdrgLFeDMf9CW4Uvsbe1QnYLgafSQwBjzg+jGyZSuE0UmQzg0sYd4S7vbRhRAzy0QzI3Q6rQ/HiCm45u/vI8Exf3ozeHyJpZbISjvWuLnaq6ntVy6G+asINZ5j3mgv9+WccHP4YbtK21bc8Gqcbqg5h/64F3Sm4Sf4a4us76dXvB10utFNBTxQvvwOK6FLoRkMfjuXHW0UxtKky3R+XdGrzm8z3eCQvM/Zbvk7APw+EzQXmO0SxDpBLJiVyrx6/3K6lw7Iskneyep4dYzrORi7onZGCNkz0pawZ50IW0NyfiK1R9Hma4lqwxQ4snU9r3e9qzGzIamte41oWI5VCYPOcKym5i+zXYEtDSkDFchYipFA52ptuMxsd43FkhXx0sllKRqDy9nbuA2wWLZpLLPak/XJNNY7wZbaSm4FMMgTy0dcC1SRjmLiGpyFRvnL9E6yozx6M/2D1y5pB8QcO9v+aGenviw768MNhen3FBE7g6i79SRGS6aWqGr8Wp2J5cjjbGffHsOL/1o76e/aHz5LzHVhz+NKE3xcU5+FmZ54+R7nT3/Giw9f8Pvk8ly77OFvOJtRbzO9CiC2zvLppXSyFH6G895XID0a93eYh5cB9TpSvoRm/npmrv01EmMGc02QZL4ao+pzHVdnWN9otV8Eh2bMO0HCOjBCb9rSlJpo5gvNypPWrzDGLDNXJ3rilVTuY9IFuiOznrD71N3D3m1Vlk/Z+NLl+WTeC17Nv2hLRmY55BXMujJPk04KsR2H9dHlkpJ+Xhkl3PZ4bG/lH1kt1OlBR77QXNneAtP9oJOpJ835AG20KytY9cv6JIN9f7qApwWSe7Spa1eBUd2hY370aoyffd/aTsJD/zN/9D7EidK+9nYmRSOtB2jI7+C5CeU3Z3Jze55THr5iPPwFHx7/go+RXee1pg3NDlwUDa0X9V5x1uLx//Yy/fh5n3kO2e8jFYPe22GucV1AEj2D2rHzEms3q9hif+PBfhuJ09QmWbgYGxs+cCOAdeGl9SpJxOcTjaDUIt3YijxDrV55hlfNcYFoJxH7w7vIKqeuORbPSuSY1FZmOQqmLsGf4RHAn5jppn5FR3+lN03uUTY/+UhnfHQ4QZJ7MODOLx9+ThKaa+iG9fAeN1Fe5ku6RlenFGauDyzKNUZX9cs3qOxoUgMLboFpHQWwafM+6RFHWK7D53XUCQV/urqZDVdWSJ1VlrTgB/U5S5vPoaIvcGTtDZaUfnV1oX3KQfLvs0Z8zrOVcVTZv/xeflPamg7dSw1kKyqLg7+DWmtWf4bq9f3QS5jZF0j1X0j4ezaPlHPjfoCYAIVO01ZXrzqmr/8rKMr1wlIhj3cdmX6U6xnYRzG5QPh4lB+e2nITDH26YTnVRttXYDZlbcSoXNa352SGFu0hvUo/vFa6YZj3ud7rSSVpBmQZflQun9Nk+gef+niKWAcP5PUPrm97rg3XWHmDl44vMDP9AZNaX17g2FqWld7nhI8r+Hm9GAAPJezVA7GcOUrGxjn2Evh8VMVq790FtsRgUFNWM8+Z4Fk+3XKOpYbvmMjxI+Ie8FfvL9cs8CRAFcrh2LeaqgbQrI44OonhDGoJshpXV5qozD/DNO/jeCLuZXDO2HIlvPLbRWX5zGR3gqTfcreckCHevG5v1PzUX1zIyT3rVfQAg1oXfwIJ7YZ/NHaVR+TPb1JBphyYCpO7/N11nuGLE2LSizE34ZZf49k0t4kXhISnvwd/lZvkql5Zf+Py1JOMjeWn4KVaGqe2ptzkW3e1UyaN9SnnMUbDcXWFe41XJ7luQMSlpTf5MuJ1NbHfZLo8397leoHlplUnXcZATPFRlyG1V+Nefr0Srvg77D21iK6jOs4geFdYb34PKf4foOFrfs6CCuZqYIE5j9wFpDF2AjjQqDTJCDUEQoOgaCIrpApbHXSXY+yade7HyjU7LQ1JK3SxFKRkSA9gZDkKv1owN7CMl09CO5HQ4gi8xMivrE3Im8mCbowb8djZjNpBnlyuAVyWTRWsQ3VklU76NczgNlwORcgAT80Wx+5yE9qOqzTsLKQ3/iOQOpiuTP86psj0h3SyhltmmP6k9bCCfTrh0NaRT6J00MTtBL9oFyHW1/Y5TLFS0SbT4aWa4WrPdfpIBkbPM6H1ybkllpYYD5+f4xD5Wb6U6DeayEsPBckYC9ucV93VM30l26FQOPZZZpx1hkHfGk8v3iFlqeECD+kSv79w/3OI5GQTOwkgeCjMAWKerAKkUyuH65NHeoHeO4Adnl4kanO+oByNmalH0Te7ABv5e2IIbpqcIbWEp9azvKTvQ5N+7ibL8Kpvksm6Vb6xK9Jb5QowO6aimwChXvA03p6yftyH6R12apYv30vr9lq5r1/GB+H4kx9yVzNnvXKM7Ex/55cepKOzCNoAXs1s7i6Pt8e5ADOktNQWmc3icMt2blHgcqIHhwF8fGGufYgWvsSDMN4Jryz5OIqvXvgrB+SaTSxW+0AUHF87u07vvkFPe50x0T8T9s+8AnQIkL4hkbPM/tKpSb3rH+cmINEkLiGvdF5jXF1Z8WsKx/IR+XPMLagSFEVH8MrcMv8KLEm/L5ckx7p+AuzYJGMR43Ufi3rAY1qdHclRbvhqYayHd+AeAu6ofBVf9EdpKMc4ndZCgjhNZp+DIK+8pjF/WB16Bq7Ans9OgjYgCQtSXh1u76xxaDzj4A/RxL788AaneTgWNl4RGOWwjAHtV/n2lQPyUcy2h0XOApzrPKZVhGIW02zJWW0k4hJa2aN3vyPNbX5OlCgo7swSLJ7FpdZw2ajGqzUGVtPWEkmKQA/2WCKiLNeHExAJ6JEWtxx+IS5KTzjLTJArvHE/issUWgjSUJsbb7k+qJqUCvOX8NTKDhMSEFEHwjXri26NLeMKDbXzqB1BP60EAgNIYcqSv/IVnXEwp9mfY/dso/UbWgXpj8pLOrR8v9EjguKPW2F10upB6nBGxzgfEnawZQVEMH/cQ+1/mt4Y7sbE51W+6vfWGSay0L4fM6n1DrOhgnhdVY2zJNOHy+yd59W/vPJA9hHVs6nH4ckONxgH8Szbu0jIH5Cg/86Wp39B0v6M8H5vQpYiYlkGAgJ/84CEQai0rOvSjsMSqLm22Ze0h9Z3DDgSDG7cfFBnhxWYZbD3frDb+1wLVYp6Wq7z5kSUSzGmyR1llabWXXMpigRkD/By63vSAsAOSGHXFfhMl5NZajzKx19pMh0BFDlKT2Cuj1ufrK9MsT6CdFkG0WO6Z9s5A2nl953Z7AF9eZSdSZZn+fpd1w2Qcu81hE7VqMOff9Iv2E0T42uCtHTcWrrA3lLN+ZGz546pQEBMohuYZB+jgb+8zAEAzHKdB7yeNb1MYcN5lbLoutJH5F71m+Dpq94IH0o9Yu+dMV5Egvy6xAZScQbpsKEbCM81xnrfI3Tu1fa7zbcRBgVknbSO90LLkX+0/zqQKkgRzlEpJYwH8TVHBbi0UV3VMOksW5MuN2cYFsLulfqUVh6QBli2wnTZKseUxsd6asRkXVMlpSYdgkHht/OocqQXY1lopHmb9GO9ldvhbLDka7KqAO4H5axn0fMEEjuAoNXVMfP5t6vzoEECPjRuXDPelOUC5OHJelW4V3kXhwbQhujIKM+Psq/gZwgcy0rX0Lofsj/6Q04D+OTiPMtKzJVgpgXWg1hf5oMlDEt7de9fCyDL/npAw95XTXZmZp+Z7Zl2DtvwA1r7DTM5v0fK/4lzin+PJKqBNjG91VihURR6iAk8TxQJ8LppQVnohDYBFgHdky9BQdiZcMs8XVRmjA0izrLGrq8uSmAUWNwcUi7C8UwCuuLzqpj2eQyLL1vQjuNclXVUvHG6Amv6xv8en7/qMT7O7evX1ylM5s6r1u07vCzLziGBPRsz0s6xxZcS4Y+bf9xsuUa7z/F7F1P6cz7C/UGY0fPtEjb2OjPVgtgirJXX0sJZwuv597UB8lGPp8bOvjB+lgRnearrmMRn6KsVqI37e+3f+Lr5t/vzbRtT+3COK+uOc0iSM8eavLfpCFLDpWZVM6WIYO5xnxq4whQbP6lqCk4C5Sq4DFOzqO0d2/Vg1nx1htp8OvwkV/PG2nOAMl/V9EHVZpaabBu+31znTheY7aBCK5MvtKkdVEe7wJoaFfB2xQ/H1k4G9i+SVP2oF7fmr/ec5WNuo7QcPLjYpeW188uNXMIz1jZmhOVX2+WPHWDOcCeYYzaaPnQGNM9iWpvPOZDLmM3vo45vsKT0KXuk38aUvhibO3LgIPWuCIs7Fe61A/Kw9y058urz9BgXP/G6xkeT/HTNVUC899Ne29yab1vL622bs4vn2TiggN1nBvz+LCd7ch8ff+s0ncIkkPzsjZ9ezU0SfUk5jrU00nnB2RFoKTi5lmd/ZYR5BadCjOjyU7DLhE3QmEfnLLKTPjofmuC0w6izwDI8jUmrGqDyChCkH3uVzVvMCBr8IUtqQNKS3njr5bqsY2K/qWWbHQaMnJ0TdAvEuSXSNJlCerajNnuoeQW76RwvD9FlZ5lbSu3U6ORAL0ed8ww0qOEhIN7d2W/zW7vt7OE+LzvMtM95V/g/vrfSPri80M6igZdh8BKvJA6tsZKDQa1H1X8db147IA8fkg8R2Rk5LGxMbQHN21OEbu7vtKXvbrXDHxG0pZ22dWatzVxYbgfMfM4jIOsMtjdB41m0dUwuHQI2gaFgd4RrdlvZHgGNe7XhsPQ0k4kwjjqYNjWipjweEFU0BZT5Q+NzHw4wJNAEeGrbIBbhCbYyxU2fO6gEZ0fAIsa4QTuIckgR9SC2AJlA00wmAW2Vhm023LpaT+tiJxAWCTzxWvXnFteV+8C1j5OmoM8JLoc2CcboWKjXzO5e293k0Ny799vO3a22Qf1X3JV1Za29ywaC9zGpo1pRXjQw7voSRt7X/ua1BvLwgQ57a/WWu/Nm7u+0+9/81G7//5vt5uFyuyWQr55ti5fPttVLZ9rS2cU2y9EvBxwVwSUdGsITF+MrCwjWDJ2CQuuOsRTkEuAe2F3OwcXxd65bOzGnq/eI0zc+a22YoJP+cAdZIKkDZwE2AVdUns51kmYAG9IB4sBPgqg0el8qwLejgT/WXYBqd4zuAa4vDwtGx8Ga0qt+6gGW+qXJ3a39dvf7223nx1vt4NZm25ZZM2fa3A7PhVUG89VzVQPb75xW99oD+bgH6/h5hgmv3dv32/Z3d9rW9haCstVmb91vez9z/elemzm/0mbP8sIcGnoODT2jIPFd3ENVO9Lm7qPcuqlWEdAJZs3l0VJRaCTNVAWfeLJmvJq5m4nttFZqYsNSCyZQpavwp6mdmh76hOU6Mp0CIDjJxTpwJ+nZ4WSO1MpH53byr4DSp8iyYsad9nsCZlgUXJeYudIScJ1e7R5LXnEFwNEM3lSLOjijnB2ZdTnE/j/EfD7Y3W/728Ce6y5he3c22/7fbre9m3fb7J2ttstGj0MsphlffWOfwNT1HDg1QK4xk01XOP15ykg7QDh259s+6Jq9t9sONm+yc+R2u8eM6CZT3WeubrTli0yPnVtpi/FbbTMrS20HCZxFhSwweUautu1eYsZwjl09CkizVJCorcMh9C5hCQ63Vsp415Rz51ep+9LEmSXzplnrmN2OIvMCHoGA3wmv2KoJ3aOc42i1oGPdOnY3R+OZWrM2wfxg/nw5Y5yqY/YwuWmWcwBqWdvllk7r1+gcYzlOcoQJYH/2c5Yzy4TiMu+Q+1KHByJGh7ez2+7f3mv3bt9r927ebruY0Y6JD7Z24jcDuA8cjyzyrJiYdCLxwdqO1/O0+U4NkCcfbMh9CBsCwiBxxm+zbCOE9zimjRcweJ2qHfw43+7/vNkOLrDgcXGtHQDog0tn2+zGSttzOxG7DWbY0zuLlnZtMwQZwAnL0JwExRpwFM6sq2koRo3rBE+MK0nt5otYmiI6x6AkCidNw/gTtxmemjuiAHFq5pwkq3wZV3/7sW7XeQyS5dhW4lVIXSt3n1ggSiverBKI5NmhTc40x+dfMJMF9rbtc2edIMYvWGeJ08KYh9e+QHHA+Hd/B14zhb9/b6dto3V3f76D9uUDu2jiPYDsS+d5kJ55WI7iDbc5rjO8ruoCE1UYueH9KPAU3ZxaIMczRrZYXWpzSLO/BXp9Z05n0Bh+vXF/b6/t3Pmhbf/tp7a5jtiikWcB8wK/mYtn29K59TZ/bq2trKGnmDqdB9RMtgLQg7bD2WIKrEDxgHZNea++7aNlriaMY2i4al4KfHeR7bimTTon13Rq1HS91tbvlzbmAYYATpTntZ+Yylwn/Q0TmTZLJ3ZTBT0R4iy7s9ZZj9TE1rGsCK5d0dsCmIb6hlcDZAJYMh41vMgEoRZDoA5g7qF9D+5to30xmTGXZ+8w97+50/b47auBN5lfZ1lwtgPx/NxctHMfAM/vw1/oz8KjPMLnpNadnvjTDWSes5pCq3Xe8Z2gFsj8C/PtAPE+YCR6D5MZrTFzhy//oqG3frjbFi5ttf0LWwHmw7NrbeEMkGNn/gJaeoFFVmnsgmrXWz3vwDeKtHEFdLgOICTrTFPNZIHixBcm9AjMokJXGdMXxEQLTrALxLACIsR95v1SjzPktS7cT0gVPYcAab4bF0tP0JIPjv9rJh7W4HIN3LjYzAFQNaNnQbSnc3pSC5Z1m+O6ALBnRDrj3UMq5rj2gMnFHYC6jcbd1oTm2gB1A7iHxLtWFgC2MDUw/+YY+jixyAgGuqnRpyCOhzH255QDGRALWYVRTGj+DRTfDN9qXkIvuUXRj7EdOGhEo7Q7d9ruj9ttf+122wTAC+srbZ7f8vpqW9sQ1KttdnW5La3GAicoYhsonFau97FPPUAw3osGKJqkTlqBZjRPgTnXqQWzGt3jcNwxlpo3Nbjh447xJkBUuzsGdgzty/dqQkeUvp9tvM54zXki42ceP1xu+c4dOIlnmhCOgc3q2rRpHfvKqAK07AnAY4EsAsY5TGZ/e8w677N0tMtv+x6TiFwPGP/u3afVTG61HQGsKocA/2fR3rPwPA6XD/DSHUZZxjmrrSYW1IRbj6kbceBUAznkWgHSNLTH79iiNj1AIyhdM6hQmXQQYzsAT9pDzWNMwcPbaJul7ba9co/NJEtt+wygP7valtHQ8+trbe4MWyIE8woUlubaHidVzC5xj5o+ZPB4CG2XwRxzCirHk7m2mp1LAddqqfnKCf4AH2Exmy3QEfBKIy7yPlrIvYLfdVZBJNuUpnSW7WkI5qlZauvCQILUScPOzn5uR20rr7jf5/4AFbyHNp0HuIJzhnkGTePd+3R4WDG7dwAwvx2A3PjNbPFT89oxWi9oebVLtXOQ9/61XEv3J8jjp4+01QEZNXXJgdMNZAREbRKiiqAqLDP09lzyh7AdqkZxMZbWBJ1lDZMNImpo1eUuWig0y12WT1i2ujd/kxlvzME19CG/WcbW81znGEfPor0P15fb4jKjYbeCAu6FxYU2tyC4HZc77nSd2gkkx9fQDlG2hlkP6+LSjqDzN0s6tVUCN2seWpP0YWWQXtA5wZZNidbGcpj5GI1GfsexpjeNV01ZObNAfGg/OzDausRVk/kAW3qW2eS7d5mYwjzeFriMcfcEK/5ZOjpN5j0XyAX5NhNXmNkLdIhzjnWxADw/mi4x5w5IFj1FABsP9RXUMengNWqTIK92ReD0T3DgVAM5OIDMpPmWwmJYiJBA9Q6BKi01A4Bn0dSalALMD4DpFEdRfQAh4Awo8al5V4AHv/ts/ZwFyHNo7AWuh0yMHQSQSQOo9/jNAOgZwBxmpQNp/s9zPcQUN8yvJYTmVvijqqlVBWPWU9nP+uhXg5b5mR8qS0BbX4nH3ADJNYmN9whcq66WdcwrqA4FrU3zXs2Lqve6A4jn0Kq7jHkPGefGBBWzzHv42e+K1mXiSmADYCs746qA416v3b8524g/mtq1gT7JRlCu12ABbCZdtDeCgtPZftJM3YgDpxTInWQgIcq+PwVnJDEj9qQQpY7OeEGuElY76fzGkvkOHdtxdXnm0AGsguj4bxPNdQuBn99su4D3ALN6mx/J0cpoI7X3EuY34FZTLy2hvfEfCmzWTecX1d7MpVOQy1xz5JllJndWvwCXUDgASJUEb31hUGxaEa9z1NereDKNnZHAPxC4gNJNGQeYyLOMW/f4xSQV111++3HdDXAat0dahyJq2B1noWnnIfezgPyQmX4nrVhSB7xqcxgE8tSixXV56PecrZt/wwHm7JTw0S6d/AztSyK5DVVIUc/IN8oZaU/7n1MK5O6xhywgNKER0BVIi9up05XY4esEK8I7oeoSAWiETY950diRCyHeU6uBmFiTJtrXIl3Ssqi4J1OU5UQYy1ZudtgBwPuAeX4JDY1Gn+W6AJAPALWm9y4gXiDdLMAWzFoIaiyVFtQspQMytwAlAa35LPAQf4FLBQRyONLMoF1jZ5XgY4y7LzAB66GbMPzp57q3rYYF1ABWoErHMtTss9De42oVtAR0hzaOW2eYNe3lTzlvg2eEG2V9qgnJQX1dPSOiciYZ+ZgZ+vDTfneqgawQeaZXXAGksqgprelWcnfSUkcIZAkbmdBpIVOLncaOyeZOytREulkBjapRIA/cmsjs7sEs5iiy7xcE/SpDLDar7ucTtE6QhekNiNXkAvnAeNLWhFxKN+2wEDoSx9pqtAS04MtJPdsZEBKEnRl9wL3zAYJaoMZMsktG3KtpY48M8aFZifZqe1yusjw1vFfshOCn97bWOYcMxzN0UQf5nYGRNm5pD3nC75+Bi9EOYV2WQcz09lQDuX/8CT79CkkJVyeKfbLR3YQoDbw9pe5O4Q+C41J5wKK1XcgBiMDgBowAL0qHWKT3Sh607l6neWfUwmjmAHAH4lDHpPPInXSdpANMyUTVQksCJ68GcCsQ7bliiCDScEZH0fhzTMuVNJ6C5E4t4+LlBGqu9WInZdYqumbfrYmtT7KdxYJ/0kX9om7EWG1+UQaVlIaBXq1qEPSqy8i8n/4NDpxqICsPKZhc0WyhKZESBScE+giJCbMuResRRSg1vYlHVnuWYOGYpZRn2ZTlFkhnrvOnADOW5BdpqJTbFDXlAzlU0PpnfcarkgAx/6TrwE2EGjhMEC2HAFNwo+OH+lVtK3i5gkogP8JSdFHxJzsEAUil7I6iwATwZNmP5o/JRcgk/8lDOUHVxhhID5SlPBq905LqVAP5qIcc4+QQ0qPERWny97guaaHYBmDGo1wKXGGsBmXvZoopFQAdobNFCekER5QcW8QsP6d8NGXDTVSrap9jziBHskwbwwfTB5grJbFEOyfvjfmcfDJHpjgaQNmRFA3BPFGRqNzRf7IDIO7YLMdFHBd+dDmnIfRUA1lxcAIorpqQ3nS4ePSHH7kfOblgTmdB5qVIUYrXmd4MM0CdqFbstHAmJRyoxL1/AFBoZq+m1ZmrXNIoX8SN2kdcqM4krJlcOa1PhvKXe+kNkvbkIrwvrVejY0mmnufAgVMN5J6/6hEAIx76wEe4U9xT5DNx5R6GHUXGdKQBfJXDVOpjnaARZKlNcwdUoLfI1pUcoTOhExrUzEEwqQZ14rrABDqdhaa7bqStI0USTRB774903Rg2azoqOJaxSDDuuizjgVPf8+DAFMhPm8sdSE4mq2oUukxxjbRk5SrwGZHrxbFm3EXX+DFwQ++TIKu8XhOohhdYx2JDvQrVBKYTX7WZxE0gDsPDPKH4WtsdmcFV+JDg4D4m0Qb+6e3z4cAUyM+Ezwmk40kngDJesHbI6gCY4T0YE5g5+RRxHfnAW4F2SDLCanw7XpcC7KjIKB17JMYV4hdCVR2v49mzatO/Lx0HpkA+QcM86ycWmIkXNBI9vXLOu0fBUTYhU07mimWirhFiPTRrAfUXNK4f4/+CzNMsz4wDpxrIaS5iYIKE3KCBMTpCzpiKe8oPYFQIpq/OsnoI51jZWeJ+wSqSdabwuJo0b0/vwXRHtWMijKIT22lsO6utcyztYQhT9/Jz4FQDefzx9AIb67gR2YeNp32I74QsPTR78I3Gnx3Z0bh2jFZ6Yvwa6Yb5Af1Y2r5+jr/HovC4CWXoqkMTwFL1W0s6uxYBPlk/4561s51919bVo6v2eO2fdU1eDfqnHsgxg+uWyM71Qvs8xCWnqY4D4YOadlTLunmsqy3ihSNAn23r2yoZLZP4O0J+aOPeRHmssp5K4u6xDEcCw/unUsZrQuRUAzmWbBTU+KXm6WTnmT/eWDuOUh5WIkb2oJMZr5Rg7PMetcNrmH6kyck2TDsKl9o4yQH1IaVnc2/fEhZAp4blj3Ub9SPWbeqO5cCpBXLh10MC5mLfMjO3SLLQyJHisTyLFH1s5uj9v+SuB+R47uPCx1Md7+uQOSQzof7LfJZGaOgBmCeSHl/Mk8Z09RvD6siursrzbLj14MLh0cZPWvTrkv/UAjkeIAD2/d453/Pl9R4BrNj4UxHmioy+oVPcSuQqrq6mq7jKM4zDtCXYcXJMVHPtNXOlH177vEPN2adgialPEsGTpZe/rsM1Z7PGVhgiR/Q7FTipnfsyn/LdSOUm5/o5hHwOWUefB3c01lNFZkHzINtTrtCrSe5UAjmFgDlhhGKRd4EXOThL4Qg3UlEl+oZ2cQHSYbj3xg3jTT/pKj7DC8yTqSb9uVFkPO9kmifxD1sySefZlTpZ0kP8XSV8JI7tBbknlHoy0gM92EPInIaoUwlkH6xgngO8S5ybteQh8xxIr8AoOw8TcPM+DVdgPk4zV/j4hNTjl/yobamJ7JFmfvyinnoOJ7Y6LAdtO9tFPt2zRMcLnqduwIFTzQ7PxFoGxIJZUNd6x/AwgOSVcHhUSAy4e8LtyZsrhmJ8ArFfEB3Un36zfkFNTs4SoOYZLQtknpdvajlBNvydTOX1TXHqNHK38hIa2fGWvfsSwhGCAVgfhM6zlXSPzLE3fUATUqzm5GRPe9KJJUNRVZs/2J5hirrv21iauWKe93XYuU22nXMVAPJMW+G7XNHxPu/KvcTlnSogZ+9dQssYmR5+he+lrnDe9Jxv9eNC+CNJn+6XPz9pngwlX8ifFNp+vbTqMazFyTRN7YTVw03zo2gPy3m57jWtV1bm2qpAphOeup4DpwrIfbPzjuOw2trqfDvD5zq9V+jV0qP3dEt9m/yxp0kVtEcXth64Wbfp3wc5sACQ1+h0V+l8pxp5nD+nHMizbf3MXFtf40Nhg9kTQZUnXZTGelRADtMN78eZ3vtMc3w6NarLRf0Gjoen7+k+xt3xxZ9MpNhzQspaUhqazQ/PUoRz17k8cKnfGeu1Vb6xjFaeB9RT13PgVAN5AXP63Pp82+DnvQrY85Y90jVe9+vk6fGU8biAPXxMO562fyzjdz2NR0s/nvvhPk36o2YGHp4rYx+FL9kZZXoBPWnqx2uTY4XJ9AKyEdlmNbBzGWe0oADyVCOPMS2/0zUe9Pr6hoLn/QJnSm+cnW/n+Tl7bdgh5zzv8qmDNK/lxdMAz5PQeJK8Jz/LIWROTj2ewrwn1W4Y7/3DyzM2U+QQOI9f0qR2UlIAnz0z39YwrdnD0412soThsx2v5enwTc6xnI5Wd61UC58/u9DObywxicI4GYHZ3d/l6wqcMe0ZsLgQkNMuJR2/nudFeGpSu6PLicg1PiwviLWe1mIo1AN4+ngeXN14ns/qhZc1j4BoqpV5vebYi67N427cn5lbNKnmcNLrhdf69a/A5IR0WE4A+NzGQoyRF7Gkpvutx+Xg1I2RhwLgEgafWooJr0vn5tsFfptbC/GZ0BjLcazlPgu8Clb0/9H1l3GYGmGcnVPf43KgJsLG8sFiWR2TjtwvAdwL5xbapfMOgXoj0v51qo2Tcz1Xxjj5+ntKyWpOO/a6cnEpfmuY2LNz/JAQP/057gTx8DceO/U9PQ7UYfdSFLxXLiy1Sxf4yF0H5DjGOCYln16ZrzKlSUl9ldvyyHUXxENBWF6eaW9cWWrXLi9juvG9YrYQzQHmOV9xRB2HFp92/Y/M34cldOfY8Kdd4xtgk7+Y7Q6zyImuuXb10mJ747JfqzyVIvswlkbcqTOtj+LIMnt337wMkK8ut3XGzAt+II2Za7/Tm+PkMqPrKhXv6zekOkxT6YbxR92r5V+Ms7a/tPTJlh7VAmk/LF2/OlC5M3X8pfNcojNdp3N9g+dzBTC713rqHuTAqQTyULl6by9/ld5eYVnnw+ROruzzzW7fUHZ8LJjjfdhjRT6FT/b2a74ds4eFETS5bpqbPRJKsaXSbB2yzJofduvpd1Qf/dLROj4DCX4h+RqeHE87Y44aBz/wHrbVoMH5+VnyMTcxv+DbTjnJde3qUrt6cQHtbBrpZqUn2JsFnsK/pxLIw+esMC4ye31hYz7MtwvnF9oGWzZvNT7svUNkN9mVeRCiLvPDN1FUqmFJR91Dv1DrndkG6DA2BTbvwvss/jxj8i7kHQXmYVOGHLND0/me+KWL2cFe5LmcYReecxqyaArg5FH9PbV2Ss5eB3Jil9AZ1ikvMit67epiu0zPX7Oj+U2kYpewc9vgUOz6uOnd43Mgx8KZT2EMfnvDzxck3n5zsb391iJryP22zJzfePyyXuccpxbIPtTq1X2F0d7/HJtD3nlruV1/czneiOofvMA9CrzHhfc5p3cP58DQGHC5yXmJcLB2fW22vXt9KX5r3A+XDrtU00vHgVMN5EkpcPfQjXdX24f8fJFC8Po94l4DF3CH10kqU/+QA3JxzKx2/NDNRkfn2HkjGE5rNovlubnDtr4+2957ezmBjHa24x3+huWc9vspkDtNqwCtsAx1/Q00wFsrsWbpK3P95vwevE5oPTCpFZJUaU67WJ3U/gf5FAfpI40egLi40Np5Nuc4AXn9TSa5mK12kmswfXBSAacu/tQDOc1rBQsBwry+eGGhXcO0fvuNlXaFWWxfptDFGdiAXgB7qkf9CtR1jcTTPydywK9d5A/OI4XOVseMNeGeAPI2AP7g7ZWYr3D+IjtUDXFnrX1eUzfkwKmftZYZyoW9vZs/VtnZdZkdRO9jXn//0267e/eg3d3KFygOA8A9+3J2dSBUcauwTd3DOSCPej75RQsHMGoVl/t8R/wD+H/jvdXYmmkHG6+VEj/F8NGcnQL5CL4oSJ99uNbu3Nlrf/xmu/3lhx3GbWVOezVTAlhTsNyDd65DD4BeCU/R9YHDBJJ5Iw7MBf/kYnJvBrP6HPuqP72x1j75YI25iqmIjpj1kJtTb1r3vOmAiTx5htc715ZCI7zFmPnSBmM0jqjIcbHpZJvX8d+4jPaw7suY3k1yACMnnJtuFjCp32A8/M5bq+3dt1dj26ybdaZj40muPeifArnjSSpOJ1QO2dnlZIsCtdw+/+hMu/EOmoFtggLXsXIp2YNaKhnjqwA+GcTu6OqP8BkjcGo8mtFwM/5puWysL7TPPjrbvvrsTLt6hSVAZqo94ifNavneof7UcOjRGzq1W47glWPleWawnS39/OMz7d5mazdvH8Z1D/QeoD4EoevP6Qq4BeLyHyd4k+mKzqtyrfZN1vdh7TXtID5umTQkzN1aS/STV3lp5YuP1hnWrLeLmNee0VVj48mSpv5xDkyBPODHsMP33hMpvvh4tXFgSPvTn/fbzZ8O2q1NxsuAedbd/qTJlyok0oPzQU1bAlxauE87KJ7bSjce+nL5qu7H1WqyDZPpiY//WD/0hId8UmOel1YuXphv710/0z7/ZL19yCTXGdbx83kkveGzOa7k0xw+0imnmQlHtd1x2RKHoV+5vMAmkRUmX1bbO2xO8LwodDJZXC4R0CWoeU0QD8MmqQ/j6r7S6H+Z3WR9H7eu5A9c8gerJzbacN04swB412IY8+61lZyp5sUVnQCegvhkPk818gSPHIcJ4jLpNPsuXZhrf/eb5bZ3uNdu3tlsP905iLeS2HyEU8sWkRL0iCBwFFEJuutkOoOPSzuR9aX1Wn/GsT0zoqYjb3R4fRs54zCGJnO84XSJve1//9XZ9ruvznB+WopkTXBNQfxoD3wK5BP4pCD51s2Nd5cZI++1P3yzzHFAu+3nOzvt/o6LK/mViJj3CumLu47qYQJ+BNIhgAvsJs17QVAC3BF4xS4J5r5T6tuofg0fN2nPtLbKRo83GRd/hrXz2Ycr7KjzEMRXnQcv5pFNgXwE31MLKJRoW6TPWewLvBn1wXvL7f/47TqH2R+2//cfb7W/fMcXHLvBiUPmw/jTAbmTYWGeh913BXWmuCb5aHzdqa1e7I+o1CsTVMt08sMW7WtFx1tNAjzW49XcBF5iF91/+M3Z9u9+tR7LfauA2IlGee4zmGrjR3/oUyAfwyuFyJ1cgrlmsV3j/OLTM22Xya5baOR97MPb9w6YDEvwium8U4DNq5u8158/Bdytnuk3bbnKW/6X5Vr1sv5DZ3ia1f1au/HDdJXX1xNnMaEX2yfvr7Zff74W2vj8ublulnpId3r/qByYAvkhnOo1s4kO45tD77P/11M+7m3uthm4989fb7bv7gtfBXVkQJrhNXU9IPsG1ti4j6tJP9eHsWs48J+/nfVygQ8C/ObzM+13X6yze2uFZT5O/mCs7LxErRVPtXHP3Ue5mwL5BC6VQKmdNbE3FuYZyzleXmcZqrXtbc3v2XabPdk7MWZWCxFRMh1KaaiZLDAjw7SejDqhPi9HdDWurn2b7PAEcWCWKwMIIv3LyxAsM7nR5mOWl/4OIH/1yRkOPFxkJYCNmtrTnSuel396PZkDUyCfzKNIoXCVqe27yp+zcWERUB+wDrowd6/9y7/eb9/f32lMco/Se6N45rlb5fN6nEmdcS/z3/FZaRs7BDM+wBuhHpUZ8HVULKAPw5z+LQD+7Rdn228/d1y8HFaOXJpq4id76lMgPwb/EszdWVJoF5XIlmb14Rzne80xqTODZt5u2571FaLLX6Va75FuCIIQf1INw47M9BIETtax/DQ0gCyYUwvb+GX2UHsm2ifvrwHi9fYr5hkEsd/dKjfVwsWJX3btOfnL8p/qXGf5jMmXn6zFq4+LC3y3d7W1f/xfe+27Hzl/U5nu5DsntYpVJfTl766B+GPiJpK+nF7f9FKzJojVwKmJW7vIEUq/+9VGaOJffbbOu8YrnSbOlhSfXs52vRq1mgL5CZ6TXz24zCmPauL9vTye5pDPzLgj7Kefd0JbC01HiYJZbTtactI7dErzsZp7mPBluK+KAtVol/760UoGyHO0x692nGfP9MesE//uqw06PTXxSrMDrMZOQfx0nucUyI/JxxrLDSdn3DDyyY1lNo5wrO652fbf/mmx/ef/erv96S/34xOtIpl53ShpXDsTlMHdTQKkh8ljVu45JM/Z6L6g3KKafuutFrZji1dBry+3v//1RvsKU9r90x4w73FKNTs9BXHPxye9mwL5STlI/kWWTjwPe5FzpZb5eaKFGnqVr1b8cHO73eaAgu09dnntY3DGOdkj9EbpdWj9oZI9mL19WQGd1oVVzxpWa/yOsQC+yFcT/QTPpx+eCSB/xHqx/EkQR5Onf54yB6ZA/oUMLc1sdrGnlvEl+Df5IoLfKvLrgR/862r7//7H7favf9xq33HKyN3d/ryM1NAJhAe09EtsY8c4eMQzIexo2BX0wzClr19jo8cHzEx/ebZ9+P6Z9uaVBUxpv96RfEotTOsL/SNa05sn4cAUyE/CvYm8vmCxwNKUY2ePC1rnNUg/P7OOIP/+j5vtb9/vtlt30c7bvHQB8GM6qBs0a46qmYez3C9a1nvN2zfUOsW2F8fB3M/TPmelNzh32m9nqX0/4zCGX39+lk5tEeukDgcoGlMQFyee5nXm22++SbXwNKmeQlpq5dBOXNXO+yjfTZambt3eb39mrPxPX2+1//n1vfbP/7bZvv1+u92/v9d2dl1jHXdunEhaGT4ZP5766fjsRI5yFerkVR4cb9dTDguEDmuDiSuPEP7so9X2Eeds3Xh3rV3DrN5gplqAS9o8WcQUxMW9p32dauSnxFEFtTaMaHYvMG4+h6CfY610Y52lKWZw1dJrHCZ38dvN9iMndN68vdPuoaHvs1c7NLTT22GoZqXC/O6QoxYsd+zMdyV4jKsg7oqIXNWrV5ggLjeLio5xMO3yxf+LnD39Jlr4vXc4EokDGN57ZxUQ80VLLBGdHVI/KTgFcfHxWVynGvkpc7XXpkIihXcXzXtv0xct9tsPAPibv263r/+w2f71D/fav2Fyf/cjS1UcubvDSxh9/oSSO8WkVG9Z+VE5XQEuPPx5HHAPTWZhPARrfbKl6BegHQg4keeutjeZffYggBts8PjwvRVMajXwPN+Wngst7BCjd3mfGrkPnd49XQ5MNfLT5edoEie1cxJ3nLxxFi2GRvYDcZc5dcS3ffzCoJNi3/5lq/14c6fdurfP2jM/xtA77OHec5YbErOx3VFagEINGZpbv4AWijg2YjyAbsMn3BDEETXQuOlPih4y6Gy8E3gr3W/jLPXnzG8Pj/8QEN9AA7/DEtM5dm0lUK1JdQFZ8BTAyYdn/XeqkZ81h6GfJqYinuNfx8abaOg7d/fbz7f3mATbbr//82b7I4D+5q/3Y4b7h5t7pNkHzGjpkboVKPWz4gFhb8K5hpuurp33IRdhO8SyY/R5jq5cpvNx48ZltK8fgXcc/BYAfputlVd4j3id43k0r1d5JdFhRFkSDium4H0Iw59R1BTIz4ixQ7IFZMMUcn+GeRqnWvfmrd3YPPJnQPztX3faXwD29yxX3by9y4RZznLfR0vvsha9vcsH2JlIYwNZ87icONETWt7bVfQ//QX1BHZ0AaBWHT7LlLOfYfG3CGj9aTks8fN94bNrWAu8M/wGbyc5Dr7+Bld/fgweyyLBmqDN9nVlEJFxWf707/PhwBTIz4fPI42VQONvyn1cd/cOYjunZvXm/UM+U+NE2B7m9i5j6p32A9s9f+T6E8C+eWu/3b13yKw35vfuYRxqsEtn4Cx5gHoCzK7vFrgdC8/zUXcnrOaZsFphK+kam1Zc570IaN1OKXgvYT5fubjE20pqXpbRSONmjmU2eyyTRxpV/9LAvf85MXRazBgHpmPkMXY8O09pqRL4KsmZ4GXepHITid9nNt3u7hLngu0zOSaYAfHPAJrfz5jbN2/ttduY5VuY3b55dR/ge0KJr0Lvo7ELtDmQTn9OZnHSCVp4CRC688zD392FpXm8sb4YY3XfFXbM7pnSl84vEjcfu9U8IaWc9cs2dD1RF1Htq3TT6/PlwBTIz5ffALUHRRad4+YhwDV3VwGaY0/HqW9dPYhXI3fRwNuMr7cB7hYA3trKqxtMBLOa2eWehFj+9ZQsh9LuyFoExEt0GstoV19oUMO6FrzMT3BbXpjZ3Gtiz5FeDPdLSNa4TOdsxwPNec78nBaXHJgC+QVJQgFgCOCqinGOV/2tLFcoEErsxJ7tADQz255QoontEteek2KOmzsop3bOfPQNYRLXTPTyMtoW4LpUpFWgG9bFstKfHU1fi7yrukyGT/0vhgNTIL8Yvo9KndTQBZDSgkNwlTYUeGrMeQ7WFugeOeQvdPG4xTsoJwHterS/OWamxW8CttPhR+YtDZykqn4jwtObl4IDUyC/FI8hAfWoVRFMNeP8qHmOS1cdxnHxU+Aex5mXK3wK5JfreYxqM6mpjRiC6iQAjggdc1P06zqZbFjWZNzU//JxYArkl++ZjNXoeQLqeZY11sip54k5MAXyE7PwxRA4TpO+mNpMS33RHGDaY+qmHJhy4FXnwBTIr/oTnNZ/ygE4MAXyVAymHHgNODAF8mvwEKdNmHJgCuSpDEw58BpwYArk1+AhTpsw5cAUyFMZmHLgNeDAFMivwUOcNmHKgf8NRswq577Dq0oAAAAASUVORK5CYII=;" parent="1" vertex="1">
          <mxGeometry x="405" y="121.30000000000001" width="40" height="45.62" as="geometry" />
        </mxCell>
        <mxCell id="JhEwLcixOUbtRuZrVedq-29" value="user2" style="rounded=1;whiteSpace=wrap;html=1;arcSize=13;verticalAlign=top;align=left;" parent="1" vertex="1">
          <mxGeometry x="330" y="290" width="64" height="110" as="geometry" />
        </mxCell>
        <mxCell id="JhEwLcixOUbtRuZrVedq-31" value="" style="image;aspect=fixed;perimeter=ellipsePerimeter;html=1;align=center;shadow=0;dashed=0;spacingTop=3;image=img/lib/active_directory/generic_server.svg;" parent="1" vertex="1">
          <mxGeometry x="244" y="450" width="28.000000000000004" height="50" as="geometry" />
        </mxCell>
        <mxCell id="JhEwLcixOUbtRuZrVedq-32" value="" style="image;aspect=fixed;perimeter=ellipsePerimeter;html=1;align=center;shadow=0;dashed=0;spacingTop=3;image=img/lib/active_directory/generic_server.svg;" parent="1" vertex="1">
          <mxGeometry x="284" y="450" width="28.000000000000004" height="50" as="geometry" />
        </mxCell>
        <mxCell id="JhEwLcixOUbtRuZrVedq-33" value="" style="image;aspect=fixed;perimeter=ellipsePerimeter;html=1;align=center;shadow=0;dashed=0;spacingTop=3;image=img/lib/active_directory/generic_server.svg;" parent="1" vertex="1">
          <mxGeometry x="326" y="450" width="28.000000000000004" height="50" as="geometry" />
        </mxCell>
        <mxCell id="JhEwLcixOUbtRuZrVedq-34" value="" style="image;aspect=fixed;perimeter=ellipsePerimeter;html=1;align=center;shadow=0;dashed=0;spacingTop=3;image=img/lib/active_directory/generic_server.svg;" parent="1" vertex="1">
          <mxGeometry x="366" y="450" width="28.000000000000004" height="50" as="geometry" />
        </mxCell>
        <mxCell id="JhEwLcixOUbtRuZrVedq-43" value="" style="image;aspect=fixed;perimeter=ellipsePerimeter;html=1;align=center;shadow=0;dashed=0;spacingTop=3;image=img/lib/active_directory/generic_server.svg;" parent="1" vertex="1">
          <mxGeometry x="405" y="450" width="28.000000000000004" height="50" as="geometry" />
        </mxCell>
        <mxCell id="JhEwLcixOUbtRuZrVedq-44" value="" style="image;aspect=fixed;perimeter=ellipsePerimeter;html=1;align=center;shadow=0;dashed=0;spacingTop=3;image=img/lib/active_directory/generic_server.svg;" parent="1" vertex="1">
          <mxGeometry x="445" y="450" width="28.000000000000004" height="50" as="geometry" />
        </mxCell>
        <mxCell id="JhEwLcixOUbtRuZrVedq-45" value="" style="image;aspect=fixed;perimeter=ellipsePerimeter;html=1;align=center;shadow=0;dashed=0;spacingTop=3;image=img/lib/active_directory/generic_server.svg;" parent="1" vertex="1">
          <mxGeometry x="487" y="450" width="28.000000000000004" height="50" as="geometry" />
        </mxCell>
        <mxCell id="JhEwLcixOUbtRuZrVedq-46" value="" style="image;aspect=fixed;perimeter=ellipsePerimeter;html=1;align=center;shadow=0;dashed=0;spacingTop=3;image=img/lib/active_directory/generic_server.svg;" parent="1" vertex="1">
          <mxGeometry x="527" y="450" width="28.000000000000004" height="50" as="geometry" />
        </mxCell>
        <mxCell id="JhEwLcixOUbtRuZrVedq-47" value="" style="image;aspect=fixed;perimeter=ellipsePerimeter;html=1;align=center;shadow=0;dashed=0;spacingTop=3;image=img/lib/active_directory/generic_server.svg;" parent="1" vertex="1">
          <mxGeometry x="569" y="450" width="28.000000000000004" height="50" as="geometry" />
        </mxCell>
        <mxCell id="JhEwLcixOUbtRuZrVedq-48" value="" style="image;aspect=fixed;perimeter=ellipsePerimeter;html=1;align=center;shadow=0;dashed=0;spacingTop=3;image=img/lib/active_directory/generic_server.svg;" parent="1" vertex="1">
          <mxGeometry x="609" y="450" width="28.000000000000004" height="50" as="geometry" />
        </mxCell>
        <mxCell id="JhEwLcixOUbtRuZrVedq-49" value="" style="image;aspect=fixed;perimeter=ellipsePerimeter;html=1;align=center;shadow=0;dashed=0;spacingTop=3;image=img/lib/active_directory/generic_server.svg;" parent="1" vertex="1">
          <mxGeometry x="651" y="450" width="28.000000000000004" height="50" as="geometry" />
        </mxCell>
        <mxCell id="JhEwLcixOUbtRuZrVedq-50" value="" style="image;aspect=fixed;perimeter=ellipsePerimeter;html=1;align=center;shadow=0;dashed=0;spacingTop=3;image=img/lib/active_directory/generic_server.svg;" parent="1" vertex="1">
          <mxGeometry x="691" y="450" width="72.8" height="130" as="geometry" />
        </mxCell>
        <mxCell id="JhEwLcixOUbtRuZrVedq-4" value="" style="strokeColor=#dddddd;shadow=1;strokeWidth=1;rounded=1;absoluteArcSize=1;arcSize=2;" parent="1" vertex="1">
          <mxGeometry x="720" y="490" width="100" height="60" as="geometry" />
        </mxCell>
        <mxCell id="JhEwLcixOUbtRuZrVedq-5" value="GPU" style="editableCssRules=.*;html=1;fontColor=#999999;shape=image;verticalLabelPosition=middle;labelBackgroundColor=#ffffff;verticalAlign=middle;labelPosition=right;align=left;spacingLeft=20;part=1;points=[];imageAspect=0;image=data:image/svg+xml,PHN2ZyB4bWxucz0iaHR0cDovL3d3dy53My5vcmcvMjAwMC9zdmciIHhtbG5zOnY9Imh0dHBzOi8vdmVjdGEuaW8vbmFubyIgd2lkdGg9IjIwIiBoZWlnaHQ9IjIwIiB2aWV3Qm94PSIwIDAgMjAgMjAiPiYjeGE7CTxzdHlsZSB0eXBlPSJ0ZXh0L2NzcyI+JiN4YTsJLnN0MHtmaWxsOiM0Mjg1ZjQ7fSYjeGE7CS5zdDF7ZmlsbDojNjY5ZGY2O30mI3hhOwkuc3Qye2ZpbGw6I2FlY2JmYTt9JiN4YTsJPC9zdHlsZT4mI3hhOwk8cGF0aCBjbGFzcz0ic3QyIiBkPSJNNyA3aDZ2Nkg3eiIvPiYjeGE7CTxwYXRoIGNsYXNzPSJzdDEiIGQ9Ik05IDBoMnY0SDl6TTUgMGgydjRINXptOCAwaDJ2NGgtMnoiLz4mI3hhOwk8cGF0aCBjbGFzcz0ic3QwIiBkPSJNOSAxNmgydjRIOXptLTQgMGgydjRINXptOCAwaDJ2NGgtMnptMy01VjloNHYyem0wIDR2LTJoNHYyem0wLThWNWg0djJ6Ii8+JiN4YTsJPHBhdGggY2xhc3M9InN0MSIgZD0iTTAgMTFWOWg0djJ6bTAgNHYtMmg0djJ6bTAtOFY1aDR2MnoiLz4mI3hhOwk8cGF0aCBjbGFzcz0ic3QyIiBkPSJNMyAzdjE0aDE0VjN6bTEyIDEySDVWNWgxMHoiLz4mI3hhOwk8cGF0aCBjbGFzcz0ic3QxIiBkPSJNMTAgMTBsLTMgM2g2eiIvPiYjeGE7CTxwYXRoIGNsYXNzPSJzdDAiIGQ9Ik0xMyA3bC0zIDMgMyAzeiIvPiYjeGE7PC9zdmc+;" parent="JhEwLcixOUbtRuZrVedq-4" vertex="1">
          <mxGeometry width="30" height="30" relative="1" as="geometry">
            <mxPoint x="15" y="15" as="offset" />
          </mxGeometry>
        </mxCell>
        <mxCell id="BWdZ4Q9WPobwbQgyvx96-1" value="" style="shape=image;verticalLabelPosition=bottom;labelBackgroundColor=default;verticalAlign=top;aspect=fixed;imageAspect=0;image=data:image/png,iVBORw0KGgoAAAANSUhEUgAAAMUAAAEpCAYAAAAjyea9AAAAAXNSR0IArs4c6QAAADhlWElmTU0AKgAAAAgAAYdpAAQAAAABAAAAGgAAAAAAAqACAAQAAAABAAAAxaADAAQAAAABAAABKQAAAAB0xYF3AAArA0lEQVR4Ae19CZwU1bX+GWbfN5gZhn0V3B4SDUb0qYEYY4gaI2Ki0cQFFZdH1LhvJPp3j7tRjKI+o6Li9gf3iMYNgooKigKyyzIw+76/892u6q6pmenuqq7uru4+9/eDqaq+99a93z1fnXO3c5O6OZAEQUAQ8CIwwHslF4KAIKAQEFKIIAgCJgSEFCZA5FYQEFKIDAgCJgSEFCZA5FYQEFKIDAgCJgSEFCZA5FYQEFKIDAgCJgSEFCZA5FYQEFKIDAgCJgSEFCZA5FYQEFKIDAgCJgSEFCZA5FYQEFKIDAgCJgSEFCZA5FYQSBEIoodAR2sbdVZUUv3ajdS+bSe1VVbTgI5OVaCk3GxKH1xCGSPKKWvsSErmewmRQUBIERmcvW9p3bqDdi9+l5o/W03N67dQW00tJfGv2OnV0cmEGKAp764uSklOVr918d+M0mJK32s0FR4+hYqmHSIk8SLq/EWS7LxzHlRzjtAIres3U8VzS2jP4qU0gIW/3bjhkQmgyIC/xmAgCH5PSUqi5K5uShlaSkW/OZoGzfgppZUONKaQawcQEFI4AKK/LGqrq6nq7ieo5qW3qRUqQScAEplJ4C8j/KaThC9TmSApKSlUcuFpNPj0EwKllN8tICCksACWlajQDrXvL6ftdy+gRjaZHA0gh0YuaI8sNquGXno25R20n6OvSdTMhBRhaHloh5oFL9LuJ19SuXfoppJVzRCobLrm4Hyz83Kp6IwTqWzWDErOyQqUUn73g4CQwg84dn6Chlh91W3U8a9lFDYymAumkQMmVfK0g2m/eRcLMcwYWbiXeQoLYAWKCkJsvOoOan9vhWckyWnNEKAA7ejA87s3zP0roSwS7CEgmsIebr1SwWTadu8T1PTqUupsi5JAan0NDOXmH7gfjbjpEhmd6tVSgR+IpgiMUVAxGl58m5pfeoc6OzqCih+WSFrnG/MdtZ+uos1X30md9Y1heVU8ZyqkcKB11320nCr/9xVfH8KBPG1nYSLGljsesZ1VoiYUUoTY8rDdOxa8omam1TBphPsRfRZfJwaPemGy8IdHn+szmjzsGwEhRd+4BP10/ctvUMea9e7QEsZSa+SEOQctVrFmrfFXufaDgJDCDziBfkLnumPhm9Ta2GR9dtqcuT7noD/HvfGf/tzKX40YTdU1tP2SW6i9ssZK6oSNK6QIoelrl39JrRs2e4ZfQ8hHT5rKo0b6P8xU9whm0vT4MfBNx/YKWnv/44EjSgySVbI2hQB9iaq3P1SrW21lASHnLzmGT7v5X8EBe1Pa3mMprbhQZdeyYQu1r1pHdTrpdK2BXzUNENR7EZfTYiKx6fUPaOPEsTTqpBlBJU3USEIKmy1fsXEzJa/ZQC1YwqEJeNBZGQiBdUsjrruQsvcZ1ys5iFf9+vu04+7HqamyyvO7Tg4bxOhsbqHmRW9Rx3FHUUp6Wq/3yQMNYgHCHgKp326ill2Vnq+2FQHVCAEzKemE6bTXo7f0SQiUCoI76Pif0YSF91D+lAOUaWVJSxirppWxkZew77jnceMvcm1CQPoUJkCCvW1i8yYJm4JsBJhMuUceTJMunh3UGiXsmRhz08UqDdIqYoBcNgJGo3a++CY1fr3ORurESGIP2cTAxm8tsYPOVuAvdnp5CeWcMysoQujvADFGXXOBWr7RgxhWyKFpi6SWVvr6joeps4FHzST0QkBI0QuSwA/UhB2P5nhXwQZO4o0Bgc6bPpXKJ/TuQ3gj9XORWlxAox6YR9kH7q866P1EC/gY5R6w8luqWPRGwLiJGEFIYaPVG5saqa2+wdooEN7DX/XujHRKOmCCjbd6kqCfMfbWyyiPzS81bIuvvw1tAWLsWriYajZvs12WeE0opLDRst112iI7K8KovSe3MJ9a00Ib9IPGGHnFub1NKYt1wdzFnoeekWXmJtyEFCZAgr3l7m5UA/oYJbdfpraiqoJY0Rha3wLaonrpMmr+RjrdxsYUUhjRCPI6KS+b1LiTJlxBJlPR2ppbqaXJmQ5ufmEhld/GptTeWv/EBjHQ6f6el5i37dpjpRpxHVdIYaN5s7OyKS03x3pKFlr4ecpbtcF62n5SFIwYSgNvuIByxo329S0smHXQFjCjdvzzlX7ekHiPhRQ22hyd3bahJbZHgKrf+cjRxXklE8dTyU3/Q1mFBb7OfzDEMJhRFc+9JitpNVkQUtggBZIUDhlsKyV2xbX8sIt28h4HDO06FUCMsr9fTwVDDeUKhhhaAWBG1cyXfReAQ0hhUypz9h2vFvJZGg7V38Vf6J0Ll9DWV97SnzjyF8TIuPocj8bQcwxEDIO2qP33Cvp24at6yoT9K6Sw2fStw8son+15FQIJnvkdHB/LLeoffMZxIRx56BQquH4OZeewQ2ZN4AMSV4uHMrX9fWHCd7qFFGaBDfIeM9ID9hrpE7wg06loEEL+h80/7fc+RaveXmoldcC4w4+cSoP/MpeS0wwrYQMRVyMGBgISvdMtpAgoYv1HSDvqEE9nWxOo/mP28wuna6yrp+6b/kFbln7UTyR7jwsOPZCG/fksSmZ/s94QiBgcEaNRdYvepO3LP/cmS7QLIUUILZ4/aW81q6yyCELg+nsVNEbNvAcdJQZGyAb++udUPucU33IQFMBfOTVyNzY0Uu0jLzg6ENBf3d34PPkGDm4sWCyUKSMzk7ZnJlPaJ19Re1s7EbaQ8pfWcuB07S0t1LVqLXWOHUa5xhEky5n5EgxISaYsbF5KHkBNn3/NFhubbYHKiPJznA4+TKY5ZQAV/yjxnDaLpvDJkK2rif89lTIOnuT5GtvKgRPpX2geqq2cd7+j8wXQGGVnzKRBp/3aVzp/2kKLBS+HLU8vSUhnaqIpfKJi60p9jceOoOoP2X9sbb3HPLGpLVCAds6jbdmXjmuMnMn7UhKWmKxeS6wv/GsMlJ+JA+3VtnM35R12EKGeiRJEUzjQ0pljhlP+H07wjPbgqx/El7jXazVtgbSNrDEqwqAx8s6eSUXHTVcHvijtFEQ5m3nuoubDT3sVN54fCCkcat1h7AygbNYvQx6N0ouDWe+Kq+9xdDkIFhAWzT2d8vjMPLV7Dy/rjxi6Sced7or5z+rFSoi/QgqHmhm2e/l5p6hdcUrQ+hO2QO/TNQbHa2H3NuvmXOfoZBqIUXLNeb5NSihPgLLC2UEiud4UUgQSUgu/41jfwdfOoeKD9vd2ni0k90XViIE5g6bvNijv4bb3hPty9V6BGKXXne8jBt7XFzG0cmCmu4q3riaKh0EhhVdUnLnAUu7sS8+gIptLub2lMBADbvW3zLvXUUcDOjHgd0oRIgAxWnl5+abLb/UWL54vhBRhaF0sASnQlnJ7bXc77zET47JbHZ1QAzHGPfgXypswJmAfA1qrZuU3tOdfH9upSUylEVKEqbmwYnXk7VcodzbKwQDMk75MlEDv14nBS84rP/6Mdlx3H8Gxs1MB+73H3nud2tbq9V9rLqdWBvi52vnAP+N+7kJI4ZR09ZEPjvAdfu0FlFaQ7/m1PxOlj7Q9HmnpsBej4s2ltPHGBxzVGNjvDWJkjB7ht5zQFuj873jq5R7Fi7cbIUWYWzT/J5NpxM2XeBbmmb/AVt6tEQOHPeLkVZzA6mQAMcbdcw0lZ2b0bUpp2gLE2PHEi46OiDlZDyfyElI4gWKAPLJ5Nnn0zZcqgfNOmtkhiEFj4BTUr+fd7WjnO33YYNr/+fuVyacvPelh8mnE8Dg7+Juj2ioAhBH9WUgRAbgxh5F/+BQaNvcPlJxtOPg9BGJgbRIOntw231m/TSDGSD5VNau4yIOMRkQjTNAWDSu/psbPVxsfx821HBkc4aZcO/9p3nH3NLWzYHm/xnbKAEKxwGJ0C4v9Rlx8pp1c+k0DB8zfnvInTzkRS9MSKoFGZphak5Y8Suisx1OQBYERbs38ffeiprRkav90NXUFWsbtr2wgFQsnFvc1swB38BFjWPTn1MK9tJJiyp3yX9T0zse8MLDVM3KGdyKg3EySZP7XxcfWFHC/KZ6CkCLCrQmhBTEautrVSUXd3HG2HSCkLKDdPOPc/M16tf8BeTtFjPTBJZQ8cgi1rFitVswqMmiE8BJy7UZFCpAoXoKQIgotCaEdyIew4OsOYQ6ZGKwxuvmrDe2DpSaZE8c4Roys0cMomfsZze8uow7dhAIxtABCtrCmGjTzF/qjmP8rpIhiE8Lcaexoo84vv6Mu3TSxUx5NY2BnXQMTYwB37PMm72Mnpz7TgBgpvDy+8Y0PqFPnAwiiaY2O2gbKGDWUssaM6DN9rD0UUkSxxaAxCibtQ7uqKilp/dbQNAYElP9BYzR+9R2lDSyi9FHDHNUYaUyM1k9W+rbeAjvtnXheOONISwfRRBF6v68WUviFJ/w/ghglB0+myu83Ueo2PggGfQyM7ljVHIivaQyYNG28iDCVhRhfeacCNEF3dga18lHJHfwOpSm0zNUedS53PHS6hRROSUwI+ag+xhEHUyd7/m7mjqtyMGCHGCgDNAYHCGnrR5+rjrKTxMjhjjyx1/XmDz+jzm7NhMILWUN1rvmesnlpCzrosRyEFC5pPRAj58D9qIX3RLd9v8U+MTRtgWqBGC3/WaU6yk4SI2PcKEoeVEit//mqZ+eb393yQwUNOnaaS1C1VwwhhT3cwpIKHeTcA/ahDt7p1vrDTh8x8PWHsAcbjMTQXOek7zPWsS84CAxiwLEB5kjQj0HA/507Kii1bBBl83L0WA0yo+3CloM38nXn30CNn/KXWCeDJniWiwszjAN8y5b+40bCknYnw9bb5lPF068SFirq66RwJMDERQ/E7Ey3aAonJcShvPAlzufZ5I4NW6l12w6fxtAJYuU9hj5G2ydfOOo6B8XIZpMPztaaDc7WlGM3dtVTyIdVxmIQUri01ZJzsihp33HUyaZUO/czvJ3vEEypbj43G8I7YPJEyh7kzAw0CJw9cSw1s9nk7Qsxebs2bKMsNgXTh5S6FOH+iyWrZPvHJuq/YL/3yFsvV5t/1LZW3YTSTKKgC4h0/A+mGI7y2nXJLY4eFQwCj735zx5HCLxAEaG5vZ12Pfx0TC4vF1IELVnRiYgVqEPvurLnKaghFAXEaNy6g7b96WZHiYEijfnrxYoYqnhMQjhc2P3s4hBKG52kQoro4G7prfphj7ZOQTW+Sdc0/Kxh3QbaftltjhIDGmPUNRdQ0fSp6q0g4O4Fi2JOWwgpjELj4muMGuEU1GxenKeP8nj/Wik3iAHzi//V8fnZIIaTxwVDs0FjFE+ZpEy21voG2njVHTFFDCGFFYGKclwQo/hvV1K2sfNqtX9hrAOI8e33tPa86x11dKY0xgPz1PnecKTW8PZH1MoDBrEShBSx0lJaOeFTqvTOK6hozEhfya0SA9pCN6X4bwOvu4Kjs876Rl+eIV5hCy58SsFbYkdqCm289u4Qc4xcciFF5LB27E3QGDmXn0kF5TzcqQu3VWKgNEirpUOn+Pvr7nLUzIEphdEzHJjZvn4TNfPylVgIQopYaKU+ylg+ZTLlYVRKdzCAOHaJwUnRKa5buow2XOGs6xwQY/yLD1A6b3xqq9jTR03c90iWebivTSyVaNOHy6numnvVSavehLr28D4I4kIjVGZqKmXOPonGz/5dEImCjwLTrDstlWBWuT2IpnB7CwUon35uNtYbeUMIGgOTbrUPL6TKtz7wZufEBbbJxgIhUFchhRMtHuU8cG52+bXnWztQvq8yaxoGI0Zb717gaMe7r9e59ZmQwq0tY7FcODe77M9nWztQ3s87cJLShj/d6GjH28/rXPWTkMJVzWG/MDBNCn9xOA296HTLB8r3eKuhPwLX+1tfeavHz4lwI6SIo1YGMQadPEMRQw236gJutY9hMKPqH3wmZoZSnWpKIYVTSLokHy8x5pzqKZFODKvl09I1VdfQzidftJo6puMLKWK6+fouPIgx+Pe/piH8zxusagtvQl48yK4zty//3PAkvi+FFHHavlh/hHOzB874KakTivDlt0mMRj42uPaRF+IUqd7VElL0xsSVT7BvG57AcXQvroMJONNu0GVnqT0OyWk8aWaVGIivmVENq79LmL6FkCIY6YpyHKwZgiODDbOvpib2PWslgBglfC5Gamlo20872e9trC0Bt4KTMa6QwoiGy65rNm8jeMtYzedEwLMHzBjdnYyVomKTUsn1F/jWScGMsmFKtTM5Y2kJuBWMjHGFFEY0XHKNdUIwk7acfjntYvcxnc0tHlc3miljp5hYQJh2wjRKheMDq/kgPpOonWe6N72wxM7rYyqNkMJlzYVzqr/+1Wzacd+TapGf8i3rUBkxIpV14P62tASKgJW0Ta9/4OiGJIeq5mg2QgpH4bSfGTrRa3lZxUY+QL6pssqjGZAdzBx8qa1+3fsoCvoX+WefSOlwNqh9/fuI1vcj7f1pHZ1U88GKvuPEyVMhRZQbsr2yhvbwEbzfnHmF2s+AAx57EMEBMhirWDJpX8qe9hPfscDGH4O4hgkV76RICQIHiRImBGo/+Zy2/PV+amNfTJ1smniDw0Tw5ssXmNjLOWeWxzkyd9y9BDRG6u8a5WK/To1rrI2A9ZedW5+LpohCy0A7rL/ydlp7wTxqZUIoP6wRLEfJqBGU/uP9PZ1ui+9Fv6J9VyWB0PEahBQRbFlMumHzzte/v5hqXn+fYCpByFTAVziMGsJYTWiLIp7p7oI3P7zT4vBsEjtTrnrj38Ys4+pazKcINSeGWbfe8QhVvvKOjwh6JzpCZTC+JhX+ZMeOUC5ujM+DucaIWOMqPqaYSQ6CxVsQUkSgRbcs/Yhq5j1IbTW1vuO7IqQV+qseRqLqj5hCzd9t8B0g319k43Ot3F1VNZTEh8KQkMKIjlwHQqC2uprqHnmealk7NNXVe6JHUTuYy5s7aSLt7mLzzXMimPlnv/fw/NdRU6eOKPYbMQZ/FE0RpkbDeqUf2F1kE3+JVb9Bt9ujrCGM1c0cPZySi9jhAc+LWBqF0upSz+fzpcONZ5wF6WiHoUF3v/w2rT/tUmWve2ekQQYXEQLVbk5Lpty9x1ruaOuQNX65Rr+Mq7+iKRxszk4+FGXL7fNpz+KlamRJfX1dZC6Zq5qdlU31+/FxXx/8xzIxMALVyi794zEIKRxqVSzT2H7XY+pMhk79/DeXaQZzVTFylDF+lJrd9mo0c6S+7rleHUz2ts1Cir7gkWeMQC8vfS7WDuYGa8vJoNSUFE+/xyKJMQIF7YhdfvEURFOE0JoYp9/52PNU/9QrntElrQPqtr6Dvyqm5OUQjiom9gxoNbTiOGLGQEhhFbk4jY/h1qq7n6BdL77pqWEMaQdjk6Rl2fzKs1bJ4Bnxbl4gGG9BNIWNFsXJPxVX36n6D94lEhZNDxuvdVcSXSu6q1SOlEZIYRHGijVr1emiWMhnqXNq8T0SPXoICCksYL/ljfeo5pZH1CYglSxGTSYLVU7IqEKKIJt943OLqeEe3iKq70FAujgwmdqamoJEoHe0Fh56TuKRq3gL8VejMLTQtr//k+oefV4dmO7NPg4IodcFI0h2QnpGBg3gg1jiLQgp/LQohlx33PM47Vy4hHBmgwpxRAbUp6my2lMvG/93ZaWr04lsJHV1EiFFP82DSamtvGQD+x+8W0WdIIRx1MaJ/Popf7CPM7ZV0B6d8MEm4jrAFWd6eZnspwgWs1iPB0J8f+3fqOrdT3xVCUWADUSAMLll1AqasH2LvaUa3TxH0TWsxIdPHF3JKllTY2KHnOOEYEKBDHkTxtCg09gTuIEkptdH9LaxqZHqP1tt651YEFi81xhbad2eSMwnQwvBocDGG++nqnc+8jyF8NrVEHpaTg/nxvm8y23EZbOpbvVaddKQ6qPYzdtQ5lAu06rqqXH9ZvIuYLSQGTRF7n4TLKSInahCCq2tYDKtv/w2ql2+0vcltyu0OiE47+TsLBp8+gk09LxTPG9iUrgl7PzsK0pp76BOQ3mDKhvjkpGRTmllg4KKHmuRhBTcYjCZcOhh46erfO1nlxB6DixoMJlKbriQhh59hP7UNX/Rn+hcuYZabWxFhfmXqi8kdE2NnCtIwpNCEeKGe6hyxVc+dy8hEgJkSCkvoTE3XUKZe49zrrUczKmzopKaPvnCeo7QKhy6h5TF3epYHYyEJgW+lnA7U8tOjVWwakboKOKvljaFbe38A/ejoVeeR5ljhhtjuOoaI2vt7F3ETkjmWezC6T+xkzQm0iQsKUCITawhqt/6MPR5CJ1M/DebvXqX3P5nymQXMm4NWPa+a+Fin2sbq5oxNYWKf3aYW6sXcrkSkhQgBGaqFSH0iSurgqFDD0JwgIYo4HOsR1x6NqUWsocMF4eOFauV60vLReS6wjTM33c8pRa7u46W62ZIkJCk2P3sYs/SDaOHbwMoQV9qGgJDrqWzfqkOXnQ7ITDsvPXuBSEtW8n80b5BQxSLEROOFGq16/xnPUKhCbWthtPSZqanU/GZM6nsjJkxseRh46LXqJP3gqj5F9Qh2KDVNz0vl4qPil/TCXAkFCngvrL+wWd67qcOViiM8TRhAiFKLjyNBp08IyYIAQdttY8t8vShNCE3VivQNUzE5vHDXT2AEKgOwfyeMKSACxr4c22qrvGOFAUDUI84hi9rdk42DZ59Mg3kiblYCKpzff+TlNTSaq+46HMxKUafGhv1tVdJT6qEIAVOGd3+l/s8hEC97XSqdUJw2mw2IWKJEBhYaHp1qTopqYfr/2Alh+uODnZaQT7lT9o72FQxGy8hSLHjrw+qNT5OtBJMpta5v6OBM493IruI5LFtxUqq5YMlbRFCK6Fa6zTnt3E96qQ3RlyTQk3O/b8HqWHl1z43lla1hK4hGDFMWg3hPkTBscfo+Ln+7/bln1PdNfdScyubTYa6BF1wLU0mn8U97Lijgk4WyxHjmhR7XnrT49cVcxFoXLuE4HQYdh181kkx04eAUIIQlfPu9/Wj8NAKBhoh8DEoPm5aTAwmoIqhhrglBUaaau/735DG4xW4LEQYdcE8BIZdYyVs/3Yd7bn8Tl8/CgW3QQhV31FD1ErfWKl7qOWMS1LAWVnV7Y9SCzxv2A0GzVJ83HQqn3MqJcfIqT3qg3DNPR7PI3r9rRBCT8N/M1NTach5pxqexP9l3JFCrWm65SFq+WGXr/WsCoRmNqjFfdMOoaK5p8fEilDUfddTL/NcxAvUaPwg2Kw/AMz+2VQqOPRAH5YJcBVXpIBQrH/4Kar/9wpf09kRCE6jCMGrXXPnnkY4H87tAdpxE38M1K5BjdSqzFbrb6hoQXkpjbpqTsxoSEPRQ7qMK1I0ffUd1T/xiv1+hC5M/Ded90NkX3oGlQ0bGhLAkUiMk5N23P14z/4DXmyHEBoGmJzM+p/T4vJMu0BtEjekwATdtpsfsk8IHSkWpKziIhp9+5WUPcGdG4RQVGjF2veX0y520qbO1cNBMQgQajtk0NPyX4w25f3m5zTchTsGUcxwh7ghxe57n6SGdRtCGosH2NhTPeSqcymdz5h2Y0jirbMgQ9Vzr1Edb59t1w+n17VcKITQ0uYcsA8Nnf1bN1Y/ImWKC1Jg5WvLsi98hLAjGJwmlYdec8/4jXtXgbLggwg9yKCLiZ0662n1v5x/Fu8FGXvrZTExsKAX2+m/MU8KHEaoVr7qoy1WhUMzN0CIkt8dy+PxJzqNsaP5tRvNJD1nq3XW0+GvpmH0feUTFtyWEEs5jBCYr2OaFHBLs2FeCAv9NIEAKJl7jaZSXvGKwxFdG4zCb7y2W2BD/XMGl1De9RdQWulAu7nFTbqYJkXFojfYLY3BC4eVZjEIRDYfkF4w78LEEgjUn4mFoWesfi3/y58o76D9rCAYt3FjlhQYbdq9YJFn5afWwHZaCSMt5XP/SMUuHmmyUy+/abQPAgiBoeex990Q9xuH/OJh+tHCfkRTyijeYjgSy8HbbLpo0YctU+Gs7JRjKf/wKVGsTYRfrWtI1hJZMBnvvEIIYWqCmNQU1a+/71kOjuFIq7a14SuZxzPWBX+MbD+im4dUo+JH1kAGrPjFsOuYmy5OLJPRJPz93cYcKWA2Yfa2U/fE0V/NAjxXu8gu+WPEl3B08tnT0FDWT60OUCF/P+uE4Dix5mjBX7XC9VvMkWLTvY9Ti77P2ioqmnCgHzF47h9o0MTxVnMIKX7dilW088mXiPVbaDPPVkqhE4I1atG40VR0/ik0kBc5SugfgZgixR52b5m8jEeb9GDFdIJwaPELjzqUCtlxWaQCvGjsfPJFteEJ5zp4t4WGqwA6EZA/1xl7ynOmH0JDL/pDws9BBAN5TJGi+pn/T62N2mmeVgkBNFhYMoaUUg7vNY7EfATmUbY/+JRaktHOu/+850BYKXswrWiMYyA/RpcyoB0uP5PKp0w2xpJrPwjEDCnWzn+aald+4/P76qdSff7Eggh7uvCi08K+8hXuZGoWvEi1r76rRsjUcV4QVoPA9lnGUB4iby1gdj6V5x5gIhZNn5rQSzZ0TKz8jQlSYK9Ay9N8QqneubbypTUIYt4vj6DyI8NnT8MlZeXbH9Bu7je0sRe+Hov1rJQ52BY0EAFJ0IFP43mHwl9No9KTfimmUrA4muLFBCnWPfSUZ07CIOCmevR9qwmNMiNGj6DMs04Mi9mEMy52L3mXKh56Vrm3V2QACayWt+9a9H6qk0EnGt9jIV/+sT9Vq1uTc7J6p5EnQSPgelLAI0XXWx+H1DmF+TL43JOp2OENQ5hEhMcQaIZW1gyqA62TAU2gC23QzWEtopqR5qXuhaceR4NPPT4hNwRZQyy42K4nRcOzr1FjXb31r672lYbglJ5wtKOz1iADJhB3c8e/1wafcGkHtKemIXRvfYXHHE65s46hAvbJJME5BFxNii1vvEe12G+tCYPlanM6TNKln/wLR8wmmEk1n3xOO9hMat2wuXefIcyaAfVPzsyg4p8fRuVnzaJ0XsgowXkEXEsKfI0beARHLYlAva0InOFrXcJmU4kDk3SYeNt8/V3UsW2X5/BE3UyyUq5Q2k+rU8HUH9EwdiYQiSHlUIoby2ldS4qaDz/1+H+1KnSaVsGwJPZIZP78UNvtA2KiHJgfqcFwsD76hRwNxLP9AisJNRy6reJh5R0SVyHgSlLATNlx5z98QmhDELr4nOecc2fZWtsEMsAzSOWCF6jy4898nfxIE0GENCoIuJIUVbycA+P8lr/GBqEdCLv7kIMsgQoytK7fTNvveqz3PmgbxLT0consGgRcRwoI5q4nX/Z1Yq1CxcRAZ7TsNGtLwivWrKXaOxcoM6nX+iQhhNVWiOn4riMFxv07t/xgHVRNS2AINud3PJs7tCyoPHDC0fbHnqea95YTyNCpu4xBaiFDUBjGWyTXkaLqpbepuV3bbWBDKDEEW8bnKPgbnYE2at+2k374x0JqfPsjUov1dDLYeGdQQgHS6iFc79Dzl78hIeAqUmBeopFtehVsCg4WwfmbzMImpQrepNT8wace8uE9RoENCc5+Ehvzt1mvfnKWx2FAwDWkwDLrlvnPKxPGcj010ymHl0mnHd63h2zsaYBmqF66TB2G2GNJRrgE1UAGfbFexsSxylSLypZUy8AmZgLXkKJh1bdUy19x756DYNtDEzzMSww8iZdzmDyEw1laBc8z7Fy4pHefAe8IByE0kiJvtT7JsHK19otvFCmCrZ7EizwCriHF9kdf8NXehqDCCYFxos64wUed94bc9S+3jfx9hfNzpeevRQFRS8/5bcwcPO+nZgn1kytIUc8HNbbxF9Q7Yxys0Gpf5PSkAVR00jFKS2BPwzbex13//grfBh80qf71DkfzGsgAMwkbfIp/fxwNmvFT8ZYRDrzDnKcrSLGHz1dQI042BFeZJ7ycI2NIGW37+z+pauFrHjLoo0l6nsESzQrgOhk4b5RDeQjhPQ2DTzlOyGAFR5fFjTopYObgq243YK9ECtvsG2ZfTW28f9u72w0ZhpkIev5wDFDA5+LlnT2zV5/Gbr0kXfQQiDopts1/Ru1Wsw0Bf63VkVbIQP9y4zqchODsoRlw4DqOEZatnwA8fkJUSYFJtLp3ePKMv/Yh2fzhJIMxb253vc+ArZ9lM4+RPQ3xwwVvTaJKCiy+a9lVaZ8Q4dAGOjQ6GfAOvtZ3u+UefpD4T9IxitO/USXF13c8TAOgJdwWdEJwuWAmJXd1U8Hx04UMbmunMJUnaqTADHP6qvXUrJtOYaqgpWwNZFAz0OwUAAciiplkCcWYjxw1UlS9t0wtxAupL+EU/AYyGM0kLD/PHDPcqbdIPjGCQNRIUb3kfd+OtmiApRMBfQat35CZmkpZh/+YSq45T4ZWo9EmLnlnVEhRyx4xbO2ZcAo0nRCcH/oMqTg3mr0HQjNgH4a/ZedOFUHycS8CUSHF7lf/5TGdgEs4R5CMuBuIgMcwk9K5zwBv3GImGYGS66iQovnLNT5veuFuAyMZmIDQDCBD+o/3pxEXnynzDOHGPwbzjzgpsPhPzU1EQkMYCcGNg4WD2UceLGSIQUGNZJEjTood7HcVe6HDOupkJAOTD2e8FRwxhcrY52rm3uOkzxBJCYvBd0WUFFjW3fqfr8I36qSTQTOTsDZp4JRJVHL+qZS9z7gYbB4pcjQQiCgpmjds9ZxEFA7TSScEowgzKYc3HQ2//iLpM0RDqmL8nRElReXif3m0BATYCWIYiID8sNOt6JAfURFv8MmevK+YSTEunNEqfsRIEeq+iR4AGciAoVWE4sN+LGToAZLc2EUgYqSAY4LOqhqibp5Btht0MkDL8DVmoJOHD6ER186hXD4sXYIg4AQCESNFzScrqRWEgGBbNZ10Mmg1Rp8hfcIYGnrp2ZS1/15iJjkhCZKHF4GIkaLtm/UeQnhfHcSFiQwwlfK5Aw0nBQXcd5Cz3YLAUKJYRiAipEB/omb1Wu/Cu4Cl1MnAGgUz0HBcljNmpOfcuqMOC5hcIggCoSAQEVJUL/+CBrS0Uqcu7P5KbIgDMwlOCcZde4GMJvnDTH5zFIGIkKKG92F368Xuqz9hIAKiYYNPOh/xixNNC34yWU791LGTvxFBIOykgHOCfhcA6mTQiAJTKY/JkMfuL8tO/lVEAJCXCAJmBMJOim7uT1BtQ8/3GsnA1yADHIkNuepcKpY+Q0+s5C7iCISdFC18AEsrOynzDsPqhOCqYgY6jfsMZbN/S0XTDhEzKeLNLy/sC4Gwk6J22Ree94IMmpmknAIwGQbOmkElvzlahlb7ahl5FjUEwk6KOj42SwVteBUbfAp5CXfZGTNl0i1qzS4v9odAWEmBTjZOJmIdQfC3OujC37Mn7mmiGfy1iPwWdQTCSoqumjrK4POsi844kUqOP4pSiwuiXmEpgCAQCIGwkiKZTaW931ggHehArSC/uwqB8JIiJ8tVlZXCCALBIABzX4IgIAgYEBBSGMCQS0EACAgpRA4EARMCQgoTIHIrCAgpRAYEARMCQgoTIHIrCAgpRAYEARMCQgoTIHIrCAgpRAYEARMCQgoTIHIrCAgpRAYEARMCQgoTIHIrCAgpRAYEARMCQgoTIHIrCAgpRAYEARMCQgoTIHIrCAgpRAYEARMCQgoTIHIrCAgpRAYEARMCQgoTIHIrCAgpRAYEARMCQgoTIHIrCAgpRAYEARMCQgoTIHIrCAgpRAYEARMCQgoTIHIrCAgpRAYEARMCQgoTIHIrCAgpRAYEARMCQgoTIHIrCAgpRAYEARMCQgoTIHIrCAgpRAYEARMCQgoTIHIrCAgpRAYEARMCQgoTIHIrCAgpRAYEARMCQgoTIHIrCAgpRAYEARMCQgoTIHIrCAgpRAYEARMCQgoTIHIrCAgpRAYEARMCQgoTIHIrCAgpRAYEARMCQgoTIHIrCAgpRAYEARMCQgoTIHIrCAgpRAYEARMCQgoTIHIrCAgpRAYEARMCQgoTIHIrCAgpRAYEARMCQgoTIHIrCAgpRAYEARMCQgoTIHIrCAgpRAYEARMCQgoTIHIrCAgpRAYEARMCQgoTIHIrCAgpoikDAwT+aMLf37ulVfpDJkzPu8oHUmppsS93IYYPC5dcCSki3BAlE8dTyfUXUPaQUt+bhRg+LFxwJaSIQiOUT5lMxX+7sicxolAOeWXfCAgp+sYl7E/LJ4yjYtYYGbrGEG0RdsyDfYGQIlikwhAPGsNrSnV1EQkxwoCy9SyFFNYxczQFiFF65xWUVVzkyVeI4Si+djITUthBzeE06Hxn3nSRr48hxHAYYWvZCSms4RW22OOmTlF9DDUqpZtSQo6w4e0vYyGFP3Qi/BtMqdyrzvGYUiAGghDDg0ME/xdSRBDsYF418tApypTy9jGQSIgRDHSOxRFSOAalcxnBlMq78SIqKJcJPudQDT4nIUXwWEU0JjRG1mVnUlZhAZFuSkW0BIn7MiGFi9t++JFTPaNSebkuLmX8FU1I4fI2hSmVf+0cj8aQvkVEWislIm+Rl4SEwPCjj/Ckv+URShJihIRlMImFFMGg5II4IEZXTiZ1LPm3C0oT30VI6uYQ31WMr9p1tLZRSnpafFXKZbURUrisQaQ40UdAOtrRbwMpgcsQEFK4rEGkONFHQEgR/TaQErgMASGFyxpEihN9BIQU0W8DKYHLEBBSuKxBpDjRR0BIEf02kBK4DAEhhcsaRIoTfQSEFNFvAymByxAQUrisQaQ40UdASBH9NpASuAwBIYXLGkSKE30E/g+l2h4Rm0FixQAAAABJRU5ErkJggg==;" vertex="1" parent="1">
          <mxGeometry x="202" y="135.88" width="32" height="48.24" as="geometry" />
        </mxCell>
        <mxCell id="BWdZ4Q9WPobwbQgyvx96-2" value="" style="endArrow=none;html=1;rounded=0;entryX=1.003;entryY=0.707;entryDx=0;entryDy=0;entryPerimeter=0;exitX=-0.006;exitY=0.704;exitDx=0;exitDy=0;exitPerimeter=0;" edge="1" parent="1" source="JhEwLcixOUbtRuZrVedq-2" target="JhEwLcixOUbtRuZrVedq-2">
          <mxGeometry width="50" height="50" relative="1" as="geometry">
            <mxPoint x="460" y="450" as="sourcePoint" />
            <mxPoint x="510" y="400" as="targetPoint" />
          </mxGeometry>
        </mxCell>
      </root>
    </mxGraphModel>
  </diagram>
</mxfile>
